G04*
G04 #@! TF.GenerationSoftware,Altium Limited,Altium Designer,22.2.1 (43)*
G04*
G04 Layer_Physical_Order=2*
G04 Layer_Color=36540*
%FSLAX25Y25*%
%MOIN*%
G70*
G04*
G04 #@! TF.SameCoordinates,8235A018-37D0-441A-9F77-F42B88AFE5DC*
G04*
G04*
G04 #@! TF.FilePolarity,Positive*
G04*
G01*
G75*
%ADD130R,0.07087X0.07087*%
%ADD133C,0.03960*%
%ADD134R,0.07087X0.07087*%
%ADD136C,0.02000*%
G36*
X223179Y233681D02*
X222069Y232939D01*
X220998Y231868D01*
X220157Y230609D01*
X219577Y229211D01*
X219282Y227726D01*
Y226211D01*
X219577Y224726D01*
X220157Y223327D01*
X220998Y222069D01*
X222069Y220998D01*
X223327Y220157D01*
X224726Y219577D01*
X226211Y219282D01*
X227726D01*
X229211Y219577D01*
X230609Y220157D01*
X231868Y220998D01*
X232939Y222069D01*
X233681Y223180D01*
X234181Y223028D01*
X234181Y13193D01*
X233681Y13041D01*
X232939Y14152D01*
X231868Y15223D01*
X230609Y16064D01*
X229211Y16643D01*
X227726Y16939D01*
X226211D01*
X224726Y16643D01*
X223327Y16064D01*
X222069Y15223D01*
X220998Y14152D01*
X220157Y12893D01*
X219577Y11494D01*
X219282Y10009D01*
Y8495D01*
X219577Y7010D01*
X220157Y5611D01*
X220998Y4352D01*
X222069Y3281D01*
X223180Y2539D01*
X223028Y2039D01*
X13193Y2039D01*
X13041Y2539D01*
X14152Y3281D01*
X15223Y4352D01*
X16064Y5611D01*
X16643Y7010D01*
X16939Y8495D01*
Y10009D01*
X16643Y11494D01*
X16064Y12893D01*
X15223Y14152D01*
X14152Y15223D01*
X12893Y16064D01*
X11494Y16643D01*
X10009Y16939D01*
X8495D01*
X7010Y16643D01*
X5611Y16064D01*
X4352Y15223D01*
X3281Y14152D01*
X2539Y13041D01*
X2039Y13193D01*
Y53079D01*
X24016D01*
X24128Y53101D01*
X24242Y53092D01*
X24592Y53131D01*
X24811Y53200D01*
X25038Y53232D01*
X25372Y53348D01*
X25569Y53465D01*
X25784Y53546D01*
X26082Y53734D01*
X26249Y53891D01*
X26440Y54019D01*
X26689Y54268D01*
X26817Y54459D01*
X26975Y54626D01*
X27162Y54925D01*
X27244Y55139D01*
X27360Y55337D01*
X27477Y55670D01*
X27509Y55897D01*
X27578Y56116D01*
X27617Y56467D01*
X27607Y56581D01*
X27630Y56693D01*
X27630Y140157D01*
X27607Y140269D01*
X27617Y140383D01*
X27578Y140734D01*
X27509Y140953D01*
X27477Y141180D01*
X27360Y141513D01*
X27244Y141711D01*
X27162Y141925D01*
X26975Y142224D01*
X26817Y142391D01*
X26689Y142582D01*
X26440Y142831D01*
X26249Y142959D01*
X26083Y143116D01*
X25784Y143304D01*
X25569Y143386D01*
X25371Y143502D01*
X25038Y143618D01*
X24811Y143650D01*
X24592Y143720D01*
X24242Y143759D01*
X24128Y143749D01*
X24016Y143771D01*
X2039D01*
X2039Y223028D01*
X2539Y223179D01*
X3281Y222069D01*
X4352Y220998D01*
X5611Y220157D01*
X7010Y219577D01*
X8495Y219282D01*
X10009D01*
X11494Y219577D01*
X12893Y220157D01*
X14152Y220998D01*
X15223Y222069D01*
X16064Y223327D01*
X16643Y224726D01*
X16939Y226211D01*
Y227726D01*
X16643Y229211D01*
X16064Y230609D01*
X15223Y231868D01*
X14152Y232939D01*
X13045Y233679D01*
X13196Y234179D01*
X22007Y234177D01*
X22057Y234131D01*
X22242Y234019D01*
X22404Y233875D01*
X23147Y233441D01*
X23352Y233370D01*
X23541Y233263D01*
X24359Y232995D01*
X24574Y232969D01*
X24781Y232905D01*
X25637Y232815D01*
X25745Y232824D01*
X25850Y232803D01*
X65220D01*
X65326Y232824D01*
X65433Y232815D01*
X66290Y232904D01*
X66498Y232969D01*
X66714Y232995D01*
X67532Y233264D01*
X67722Y233371D01*
X67927Y233443D01*
X68670Y233879D01*
X68833Y234023D01*
X69019Y234137D01*
X69067Y234181D01*
X151275Y234177D01*
X151325Y234131D01*
X151510Y234019D01*
X151672Y233875D01*
X152415Y233441D01*
X152620Y233370D01*
X152809Y233263D01*
X153627Y232995D01*
X153842Y232969D01*
X154049Y232905D01*
X154905Y232815D01*
X155012Y232824D01*
X155118Y232803D01*
X194488D01*
X194594Y232824D01*
X194701Y232815D01*
X195558Y232904D01*
X195765Y232969D01*
X195982Y232995D01*
X196800Y233264D01*
X196989Y233371D01*
X197195Y233443D01*
X197938Y233879D01*
X198100Y234023D01*
X198286Y234137D01*
X198335Y234181D01*
X223028Y234181D01*
X223179Y233681D01*
D02*
G37*
%LPC*%
G36*
X97418Y227290D02*
X93575D01*
Y223447D01*
X97418D01*
Y227290D01*
D02*
G37*
G36*
X92575D02*
X88731D01*
Y223447D01*
X92575D01*
Y227290D01*
D02*
G37*
G36*
X186049Y226223D02*
X185412D01*
X184824Y225980D01*
X184374Y225530D01*
X184130Y224942D01*
Y224305D01*
X184374Y223717D01*
X184824Y223267D01*
X185412Y223023D01*
X186049D01*
X186637Y223267D01*
X187087Y223717D01*
X187330Y224305D01*
Y224942D01*
X187087Y225530D01*
X186637Y225980D01*
X186049Y226223D01*
D02*
G37*
G36*
X168726D02*
X168089D01*
X167501Y225980D01*
X167051Y225530D01*
X166807Y224942D01*
Y224305D01*
X167051Y223717D01*
X167501Y223267D01*
X168089Y223023D01*
X168726D01*
X169314Y223267D01*
X169764Y223717D01*
X170008Y224305D01*
Y224942D01*
X169764Y225530D01*
X169314Y225980D01*
X168726Y226223D01*
D02*
G37*
G36*
X164395D02*
X163759D01*
X163170Y225980D01*
X162720Y225530D01*
X162477Y224942D01*
Y224305D01*
X162720Y223717D01*
X163170Y223267D01*
X163759Y223023D01*
X164395D01*
X164983Y223267D01*
X165433Y223717D01*
X165677Y224305D01*
Y224942D01*
X165433Y225530D01*
X164983Y225980D01*
X164395Y226223D01*
D02*
G37*
G36*
X177387Y226146D02*
X176751D01*
X176163Y225903D01*
X175713Y225452D01*
X175469Y224864D01*
Y224228D01*
X175713Y223640D01*
X176163Y223190D01*
X176751Y222946D01*
X177387D01*
X177975Y223190D01*
X178425Y223640D01*
X178669Y224228D01*
Y224864D01*
X178425Y225452D01*
X177975Y225903D01*
X177387Y226146D01*
D02*
G37*
G36*
X113620Y227090D02*
X112529D01*
X111476Y226808D01*
X110531Y226262D01*
X109759Y225491D01*
X109214Y224546D01*
X108932Y223492D01*
Y222401D01*
X109214Y221348D01*
X109759Y220403D01*
X110531Y219631D01*
X111476Y219086D01*
X112529Y218804D01*
X113620D01*
X114674Y219086D01*
X115619Y219631D01*
X116390Y220403D01*
X116936Y221348D01*
X117218Y222401D01*
Y223492D01*
X116936Y224546D01*
X116390Y225491D01*
X115619Y226262D01*
X114674Y226808D01*
X113620Y227090D01*
D02*
G37*
G36*
X103620D02*
X102529D01*
X101476Y226808D01*
X100531Y226262D01*
X99759Y225491D01*
X99214Y224546D01*
X98931Y223492D01*
Y222401D01*
X99214Y221348D01*
X99759Y220403D01*
X100531Y219631D01*
X101476Y219086D01*
X102529Y218804D01*
X103620D01*
X104674Y219086D01*
X105619Y219631D01*
X106390Y220403D01*
X106936Y221348D01*
X107218Y222401D01*
Y223492D01*
X106936Y224546D01*
X106390Y225491D01*
X105619Y226262D01*
X104674Y226808D01*
X103620Y227090D01*
D02*
G37*
G36*
X97418Y222447D02*
X93575D01*
Y218603D01*
X97418D01*
Y222447D01*
D02*
G37*
G36*
X92575D02*
X88731D01*
Y218603D01*
X92575D01*
Y222447D01*
D02*
G37*
G36*
X67552Y221348D02*
X66916D01*
X66328Y221104D01*
X65878Y220654D01*
X65634Y220066D01*
Y219430D01*
X65878Y218842D01*
X66328Y218392D01*
X66916Y218148D01*
X67552D01*
X68140Y218392D01*
X68590Y218842D01*
X68834Y219430D01*
Y220066D01*
X68590Y220654D01*
X68140Y221104D01*
X67552Y221348D01*
D02*
G37*
G36*
X10818Y212207D02*
X10182D01*
X9594Y211964D01*
X9144Y211513D01*
X8900Y210926D01*
Y210289D01*
X9144Y209701D01*
X9594Y209251D01*
X10182Y209007D01*
X10818D01*
X11406Y209251D01*
X11856Y209701D01*
X12100Y210289D01*
Y210926D01*
X11856Y211513D01*
X11406Y211964D01*
X10818Y212207D01*
D02*
G37*
G36*
X93800Y209212D02*
X93164D01*
X92576Y208968D01*
X92126Y208518D01*
X91882Y207930D01*
Y207294D01*
X92126Y206705D01*
X92576Y206255D01*
X93164Y206012D01*
X93800D01*
X94389Y206255D01*
X94839Y206705D01*
X95082Y207294D01*
Y207930D01*
X94839Y208518D01*
X94389Y208968D01*
X93800Y209212D01*
D02*
G37*
G36*
X15082Y204300D02*
X14446D01*
X13858Y204056D01*
X13407Y203606D01*
X13164Y203018D01*
Y202382D01*
X13407Y201794D01*
X13858Y201344D01*
X14446Y201100D01*
X15082D01*
X15670Y201344D01*
X16120Y201794D01*
X16364Y202382D01*
Y203018D01*
X16120Y203606D01*
X15670Y204056D01*
X15082Y204300D01*
D02*
G37*
G36*
X61895Y202962D02*
X61258D01*
X60670Y202719D01*
X60220Y202269D01*
X59977Y201681D01*
Y201044D01*
X60220Y200456D01*
X60670Y200006D01*
X61258Y199762D01*
X61895D01*
X62483Y200006D01*
X62933Y200456D01*
X63177Y201044D01*
Y201681D01*
X62933Y202269D01*
X62483Y202719D01*
X61895Y202962D01*
D02*
G37*
G36*
X7208Y201403D02*
X6572D01*
X5983Y201160D01*
X5533Y200710D01*
X5290Y200121D01*
Y199485D01*
X5533Y198897D01*
X5983Y198447D01*
X6572Y198203D01*
X7208D01*
X7796Y198447D01*
X8246Y198897D01*
X8490Y199485D01*
Y200121D01*
X8246Y200710D01*
X7796Y201160D01*
X7208Y201403D01*
D02*
G37*
G36*
X82011Y197051D02*
X81375D01*
X80787Y196808D01*
X80336Y196358D01*
X80093Y195769D01*
Y195133D01*
X80336Y194545D01*
X80787Y194095D01*
X81375Y193851D01*
X82011D01*
X82599Y194095D01*
X83049Y194545D01*
X83293Y195133D01*
Y195769D01*
X83049Y196358D01*
X82599Y196808D01*
X82011Y197051D01*
D02*
G37*
G36*
X228343Y192515D02*
X224500D01*
Y188672D01*
X228343D01*
Y192515D01*
D02*
G37*
G36*
X223500D02*
X219657D01*
Y188672D01*
X223500D01*
Y192515D01*
D02*
G37*
G36*
X71184Y190669D02*
X70548D01*
X69960Y190426D01*
X69510Y189975D01*
X69266Y189387D01*
Y188751D01*
X69510Y188163D01*
X69960Y187713D01*
X70548Y187469D01*
X71184D01*
X71772Y187713D01*
X72223Y188163D01*
X72466Y188751D01*
Y189387D01*
X72223Y189975D01*
X71772Y190426D01*
X71184Y190669D01*
D02*
G37*
G36*
X66263D02*
X65627D01*
X65039Y190426D01*
X64588Y189975D01*
X64345Y189387D01*
Y188751D01*
X64588Y188163D01*
X65039Y187713D01*
X65627Y187469D01*
X66263D01*
X66851Y187713D01*
X67301Y188163D01*
X67545Y188751D01*
Y189387D01*
X67301Y189975D01*
X66851Y190426D01*
X66263Y190669D01*
D02*
G37*
G36*
X228343Y187672D02*
X224500D01*
Y183829D01*
X228343D01*
Y187672D01*
D02*
G37*
G36*
X223500D02*
X219657D01*
Y183829D01*
X223500D01*
Y187672D01*
D02*
G37*
G36*
X89864Y185906D02*
X89227D01*
X88639Y185663D01*
X88189Y185213D01*
X87945Y184625D01*
Y183988D01*
X88189Y183400D01*
X88639Y182950D01*
X89227Y182706D01*
X89864D01*
X90452Y182950D01*
X90902Y183400D01*
X91145Y183988D01*
Y184625D01*
X90902Y185213D01*
X90452Y185663D01*
X89864Y185906D01*
D02*
G37*
G36*
X53387Y185870D02*
X52750D01*
X52162Y185626D01*
X51712Y185176D01*
X51469Y184588D01*
Y183952D01*
X51712Y183364D01*
X52162Y182914D01*
X52750Y182670D01*
X53387D01*
X53975Y182914D01*
X54425Y183364D01*
X54669Y183952D01*
Y184588D01*
X54425Y185176D01*
X53975Y185626D01*
X53387Y185870D01*
D02*
G37*
G36*
X202534Y184310D02*
X201898D01*
X201309Y184066D01*
X200859Y183616D01*
X200616Y183028D01*
Y182392D01*
X200859Y181804D01*
X201309Y181353D01*
X201898Y181110D01*
X202534D01*
X203122Y181353D01*
X203572Y181804D01*
X203816Y182392D01*
Y183028D01*
X203572Y183616D01*
X203122Y184066D01*
X202534Y184310D01*
D02*
G37*
G36*
X28683Y181595D02*
X28047D01*
X27459Y181351D01*
X27009Y180901D01*
X26765Y180313D01*
Y179676D01*
X27009Y179088D01*
X27459Y178638D01*
X28047Y178394D01*
X28683D01*
X29272Y178638D01*
X29722Y179088D01*
X29965Y179676D01*
Y180313D01*
X29722Y180901D01*
X29272Y181351D01*
X28683Y181595D01*
D02*
G37*
G36*
X198842Y181457D02*
X198205D01*
X197617Y181213D01*
X197167Y180763D01*
X196924Y180175D01*
Y179538D01*
X197167Y178950D01*
X197617Y178500D01*
X198205Y178257D01*
X198842D01*
X199430Y178500D01*
X199880Y178950D01*
X200124Y179538D01*
Y180175D01*
X199880Y180763D01*
X199430Y181213D01*
X198842Y181457D01*
D02*
G37*
G36*
X32072Y179685D02*
X31435D01*
X30847Y179441D01*
X30397Y178991D01*
X30154Y178403D01*
Y177767D01*
X30397Y177179D01*
X30847Y176729D01*
X31435Y176485D01*
X32072D01*
X32660Y176729D01*
X33110Y177179D01*
X33354Y177767D01*
Y178403D01*
X33110Y178991D01*
X32660Y179441D01*
X32072Y179685D01*
D02*
G37*
G36*
X52484Y179635D02*
X51847D01*
X51259Y179391D01*
X50809Y178941D01*
X50565Y178353D01*
Y177717D01*
X50809Y177128D01*
X51259Y176678D01*
X51847Y176435D01*
X52484D01*
X53072Y176678D01*
X53522Y177128D01*
X53765Y177717D01*
Y178353D01*
X53522Y178941D01*
X53072Y179391D01*
X52484Y179635D01*
D02*
G37*
G36*
X177681Y177600D02*
X177044D01*
X176456Y177356D01*
X176006Y176906D01*
X175762Y176318D01*
Y175682D01*
X176006Y175094D01*
X176456Y174644D01*
X177044Y174400D01*
X177681D01*
X178269Y174644D01*
X178719Y175094D01*
X178962Y175682D01*
Y176318D01*
X178719Y176906D01*
X178269Y177356D01*
X177681Y177600D01*
D02*
G37*
G36*
X224546Y182315D02*
X223454D01*
X222401Y182033D01*
X221456Y181487D01*
X220685Y180716D01*
X220139Y179771D01*
X219857Y178717D01*
Y177627D01*
X220139Y176573D01*
X220685Y175628D01*
X221456Y174856D01*
X222401Y174311D01*
X223454Y174029D01*
X224546D01*
X225599Y174311D01*
X226544Y174856D01*
X227315Y175628D01*
X227861Y176573D01*
X228143Y177627D01*
Y178717D01*
X227861Y179771D01*
X227315Y180716D01*
X226544Y181487D01*
X225599Y182033D01*
X224546Y182315D01*
D02*
G37*
G36*
X90848Y175122D02*
X90211D01*
X89623Y174878D01*
X89173Y174428D01*
X88929Y173840D01*
Y173203D01*
X89173Y172615D01*
X89623Y172165D01*
X90211Y171922D01*
X90848D01*
X91436Y172165D01*
X91886Y172615D01*
X92129Y173203D01*
Y173840D01*
X91886Y174428D01*
X91436Y174878D01*
X90848Y175122D01*
D02*
G37*
G36*
X71184Y174272D02*
X70548D01*
X69960Y174028D01*
X69510Y173578D01*
X69266Y172990D01*
Y172353D01*
X69510Y171765D01*
X69960Y171315D01*
X70548Y171072D01*
X71184D01*
X71772Y171315D01*
X72223Y171765D01*
X72466Y172353D01*
Y172990D01*
X72223Y173578D01*
X71772Y174028D01*
X71184Y174272D01*
D02*
G37*
G36*
X106349Y173647D02*
X105712D01*
X105124Y173404D01*
X104674Y172954D01*
X104431Y172365D01*
Y171729D01*
X104674Y171141D01*
X105124Y170691D01*
X105712Y170447D01*
X106349D01*
X106937Y170691D01*
X107387Y171141D01*
X107631Y171729D01*
Y172365D01*
X107387Y172954D01*
X106937Y173404D01*
X106349Y173647D01*
D02*
G37*
G36*
X127489Y173412D02*
X126852D01*
X126264Y173169D01*
X125814Y172719D01*
X125570Y172131D01*
Y171494D01*
X125814Y170906D01*
X126264Y170456D01*
X126852Y170212D01*
X127489D01*
X128077Y170456D01*
X128314Y170693D01*
X128897Y170593D01*
X128996Y170353D01*
X129446Y169903D01*
X130034Y169660D01*
X130671D01*
X131259Y169903D01*
X131709Y170353D01*
X131952Y170942D01*
Y171578D01*
X131709Y172166D01*
X131259Y172616D01*
X130671Y172860D01*
X130034D01*
X129446Y172616D01*
X129209Y172379D01*
X128626Y172479D01*
X128527Y172719D01*
X128077Y173169D01*
X127489Y173412D01*
D02*
G37*
G36*
X151370Y175124D02*
X150734D01*
X150146Y174880D01*
X149696Y174430D01*
X149452Y173842D01*
Y173205D01*
X149696Y172617D01*
X150146Y172167D01*
X150500Y172020D01*
Y171479D01*
X150146Y171332D01*
X149696Y170882D01*
X149452Y170294D01*
Y169658D01*
X149696Y169069D01*
X150146Y168619D01*
X150734Y168376D01*
X151370D01*
X151958Y168619D01*
X152408Y169069D01*
X152652Y169658D01*
Y170294D01*
X152408Y170882D01*
X151958Y171332D01*
X151603Y171479D01*
Y172020D01*
X151958Y172167D01*
X152408Y172617D01*
X152652Y173205D01*
Y173842D01*
X152408Y174430D01*
X151958Y174880D01*
X151370Y175124D01*
D02*
G37*
G36*
X198153Y170891D02*
X197516D01*
X196928Y170648D01*
X196478Y170198D01*
X196235Y169610D01*
Y168973D01*
X196478Y168385D01*
X196928Y167935D01*
X197516Y167691D01*
X198153D01*
X198741Y167935D01*
X199191Y168385D01*
X199435Y168973D01*
Y169610D01*
X199191Y170198D01*
X198741Y170648D01*
X198153Y170891D01*
D02*
G37*
G36*
X192247D02*
X191611D01*
X191023Y170648D01*
X190573Y170198D01*
X190329Y169610D01*
Y168973D01*
X190573Y168385D01*
X191023Y167935D01*
X191611Y167691D01*
X192247D01*
X192693Y167370D01*
X192698Y167301D01*
X192252Y166958D01*
X192228Y166954D01*
X191611D01*
X191023Y166711D01*
X190573Y166261D01*
X190329Y165673D01*
Y165036D01*
X190573Y164448D01*
X191023Y163998D01*
X191611Y163754D01*
X192247D01*
X192835Y163998D01*
X193286Y164448D01*
X193529Y165036D01*
Y165565D01*
X193794Y165826D01*
X193965Y165926D01*
X194211Y165824D01*
X194848D01*
X195436Y166068D01*
X195886Y166518D01*
X196130Y167106D01*
Y167742D01*
X195886Y168330D01*
X195436Y168780D01*
X194848Y169024D01*
X194211D01*
X194017Y168944D01*
X193529Y169283D01*
Y169610D01*
X193286Y170198D01*
X192835Y170648D01*
X192247Y170891D01*
D02*
G37*
G36*
X130239Y168923D02*
X129603D01*
X129015Y168679D01*
X128565Y168229D01*
X128321Y167641D01*
Y167005D01*
X128565Y166417D01*
X129015Y165966D01*
X129603Y165723D01*
X130239D01*
X130828Y165966D01*
X131278Y166417D01*
X131521Y167005D01*
Y167641D01*
X131278Y168229D01*
X130828Y168679D01*
X130239Y168923D01*
D02*
G37*
G36*
X207318Y168641D02*
X206682D01*
X206094Y168397D01*
X205644Y167947D01*
X205400Y167359D01*
Y166722D01*
X205644Y166134D01*
X206094Y165684D01*
X206682Y165441D01*
X207318D01*
X207906Y165684D01*
X208356Y166134D01*
X208600Y166722D01*
Y167359D01*
X208356Y167947D01*
X207906Y168397D01*
X207318Y168641D01*
D02*
G37*
G36*
X60675Y168135D02*
X60038D01*
X59450Y167892D01*
X59000Y167442D01*
X58756Y166854D01*
Y166217D01*
X59000Y165629D01*
X59450Y165179D01*
X60038Y164935D01*
X60675D01*
X61263Y165179D01*
X61713Y165629D01*
X61956Y166217D01*
Y166854D01*
X61713Y167442D01*
X61263Y167892D01*
X60675Y168135D01*
D02*
G37*
G36*
X64476Y167742D02*
X63840D01*
X63252Y167498D01*
X62801Y167048D01*
X62558Y166460D01*
Y165823D01*
X62801Y165235D01*
X63252Y164785D01*
X63840Y164542D01*
X64476D01*
X65064Y164785D01*
X65514Y165235D01*
X65758Y165823D01*
Y166460D01*
X65514Y167048D01*
X65064Y167498D01*
X64476Y167742D01*
D02*
G37*
G36*
X224546Y172315D02*
X223454D01*
X222401Y172033D01*
X221456Y171487D01*
X220685Y170716D01*
X220139Y169771D01*
X219857Y168717D01*
Y167627D01*
X220139Y166573D01*
X220685Y165628D01*
X221456Y164857D01*
X222401Y164311D01*
X223454Y164029D01*
X224546D01*
X225599Y164311D01*
X226544Y164857D01*
X227315Y165628D01*
X227861Y166573D01*
X228143Y167627D01*
Y168717D01*
X227861Y169771D01*
X227315Y170716D01*
X226544Y171487D01*
X225599Y172033D01*
X224546Y172315D01*
D02*
G37*
G36*
X198153Y166954D02*
X197516D01*
X196928Y166711D01*
X196478Y166261D01*
X196235Y165673D01*
Y165036D01*
X196478Y164448D01*
X196928Y163998D01*
X197516Y163754D01*
X198153D01*
X198741Y163998D01*
X199191Y164448D01*
X199435Y165036D01*
Y165673D01*
X199191Y166261D01*
X198741Y166711D01*
X198153Y166954D01*
D02*
G37*
G36*
X26893Y162624D02*
X26256D01*
X25668Y162380D01*
X25218Y161930D01*
X24975Y161342D01*
Y160705D01*
X25218Y160117D01*
X25668Y159667D01*
X26256Y159424D01*
X26893D01*
X27481Y159667D01*
X27931Y160117D01*
X28175Y160705D01*
Y161342D01*
X27931Y161930D01*
X27481Y162380D01*
X26893Y162624D01*
D02*
G37*
G36*
X64476Y160261D02*
X63840D01*
X63252Y160018D01*
X62801Y159568D01*
X62558Y158980D01*
Y158343D01*
X62801Y157755D01*
X63252Y157305D01*
X63840Y157061D01*
X64476D01*
X65064Y157305D01*
X65514Y157755D01*
X65758Y158343D01*
Y158980D01*
X65514Y159568D01*
X65064Y160018D01*
X64476Y160261D01*
D02*
G37*
G36*
X34780Y158096D02*
X34143D01*
X33555Y157852D01*
X33105Y157402D01*
X32861Y156814D01*
Y156178D01*
X33105Y155590D01*
X33555Y155140D01*
X34143Y154896D01*
X34780D01*
X35368Y155140D01*
X35818Y155590D01*
X36061Y156178D01*
Y156814D01*
X35818Y157402D01*
X35368Y157852D01*
X34780Y158096D01*
D02*
G37*
G36*
X224546Y162315D02*
X223454D01*
X222401Y162033D01*
X221456Y161487D01*
X220685Y160716D01*
X220139Y159771D01*
X219857Y158717D01*
Y157626D01*
X220139Y156573D01*
X220685Y155628D01*
X221456Y154857D01*
X222401Y154311D01*
X223454Y154029D01*
X224546D01*
X225599Y154311D01*
X226544Y154857D01*
X227315Y155628D01*
X227861Y156573D01*
X228143Y157626D01*
Y158717D01*
X227861Y159771D01*
X227315Y160716D01*
X226544Y161487D01*
X225599Y162033D01*
X224546Y162315D01*
D02*
G37*
G36*
X14064Y157112D02*
X13427D01*
X12839Y156868D01*
X12389Y156418D01*
X12146Y155830D01*
Y155194D01*
X12389Y154605D01*
X12839Y154155D01*
X13427Y153912D01*
X14064D01*
X14652Y154155D01*
X15102Y154605D01*
X15346Y155194D01*
Y155830D01*
X15102Y156418D01*
X14652Y156868D01*
X14064Y157112D01*
D02*
G37*
G36*
X7208Y156128D02*
X6572D01*
X5983Y155884D01*
X5533Y155434D01*
X5290Y154846D01*
Y154209D01*
X5533Y153621D01*
X5983Y153171D01*
X6572Y152928D01*
X7208D01*
X7796Y153171D01*
X8246Y153621D01*
X8490Y154209D01*
Y154846D01*
X8246Y155434D01*
X7796Y155884D01*
X7208Y156128D01*
D02*
G37*
G36*
X61259Y152470D02*
X60623D01*
X60035Y152226D01*
X59585Y151776D01*
X59341Y151188D01*
Y150552D01*
X59585Y149964D01*
X60035Y149513D01*
X60623Y149270D01*
X61259D01*
X61848Y149513D01*
X62298Y149964D01*
X62541Y150552D01*
Y151188D01*
X62298Y151776D01*
X61848Y152226D01*
X61259Y152470D01*
D02*
G37*
G36*
X104849Y152387D02*
X104213D01*
X103625Y152144D01*
X103175Y151694D01*
X102931Y151106D01*
Y150469D01*
X103175Y149881D01*
X103625Y149431D01*
X104213Y149187D01*
X104849D01*
X105437Y149431D01*
X105887Y149881D01*
X106131Y150469D01*
Y151106D01*
X105887Y151694D01*
X105437Y152144D01*
X104849Y152387D01*
D02*
G37*
G36*
X213153Y151765D02*
X212517D01*
X211929Y151521D01*
X211479Y151071D01*
X211235Y150483D01*
Y149847D01*
X211479Y149259D01*
X211929Y148809D01*
X212517Y148565D01*
X213153D01*
X213741Y148809D01*
X214191Y149259D01*
X214435Y149847D01*
Y150483D01*
X214191Y151071D01*
X213741Y151521D01*
X213153Y151765D01*
D02*
G37*
G36*
X64476Y150222D02*
X63840D01*
X63252Y149978D01*
X62801Y149528D01*
X62558Y148940D01*
Y148304D01*
X62801Y147716D01*
X63252Y147266D01*
X63840Y147022D01*
X64476D01*
X65064Y147266D01*
X65514Y147716D01*
X65758Y148304D01*
Y148940D01*
X65514Y149528D01*
X65064Y149978D01*
X64476Y150222D01*
D02*
G37*
G36*
Y142742D02*
X63840D01*
X63252Y142498D01*
X62801Y142048D01*
X62558Y141460D01*
Y140823D01*
X62801Y140235D01*
X63252Y139785D01*
X63840Y139542D01*
X64476D01*
X65064Y139785D01*
X65514Y140235D01*
X65758Y140823D01*
Y141460D01*
X65514Y142048D01*
X65064Y142498D01*
X64476Y142742D01*
D02*
G37*
G36*
X227569Y140954D02*
X219282D01*
Y132668D01*
X227569D01*
Y134986D01*
X228068Y135320D01*
X228332Y135211D01*
X228968D01*
X229556Y135455D01*
X230006Y135905D01*
X230250Y136493D01*
Y137129D01*
X230006Y137717D01*
X229556Y138167D01*
X228968Y138411D01*
X228332D01*
X228068Y138302D01*
X227569Y138636D01*
Y140954D01*
D02*
G37*
G36*
X84352Y134600D02*
X83715D01*
X83127Y134356D01*
X82677Y133906D01*
X82433Y133318D01*
Y132682D01*
X82677Y132094D01*
X83127Y131644D01*
X83715Y131400D01*
X84352D01*
X84940Y131644D01*
X85390Y132094D01*
X85633Y132682D01*
Y133318D01*
X85390Y133906D01*
X84940Y134356D01*
X84352Y134600D01*
D02*
G37*
G36*
X79627Y131431D02*
X78991D01*
X78403Y131187D01*
X77953Y130737D01*
X77709Y130149D01*
Y129512D01*
X77953Y128924D01*
X78403Y128474D01*
X78991Y128231D01*
X79627D01*
X80215Y128474D01*
X80665Y128924D01*
X80909Y129512D01*
Y130149D01*
X80665Y130737D01*
X80215Y131187D01*
X79627Y131431D01*
D02*
G37*
G36*
X223971Y130954D02*
X222880D01*
X221826Y130672D01*
X220881Y130127D01*
X220110Y129355D01*
X219564Y128410D01*
X219282Y127357D01*
Y126266D01*
X219564Y125212D01*
X220110Y124267D01*
X220881Y123496D01*
X221826Y122950D01*
X222880Y122668D01*
X223971D01*
X225024Y122950D01*
X225969Y123496D01*
X226741Y124267D01*
X227286Y125212D01*
X227569Y126266D01*
Y127357D01*
X227286Y128410D01*
X226741Y129355D01*
X225969Y130127D01*
X225024Y130672D01*
X223971Y130954D01*
D02*
G37*
G36*
X98525Y123041D02*
X97888D01*
X97300Y122797D01*
X96850Y122347D01*
X96607Y121759D01*
Y121123D01*
X96850Y120535D01*
X97300Y120085D01*
X97888Y119841D01*
X98525D01*
X99113Y120085D01*
X99563Y120535D01*
X99807Y121123D01*
Y121759D01*
X99563Y122347D01*
X99113Y122797D01*
X98525Y123041D01*
D02*
G37*
G36*
X91832Y121543D02*
X91195D01*
X90607Y121300D01*
X90157Y120850D01*
X89914Y120262D01*
Y119625D01*
X90157Y119037D01*
X90607Y118587D01*
X91195Y118343D01*
X91832D01*
X92420Y118587D01*
X92870Y119037D01*
X93114Y119625D01*
Y120262D01*
X92870Y120850D01*
X92420Y121300D01*
X91832Y121543D01*
D02*
G37*
G36*
X87343D02*
X86706D01*
X86118Y121300D01*
X85668Y120850D01*
X85424Y120262D01*
Y119625D01*
X85668Y119037D01*
X86118Y118587D01*
X86706Y118343D01*
X87343D01*
X87931Y118587D01*
X88381Y119037D01*
X88624Y119625D01*
Y120262D01*
X88381Y120850D01*
X87931Y121300D01*
X87343Y121543D01*
D02*
G37*
G36*
X31724Y120694D02*
X31087D01*
X30499Y120451D01*
X30049Y120001D01*
X29805Y119413D01*
Y118776D01*
X30049Y118188D01*
X30499Y117738D01*
X31087Y117494D01*
X31724D01*
X32312Y117738D01*
X32762Y118188D01*
X33005Y118776D01*
Y119413D01*
X32762Y120001D01*
X32312Y120451D01*
X31724Y120694D01*
D02*
G37*
G36*
X223971Y120954D02*
X222880D01*
X221826Y120672D01*
X220881Y120126D01*
X220110Y119355D01*
X219564Y118410D01*
X219282Y117357D01*
Y116265D01*
X219564Y115212D01*
X220110Y114267D01*
X220881Y113496D01*
X221826Y112950D01*
X222880Y112668D01*
X223971D01*
X225024Y112950D01*
X225969Y113496D01*
X226741Y114267D01*
X227286Y115212D01*
X227569Y116265D01*
Y117357D01*
X227286Y118410D01*
X226741Y119355D01*
X225969Y120126D01*
X225024Y120672D01*
X223971Y120954D01*
D02*
G37*
G36*
X106683Y114600D02*
X106046D01*
X105458Y114356D01*
X105008Y113906D01*
X104764Y113318D01*
Y112682D01*
X105008Y112094D01*
X105458Y111644D01*
X106046Y111400D01*
X106683D01*
X107271Y111644D01*
X107721Y112094D01*
X107964Y112682D01*
Y113318D01*
X107721Y113906D01*
X107271Y114356D01*
X106683Y114600D01*
D02*
G37*
G36*
X222925Y103374D02*
X222352Y103220D01*
X221718Y102855D01*
X221201Y102337D01*
X221098Y102160D01*
X220521Y102160D01*
X220490Y102214D01*
X220009Y102694D01*
X219421Y103034D01*
X218765Y103210D01*
X218086D01*
X217429Y103034D01*
X216841Y102694D01*
X216361Y102214D01*
X216021Y101626D01*
X215845Y100970D01*
Y100290D01*
X216021Y99634D01*
X216361Y99046D01*
X216841Y98565D01*
X217095Y98419D01*
Y97841D01*
X216841Y97694D01*
X216361Y97214D01*
X216021Y96626D01*
X215845Y95970D01*
Y95290D01*
X216021Y94634D01*
X216361Y94046D01*
X216841Y93565D01*
X217095Y93419D01*
Y92841D01*
X216841Y92694D01*
X216361Y92214D01*
X216021Y91626D01*
X215845Y90970D01*
Y90290D01*
X216021Y89634D01*
X216361Y89046D01*
X216841Y88565D01*
X217095Y88419D01*
Y87841D01*
X216841Y87694D01*
X216361Y87214D01*
X216021Y86626D01*
X215845Y85970D01*
Y85290D01*
X216021Y84634D01*
X216361Y84046D01*
X216841Y83565D01*
X217095Y83419D01*
Y82841D01*
X216841Y82694D01*
X216361Y82214D01*
X216021Y81626D01*
X215845Y80970D01*
Y80290D01*
X216021Y79634D01*
X216361Y79046D01*
X216841Y78565D01*
X217429Y78226D01*
X218086Y78050D01*
X218765D01*
X219421Y78226D01*
X220009Y78565D01*
X220490Y79046D01*
X220637Y79300D01*
X221214D01*
X221361Y79046D01*
X221841Y78565D01*
X222429Y78226D01*
X223085Y78050D01*
X223765D01*
X224421Y78226D01*
X225009Y78565D01*
X225490Y79046D01*
X225829Y79634D01*
X226005Y80290D01*
Y80970D01*
X225829Y81626D01*
X225490Y82214D01*
X225009Y82694D01*
X224755Y82841D01*
Y83419D01*
X225009Y83565D01*
X225490Y84046D01*
X225829Y84634D01*
X226005Y85290D01*
Y85970D01*
X225829Y86626D01*
X225490Y87214D01*
X225009Y87694D01*
X224955Y87726D01*
X224955Y88303D01*
X225132Y88405D01*
X225650Y88923D01*
X226016Y89557D01*
X226205Y90264D01*
Y90764D01*
X226205Y90996D01*
X226683Y91085D01*
X226772Y90870D01*
X226878Y90614D01*
X227328Y90164D01*
X227917Y89920D01*
X228553D01*
X229141Y90164D01*
X229591Y90614D01*
X229835Y91202D01*
Y91838D01*
X229591Y92426D01*
X229141Y92876D01*
X228553Y93120D01*
X227917D01*
X227328Y92876D01*
X226878Y92426D01*
X226635Y91838D01*
X226635Y91325D01*
X226135Y91259D01*
X226016Y91703D01*
X225650Y92337D01*
X225149Y92838D01*
X225088Y92909D01*
Y93350D01*
X225149Y93422D01*
X225650Y93923D01*
X226016Y94557D01*
X226169Y95130D01*
X223425D01*
Y96130D01*
X226169D01*
X226016Y96703D01*
X225650Y97337D01*
X225149Y97838D01*
X225088Y97909D01*
Y98350D01*
X225149Y98422D01*
X225650Y98923D01*
X226016Y99557D01*
X226169Y100130D01*
X223425D01*
Y100630D01*
X222925D01*
Y103374D01*
D02*
G37*
G36*
X223925D02*
Y101130D01*
X226169D01*
X226016Y101703D01*
X225650Y102337D01*
X225132Y102855D01*
X224498Y103220D01*
X223925Y103374D01*
D02*
G37*
G36*
X210948Y102230D02*
X210312D01*
X209724Y101986D01*
X209274Y101536D01*
X209030Y100948D01*
Y100312D01*
X209274Y99724D01*
X209724Y99274D01*
X210312Y99030D01*
X210948D01*
X211536Y99274D01*
X211986Y99724D01*
X212230Y100312D01*
Y100948D01*
X211986Y101536D01*
X211536Y101986D01*
X210948Y102230D01*
D02*
G37*
G36*
X162886Y98453D02*
X162313Y98299D01*
X161679Y97933D01*
X161161Y97416D01*
X161059Y97238D01*
X160482Y97238D01*
X160450Y97293D01*
X159970Y97773D01*
X159382Y98113D01*
X158726Y98289D01*
X158046D01*
X157390Y98113D01*
X156802Y97773D01*
X156321Y97293D01*
X155982Y96705D01*
X155806Y96048D01*
Y95369D01*
X155982Y94713D01*
X156321Y94125D01*
X156802Y93644D01*
X157056Y93497D01*
Y92920D01*
X156802Y92773D01*
X156321Y92293D01*
X155982Y91704D01*
X155806Y91048D01*
Y90369D01*
X155982Y89713D01*
X156321Y89125D01*
X156802Y88644D01*
X157056Y88497D01*
Y87920D01*
X156802Y87773D01*
X156321Y87293D01*
X155982Y86704D01*
X155806Y86048D01*
Y85369D01*
X155982Y84713D01*
X156321Y84124D01*
X156802Y83644D01*
X157056Y83497D01*
Y82920D01*
X156802Y82773D01*
X156321Y82293D01*
X155982Y81704D01*
X155806Y81048D01*
Y80369D01*
X155982Y79713D01*
X156321Y79124D01*
X156802Y78644D01*
X157056Y78497D01*
Y77920D01*
X156802Y77773D01*
X156321Y77293D01*
X155982Y76705D01*
X155806Y76048D01*
Y75369D01*
X155982Y74713D01*
X156321Y74124D01*
X156802Y73644D01*
X157390Y73304D01*
X158046Y73129D01*
X158726D01*
X159382Y73304D01*
X159970Y73644D01*
X160306Y73980D01*
X160806Y73776D01*
Y73129D01*
X165966D01*
Y78289D01*
X165604D01*
X165397Y78789D01*
X165610Y79002D01*
X165976Y79636D01*
X166130Y80209D01*
X163386D01*
Y81209D01*
X166130D01*
X165976Y81782D01*
X165610Y82416D01*
X165110Y82916D01*
X165049Y82988D01*
Y83429D01*
X165110Y83501D01*
X165610Y84002D01*
X165976Y84636D01*
X166130Y85209D01*
X163386D01*
Y86209D01*
X166130D01*
X165976Y86782D01*
X165610Y87416D01*
X165093Y87933D01*
X164916Y88036D01*
X164916Y88613D01*
X164970Y88644D01*
X165450Y89125D01*
X165790Y89713D01*
X165966Y90369D01*
Y91048D01*
X165790Y91704D01*
X165450Y92293D01*
X164970Y92773D01*
X164916Y92804D01*
X164916Y93382D01*
X165093Y93484D01*
X165610Y94002D01*
X165976Y94636D01*
X166130Y95209D01*
X163386D01*
Y95709D01*
X162886D01*
Y98453D01*
D02*
G37*
G36*
X163886Y98453D02*
Y96209D01*
X166130D01*
X165976Y96782D01*
X165610Y97416D01*
X165093Y97933D01*
X164459Y98299D01*
X163886Y98453D01*
D02*
G37*
G36*
X210948Y97309D02*
X210312D01*
X209724Y97065D01*
X209274Y96615D01*
X209030Y96027D01*
Y95390D01*
X209274Y94802D01*
X209724Y94352D01*
X210312Y94109D01*
X210948D01*
X211536Y94352D01*
X211986Y94802D01*
X212230Y95390D01*
Y96027D01*
X211986Y96615D01*
X211536Y97065D01*
X210948Y97309D01*
D02*
G37*
G36*
X133077Y95285D02*
X132440D01*
X131852Y95042D01*
X131402Y94591D01*
X131159Y94003D01*
Y93367D01*
X131402Y92779D01*
X131852Y92329D01*
X132440Y92085D01*
X133077D01*
X133665Y92329D01*
X134115Y92779D01*
X134359Y93367D01*
Y94003D01*
X134115Y94591D01*
X133665Y95042D01*
X133077Y95285D01*
D02*
G37*
G36*
X210988Y92309D02*
X210351D01*
X209763Y92065D01*
X209313Y91615D01*
X209069Y91027D01*
Y90390D01*
X209313Y89802D01*
X209763Y89352D01*
X210351Y89109D01*
X210988D01*
X211576Y89352D01*
X212026Y89802D01*
X212269Y90390D01*
Y91027D01*
X212026Y91615D01*
X211576Y92065D01*
X210988Y92309D01*
D02*
G37*
G36*
X122365Y80780D02*
X121729D01*
X121141Y80537D01*
X120691Y80086D01*
X120447Y79498D01*
Y78862D01*
X120691Y78274D01*
X121141Y77824D01*
X121729Y77580D01*
X122365D01*
X122954Y77824D01*
X123404Y78274D01*
X123647Y78862D01*
Y79498D01*
X123404Y80086D01*
X122954Y80537D01*
X122365Y80780D01*
D02*
G37*
G36*
X152877Y80340D02*
X152241D01*
X151653Y80097D01*
X151203Y79646D01*
X150959Y79058D01*
Y78422D01*
X151203Y77834D01*
X151653Y77384D01*
X152241Y77140D01*
X152877D01*
X153465Y77384D01*
X153916Y77834D01*
X154159Y78422D01*
Y79058D01*
X153916Y79646D01*
X153465Y80097D01*
X152877Y80340D01*
D02*
G37*
G36*
X65279Y78372D02*
X64642D01*
X64054Y78128D01*
X63604Y77678D01*
X63361Y77090D01*
Y76453D01*
X63604Y75865D01*
X64054Y75415D01*
X64642Y75172D01*
X65279D01*
X65867Y75415D01*
X66317Y75865D01*
X66561Y76453D01*
Y77090D01*
X66317Y77678D01*
X65867Y78128D01*
X65279Y78372D01*
D02*
G37*
G36*
X169924Y77309D02*
X169288D01*
X168700Y77065D01*
X168249Y76615D01*
X168006Y76027D01*
Y75390D01*
X168249Y74802D01*
X168700Y74352D01*
X169288Y74109D01*
X169924D01*
X170512Y74352D01*
X170962Y74802D01*
X171206Y75390D01*
Y76027D01*
X170962Y76615D01*
X170512Y77065D01*
X169924Y77309D01*
D02*
G37*
G36*
X141499Y76010D02*
X140863D01*
X140275Y75766D01*
X139825Y75316D01*
X139581Y74728D01*
Y74091D01*
X139825Y73503D01*
X140275Y73053D01*
X140863Y72809D01*
X141499D01*
X142087Y73053D01*
X142538Y73503D01*
X142781Y74091D01*
Y74728D01*
X142538Y75316D01*
X142087Y75766D01*
X141499Y76010D01*
D02*
G37*
G36*
X31814Y67545D02*
X31178D01*
X30590Y67301D01*
X30140Y66851D01*
X29896Y66263D01*
Y65627D01*
X30140Y65039D01*
X30590Y64588D01*
X31178Y64345D01*
X31814D01*
X32402Y64588D01*
X32853Y65039D01*
X33096Y65627D01*
Y66263D01*
X32853Y66851D01*
X32402Y67301D01*
X31814Y67545D01*
D02*
G37*
G36*
X49531Y66561D02*
X48894D01*
X48306Y66317D01*
X47856Y65867D01*
X47613Y65279D01*
Y64642D01*
X47856Y64054D01*
X48306Y63604D01*
X48894Y63361D01*
X49531D01*
X50119Y63604D01*
X50569Y64054D01*
X50813Y64642D01*
Y65279D01*
X50569Y65867D01*
X50119Y66317D01*
X49531Y66561D01*
D02*
G37*
G36*
X59657Y65576D02*
X59021D01*
X58432Y65333D01*
X57982Y64883D01*
X57739Y64295D01*
Y63658D01*
X57982Y63070D01*
X58432Y62620D01*
X59021Y62376D01*
X59657D01*
X60245Y62620D01*
X60695Y63070D01*
X60939Y63658D01*
Y64295D01*
X60695Y64883D01*
X60245Y65333D01*
X59657Y65576D01*
D02*
G37*
G36*
X139985Y61639D02*
X139349D01*
X138760Y61396D01*
X138310Y60946D01*
X138067Y60358D01*
Y59721D01*
X138310Y59133D01*
X138760Y58683D01*
X139349Y58439D01*
X139985D01*
X140573Y58683D01*
X141023Y59133D01*
X141267Y59721D01*
Y60358D01*
X141023Y60946D01*
X140573Y61396D01*
X139985Y61639D01*
D02*
G37*
G36*
X128985D02*
X128349D01*
X127761Y61396D01*
X127310Y60946D01*
X127067Y60358D01*
Y59721D01*
X127310Y59133D01*
X127761Y58683D01*
X128349Y58439D01*
X128985D01*
X129573Y58683D01*
X130023Y59133D01*
X130267Y59721D01*
Y60358D01*
X130023Y60946D01*
X129573Y61396D01*
X128985Y61639D01*
D02*
G37*
G36*
X39688Y61071D02*
X39052D01*
X38464Y60827D01*
X38014Y60377D01*
X37770Y59789D01*
Y59152D01*
X38014Y58564D01*
X38464Y58114D01*
X39052Y57871D01*
X39688D01*
X40276Y58114D01*
X40727Y58564D01*
X40970Y59152D01*
Y59789D01*
X40727Y60377D01*
X40276Y60827D01*
X39688Y61071D01*
D02*
G37*
G36*
X122775Y57906D02*
X122138D01*
X121550Y57662D01*
X121100Y57212D01*
X120857Y56624D01*
Y55988D01*
X121100Y55400D01*
X121550Y54949D01*
X122138Y54706D01*
X122775D01*
X123363Y54949D01*
X123813Y55400D01*
X124057Y55988D01*
Y56624D01*
X123813Y57212D01*
X123363Y57662D01*
X122775Y57906D01*
D02*
G37*
G36*
X80043Y55583D02*
X79406D01*
X78818Y55339D01*
X78368Y54889D01*
X78124Y54301D01*
Y53665D01*
X78368Y53077D01*
X78818Y52627D01*
X79406Y52383D01*
X80043D01*
X80631Y52627D01*
X81081Y53077D01*
X81324Y53665D01*
Y54301D01*
X81081Y54889D01*
X80631Y55339D01*
X80043Y55583D01*
D02*
G37*
G36*
X28922Y50104D02*
X28286D01*
X27698Y49861D01*
X27248Y49411D01*
X27004Y48823D01*
Y48186D01*
X27248Y47598D01*
X27698Y47148D01*
X28286Y46904D01*
X28922D01*
X29510Y47148D01*
X29960Y47598D01*
X30204Y48186D01*
Y48823D01*
X29960Y49411D01*
X29510Y49861D01*
X28922Y50104D01*
D02*
G37*
G36*
X34767Y42939D02*
X34131D01*
X33542Y42695D01*
X33092Y42245D01*
X32849Y41657D01*
Y41020D01*
X33092Y40432D01*
X33542Y39982D01*
X34131Y39739D01*
X34767D01*
X35355Y39982D01*
X35805Y40432D01*
X36049Y41020D01*
Y41657D01*
X35805Y42245D01*
X35355Y42695D01*
X34767Y42939D01*
D02*
G37*
G36*
X90318Y36600D02*
X89682D01*
X89094Y36356D01*
X88644Y35906D01*
X88400Y35318D01*
Y34682D01*
X88644Y34094D01*
X89094Y33644D01*
X89682Y33400D01*
X90318D01*
X90906Y33644D01*
X91356Y34094D01*
X91600Y34682D01*
Y35318D01*
X91356Y35906D01*
X90906Y36356D01*
X90318Y36600D01*
D02*
G37*
G36*
X151950Y32600D02*
X151313D01*
X150725Y32356D01*
X150275Y31906D01*
X150031Y31318D01*
Y30682D01*
X150275Y30094D01*
X150725Y29644D01*
X151313Y29400D01*
X151950D01*
X152538Y29644D01*
X152988Y30094D01*
X153232Y30682D01*
Y31318D01*
X152988Y31906D01*
X152538Y32356D01*
X151950Y32600D01*
D02*
G37*
G36*
X117641Y32600D02*
X117005D01*
X116417Y32356D01*
X115966Y31906D01*
X115723Y31318D01*
Y30682D01*
X115966Y30094D01*
X116417Y29644D01*
X117005Y29400D01*
X117641D01*
X118229Y29644D01*
X118679Y30094D01*
X118923Y30682D01*
Y31318D01*
X118679Y31906D01*
X118229Y32356D01*
X117641Y32600D01*
D02*
G37*
G36*
X24377Y30143D02*
X23741D01*
X23153Y29900D01*
X22703Y29450D01*
X22459Y28862D01*
Y28225D01*
X22703Y27637D01*
X23153Y27187D01*
X23741Y26943D01*
X24377D01*
X24965Y27187D01*
X25416Y27637D01*
X25659Y28225D01*
Y28862D01*
X25416Y29450D01*
X24965Y29900D01*
X24377Y30143D01*
D02*
G37*
G36*
Y21285D02*
X23741D01*
X23153Y21042D01*
X22703Y20591D01*
X22459Y20003D01*
Y19367D01*
X22703Y18779D01*
X23153Y18329D01*
X23741Y18085D01*
X24377D01*
X24965Y18329D01*
X25416Y18779D01*
X25659Y19367D01*
Y20003D01*
X25416Y20591D01*
X24965Y21042D01*
X24377Y21285D01*
D02*
G37*
G36*
X153343Y16343D02*
X149500D01*
Y12500D01*
X153343D01*
Y16343D01*
D02*
G37*
G36*
X148500D02*
X144657D01*
Y12500D01*
X148500D01*
Y16343D01*
D02*
G37*
G36*
X139546Y16143D02*
X138454D01*
X137401Y15861D01*
X136456Y15315D01*
X135685Y14544D01*
X135139Y13599D01*
X134857Y12546D01*
Y11455D01*
X135139Y10401D01*
X135685Y9456D01*
X136456Y8685D01*
X137401Y8139D01*
X138454Y7857D01*
X139546D01*
X140599Y8139D01*
X141544Y8685D01*
X142315Y9456D01*
X142861Y10401D01*
X143143Y11455D01*
Y12546D01*
X142861Y13599D01*
X142315Y14544D01*
X141544Y15315D01*
X140599Y15861D01*
X139546Y16143D01*
D02*
G37*
G36*
X129545D02*
X128454D01*
X127401Y15861D01*
X126456Y15315D01*
X125684Y14544D01*
X125139Y13599D01*
X124857Y12546D01*
Y11455D01*
X125139Y10401D01*
X125684Y9456D01*
X126456Y8685D01*
X127401Y8139D01*
X128454Y7857D01*
X129545D01*
X130599Y8139D01*
X131544Y8685D01*
X132316Y9456D01*
X132861Y10401D01*
X133143Y11455D01*
Y12546D01*
X132861Y13599D01*
X132316Y14544D01*
X131544Y15315D01*
X130599Y15861D01*
X129545Y16143D01*
D02*
G37*
G36*
X119545D02*
X118455D01*
X117401Y15861D01*
X116456Y15315D01*
X115684Y14544D01*
X115139Y13599D01*
X114857Y12546D01*
Y11455D01*
X115139Y10401D01*
X115684Y9456D01*
X116456Y8685D01*
X117401Y8139D01*
X118455Y7857D01*
X119545D01*
X120599Y8139D01*
X121544Y8685D01*
X122316Y9456D01*
X122861Y10401D01*
X123143Y11455D01*
Y12546D01*
X122861Y13599D01*
X122316Y14544D01*
X121544Y15315D01*
X120599Y15861D01*
X119545Y16143D01*
D02*
G37*
G36*
X153343Y11500D02*
X149500D01*
Y7657D01*
X153343D01*
Y11500D01*
D02*
G37*
G36*
X148500D02*
X144657D01*
Y7657D01*
X148500D01*
Y11500D01*
D02*
G37*
%LPD*%
D130*
X224000Y188172D02*
D03*
D133*
X163386Y80709D02*
D03*
Y85709D02*
D03*
Y95709D02*
D03*
X223425Y95630D02*
D03*
Y100630D02*
D03*
D134*
X93075Y222947D02*
D03*
X149000Y12000D02*
D03*
D136*
X29000Y137500D02*
D03*
Y130000D02*
D03*
Y122500D02*
D03*
Y55000D02*
D03*
Y62500D02*
D03*
Y70000D02*
D03*
Y77500D02*
D03*
Y85000D02*
D03*
Y92500D02*
D03*
Y100000D02*
D03*
Y115000D02*
D03*
Y107500D02*
D03*
X33846Y76772D02*
D03*
X33755Y134843D02*
D03*
X26957Y144183D02*
D03*
X153550Y120177D02*
D03*
X129921Y164370D02*
D03*
X140748Y67323D02*
D03*
X106364Y35000D02*
D03*
X149000Y5000D02*
D03*
X127170Y125787D02*
D03*
X83220Y137969D02*
D03*
X122047Y160236D02*
D03*
X231000Y188000D02*
D03*
X106031Y164948D02*
D03*
X164077Y179857D02*
D03*
X147910Y53983D02*
D03*
X173799D02*
D03*
X190121Y131744D02*
D03*
X196922D02*
D03*
X10827Y28543D02*
D03*
X9843Y47244D02*
D03*
X74803Y129921D02*
D03*
X75787Y63976D02*
D03*
X107656Y76772D02*
D03*
X134941Y78740D02*
D03*
X214879Y198103D02*
D03*
Y208093D02*
D03*
X181400Y224623D02*
D03*
X140748Y189650D02*
D03*
X122047Y192983D02*
D03*
X95451Y163809D02*
D03*
X223425Y106299D02*
D03*
X41517Y182514D02*
D03*
Y178971D02*
D03*
Y175428D02*
D03*
X45454D02*
D03*
Y178971D02*
D03*
Y182514D02*
D03*
X92498Y194467D02*
D03*
X90530Y192498D02*
D03*
X90530Y196435D02*
D03*
X94467Y196435D02*
D03*
X94467Y192498D02*
D03*
X140748Y167323D02*
D03*
X142717Y170276D02*
D03*
X138779D02*
D03*
Y164370D02*
D03*
X142717D02*
D03*
X169291Y85630D02*
D03*
Y80709D02*
D03*
X103637Y179380D02*
D03*
X120648Y210268D02*
D03*
X143701Y228817D02*
D03*
X85827Y151772D02*
D03*
X93482Y184270D02*
D03*
X80709Y180684D02*
D03*
X122047Y65945D02*
D03*
X107600Y101727D02*
D03*
Y90215D02*
D03*
X96360D02*
D03*
Y101727D02*
D03*
X56840Y93947D02*
D03*
X48108D02*
D03*
X56840Y102538D02*
D03*
X48108D02*
D03*
X62992Y144882D02*
D03*
Y162402D02*
D03*
X89264Y203786D02*
D03*
X61024Y176313D02*
D03*
X85731Y233246D02*
D03*
X102931Y200274D02*
D03*
X65945Y195866D02*
D03*
X24606Y195079D02*
D03*
X13746Y170276D02*
D03*
X34449Y176313D02*
D03*
X20669Y210107D02*
D03*
X6890Y171260D02*
D03*
X199803Y227931D02*
D03*
X144685Y190530D02*
D03*
X31754Y214500D02*
D03*
X47305Y224079D02*
D03*
X40612D02*
D03*
X64961Y229000D02*
D03*
X22638D02*
D03*
X50963Y202700D02*
D03*
X56163Y213760D02*
D03*
M02*
