M48
;Layer_Color=9474304
;FILE_FORMAT=2:5
INCH,LZ
;TYPE=PLATED
T1F00S00C0.00800
T2F00S00C0.02560
T3F00S00C0.05000
T4F00S00C0.10630
%
T01
X009Y0035
X0106364
X0117323Y0031
X0122457Y0056306
X0128667Y0060039
X0139667
X0140748Y0067323
X0141181Y007441
X0134941Y007874
X0122047Y007918
Y0065945
X0107656Y0076772
X01076Y0090215
X009636
Y0101727
X01076
X0106364Y0113
X0098207Y0121441
X0091514Y0119943
X012717Y0125787
X015355Y0120177
X0152559Y007874
X0169291Y0080709
Y008563
X0169606Y0075709
X0173799Y0053983
X014791
X0151631Y0031
X0149Y0005
X0132759Y0093685
X021063Y0095709
Y010063
X0210669Y0090709
X0228235Y009152
X0223425Y0106299
X022865Y0136811
X0196922Y0131744
X0190121
X0084034Y0133
X008322Y0137969
X0079309Y0129831
X0074803Y0129921
X0064158Y0141142
X0033755Y0134843
X0029Y01375
Y013
Y01225
X0031405Y0119095
X0029Y0115
Y01075
Y01
Y00925
Y0085
Y00775
X0033846Y0076772
X0029Y007
X0031496Y0065945
X0029Y00625
Y0055
X0028604Y0048504
X0034449Y0041339
X003937Y005947
X0049213Y0064961
X0059339Y0063976
X0075787Y0063976
X0079724Y0053983
X0064961Y0076772
X005684Y0093947
Y0102538
X0048108
Y0093947
X0087024Y0119943
X0009843Y0047244
X0010827Y0028543
X0024059
Y0019685
X0026957Y0144183
X0026575Y0161024
X0034461Y0156496
X0034449Y0176313
X0031754Y0178085
X0028365Y0179994
X0041517Y0178971
Y0182514
X0045454
Y0178971
Y0175428
X0041517
X0052165Y0178035
X0053069Y018427
X0061024Y0176313
X0060356Y0166535
X0064158Y0166142
X0062992Y0162402
X0064158Y0158661
Y0148622
X0062992Y0144882
X0060941Y015087
X0085827Y0151772
X0080709Y0180684
X0081693Y0195451
X0065945Y0195866
Y0189069
X0070866
Y0172672
X0061577Y0201362
X0050963Y02027
X0056163Y021376
X0067234Y0219748
X0064961Y0229
X0047305Y0224079
X0040612
X0031754Y02145
X0020669Y0210107
X00105Y0210607
X0014764Y02027
X000689Y0199803
X0024606Y0195079
X0013746Y0170276
X000689Y017126
Y0154528
X0013746Y0155512
X0022638Y0229
X0085731Y0233246
X0089264Y0203786
X0093482Y0207612
X0094467Y0196435
X0092498Y0194467
X0094467Y0192498
X009053Y0192498
X009053Y0196435
X0089545Y0184306
X0093482Y018427
X009053Y0173522
X0095451Y0163809
X0106031Y0164948
Y0172047
X0103637Y017938
X0102931Y0200274
X0122047Y0192983
X0120648Y0210268
X0140748Y018965
X0144685Y019053
X0142717Y0170276
X0138779
X0140748Y0167323
X0138779Y016437
X0142717
X0129921
Y0167323
X0130352Y017126
X012717Y0171812
X0122047Y0160236
X0104531Y0150787
X0151052Y0169976
Y0173524
X0164077Y0179857
X0177362Y0176
X0191929Y0169291
Y0165354
X0194529Y0167424
X0197835Y0169291
Y0165354
X0207Y0167041
X0202216Y018271
X0198524Y0179857
X0214879Y0198103
Y0208093
X0199803Y0227931
X018573Y0224623
X01814
X0177069Y0224546
X0168407Y0224623
X0164077
X0143701Y0228817
X0231Y0188
X0212835Y0150165
T02
X0158386Y0075709
X0163386
Y0080709
X0158386
Y0085709
Y0090709
X0163386
Y0085709
Y0095709
X0158386
X0218425Y009563
Y009063
Y008563
X0223425
Y008063
X0218425
X0223425Y009063
Y009563
Y010063
X0218425
T03
X0119Y0012
X0129
X0139
X0149
X0223425Y0116811
Y0126811
Y0136811
X0224Y0158172
Y0168172
Y0178172
Y0188172
X0113075Y0222947
X0103075
X0093075
T04
X0226969Y0009252
X0009252
Y0226969
X0226969
M30
