G04*
G04 #@! TF.GenerationSoftware,Altium Limited,Altium Designer,23.1.1 (15)*
G04*
G04 Layer_Physical_Order=4*
G04 Layer_Color=16711680*
%FSLAX25Y25*%
%MOIN*%
G70*
G04*
G04 #@! TF.SameCoordinates,04E93CFA-C197-41A2-BC49-AEE8B521008C*
G04*
G04*
G04 #@! TF.FilePolarity,Positive*
G04*
G01*
G75*
%ADD15C,0.00800*%
%ADD126C,0.00900*%
%ADD127C,0.01500*%
%ADD130R,0.07087X0.07087*%
%ADD131C,0.07087*%
%ADD132R,0.03960X0.03960*%
%ADD133C,0.03960*%
%ADD134R,0.07087X0.07087*%
%ADD135C,0.14173*%
%ADD136C,0.02000*%
D15*
X112380Y70723D02*
X123063Y60039D01*
X128667D01*
X91514Y103473D02*
X134948Y60039D01*
X91514Y103473D02*
Y119943D01*
X134948Y60039D02*
X139667D01*
X34449Y71755D02*
X35846Y73152D01*
X35756Y80321D02*
Y144363D01*
X37246Y56221D02*
X39484Y53983D01*
X37156Y80900D02*
Y145094D01*
Y80900D02*
X37246Y80810D01*
X35846Y73152D02*
Y80230D01*
X37246Y56221D02*
Y80810D01*
X35756Y80321D02*
X35846Y80230D01*
X17717Y162402D02*
X35756Y144363D01*
X38615Y81420D02*
X39370Y80666D01*
X38615Y97173D02*
X39895Y98453D01*
X38615Y81420D02*
Y97173D01*
X22606Y159643D02*
X37156Y145094D01*
X39370Y59470D02*
Y80666D01*
Y59294D02*
Y59470D01*
X34449Y41339D02*
Y71755D01*
X17717Y162402D02*
Y202745D01*
X22606Y159643D02*
Y198274D01*
X24575Y160195D02*
Y179033D01*
Y160195D02*
X39895Y144875D01*
Y98453D02*
Y144875D01*
X112380Y70723D02*
Y77024D01*
X87024Y102379D02*
X112380Y77024D01*
X87024Y102379D02*
Y119943D01*
X155728Y129831D02*
X184929Y100630D01*
X79309Y129831D02*
X155728D01*
X106364Y113000D02*
X109364Y110000D01*
X166016D02*
X180308Y95709D01*
X109364Y110000D02*
X166016D01*
X184929Y100630D02*
X210630D01*
X180308Y95709D02*
X210630D01*
X39484Y53983D02*
X79724D01*
X50197Y76772D02*
X64961D01*
X49213Y75787D02*
X50197Y76772D01*
X49213Y64961D02*
Y75787D01*
X102103Y198274D02*
X162685D01*
X185730Y221319D02*
Y224623D01*
X162685Y198274D02*
X185730Y221319D01*
X102529Y202700D02*
X155223D01*
X177069Y224546D01*
X149220Y205262D02*
X168407Y224449D01*
Y224623D01*
X92509Y205262D02*
X149220D01*
X122047Y79180D02*
Y86058D01*
X132759Y93685D02*
X137614D01*
X135399Y99410D02*
X166465D01*
X122047Y86058D02*
X135399Y99410D01*
X166465D02*
X175166Y90709D01*
X210669D01*
X137614Y93685D02*
X152559Y78740D01*
X218386Y95669D02*
X218425Y95630D01*
X24575Y179033D02*
X26906Y181364D01*
Y196767D01*
X28575Y198435D01*
X101941D01*
X24606Y200274D02*
X51365D01*
X54453Y203362D01*
X22606Y198274D02*
X24606Y200274D01*
X80393Y203362D02*
X81970Y201786D01*
X101615D01*
X102529Y202700D01*
X54453Y203362D02*
X80393D01*
X101941Y198435D02*
X102103Y198274D01*
X17717Y202745D02*
X21108Y206136D01*
X28365Y179994D02*
X33410Y185039D01*
X21108Y206136D02*
X91635D01*
X92509Y205262D01*
X52165Y178035D02*
Y180884D01*
X33410Y185039D02*
X48010D01*
X52165Y180884D01*
X53069Y184270D02*
X53105Y184306D01*
D126*
X130352Y171260D02*
X135092Y176000D01*
X177362D01*
D127*
X31451Y65990D02*
Y118914D01*
X31405Y118959D02*
Y144893D01*
X31451Y65990D02*
X31496Y65945D01*
X31405Y118959D02*
X31451Y118914D01*
X228650Y136676D02*
Y136811D01*
Y136676D02*
X229219Y136107D01*
Y95520D02*
Y136107D01*
X228330Y94632D02*
X229219Y95520D01*
X228330Y91616D02*
Y94632D01*
X228235Y91520D02*
X228330Y91616D01*
X11396Y164902D02*
X31405Y144893D01*
X11396Y164902D02*
Y204157D01*
X84034Y133000D02*
X95080Y144046D01*
Y146813D01*
X106031Y157764D01*
X197723D01*
X207000Y167041D01*
X153748Y212618D02*
X162087Y220957D01*
X164077Y224488D02*
Y224623D01*
X162087Y220957D02*
Y222498D01*
X164077Y224488D01*
X85525Y212618D02*
X153748D01*
X11396Y204157D02*
X19696Y212457D01*
X30473D01*
X84317Y211410D02*
X85525Y212618D01*
X31520Y211410D02*
X84317D01*
X30473Y212457D02*
X31520Y211410D01*
X53105Y184306D02*
X89545D01*
D130*
X224000Y188172D02*
D03*
X223425Y136811D02*
D03*
D131*
X224000Y178172D02*
D03*
Y168172D02*
D03*
Y158172D02*
D03*
X103075Y222947D02*
D03*
X113075D02*
D03*
X223425Y116811D02*
D03*
Y126811D02*
D03*
X119000Y12000D02*
D03*
X129000D02*
D03*
X139000D02*
D03*
D132*
X163386Y75709D02*
D03*
D133*
Y80709D02*
D03*
X158386Y75709D02*
D03*
Y80709D02*
D03*
Y90709D02*
D03*
Y85709D02*
D03*
X163386Y90709D02*
D03*
Y85709D02*
D03*
Y95709D02*
D03*
X158386D02*
D03*
X223425Y80630D02*
D03*
Y85630D02*
D03*
X218425Y80630D02*
D03*
Y85630D02*
D03*
Y95630D02*
D03*
Y90630D02*
D03*
X223425Y95630D02*
D03*
Y90630D02*
D03*
Y100630D02*
D03*
X218425D02*
D03*
D134*
X93075Y222947D02*
D03*
X149000Y12000D02*
D03*
D135*
X9252Y9252D02*
D03*
X226969D02*
D03*
X9252Y226969D02*
D03*
X226969D02*
D03*
D136*
X108268Y35019D02*
D03*
X128667Y60039D02*
D03*
X29000Y137500D02*
D03*
Y130000D02*
D03*
Y122500D02*
D03*
Y55000D02*
D03*
Y62500D02*
D03*
Y70000D02*
D03*
Y77500D02*
D03*
Y85000D02*
D03*
Y92500D02*
D03*
Y100000D02*
D03*
Y115000D02*
D03*
X31405Y119095D02*
D03*
X29000Y107500D02*
D03*
X28604Y48504D02*
D03*
X33846Y76772D02*
D03*
X31496Y65945D02*
D03*
X228650Y136811D02*
D03*
X228235Y91520D02*
D03*
X10500Y210607D02*
D03*
X33755Y134843D02*
D03*
X13746Y155512D02*
D03*
X26957Y144183D02*
D03*
X26575Y161024D02*
D03*
X153550Y120177D02*
D03*
X129921Y164370D02*
D03*
X122457Y56306D02*
D03*
X140748Y67323D02*
D03*
X139667Y60039D02*
D03*
X151631Y31000D02*
D03*
X117323Y31000D02*
D03*
X90000Y35000D02*
D03*
X149000Y5000D02*
D03*
X91514Y119943D02*
D03*
X87024D02*
D03*
X84034Y133000D02*
D03*
X79309Y129831D02*
D03*
X106364Y113000D02*
D03*
X98207Y121441D02*
D03*
X127170Y125787D02*
D03*
X83220Y137969D02*
D03*
X122047Y160236D02*
D03*
X207000Y167041D02*
D03*
X212835Y150165D02*
D03*
X231000Y188000D02*
D03*
X151052Y173524D02*
D03*
X177362Y176000D02*
D03*
X130352Y171260D02*
D03*
X129921Y167323D02*
D03*
X106031Y164948D02*
D03*
X202216Y182710D02*
D03*
X151052Y169976D02*
D03*
X164077Y179857D02*
D03*
X104531Y150787D02*
D03*
X147910Y53983D02*
D03*
X173799D02*
D03*
X169606Y75709D02*
D03*
X190121Y131744D02*
D03*
X196922D02*
D03*
X24059Y19685D02*
D03*
X10827Y28543D02*
D03*
X9843Y47244D02*
D03*
X64961Y76772D02*
D03*
X49213Y64961D02*
D03*
X39370Y59470D02*
D03*
X59339Y63976D02*
D03*
X79724Y53983D02*
D03*
X24059Y28543D02*
D03*
X74803Y129921D02*
D03*
X75787Y63976D02*
D03*
X107656Y76772D02*
D03*
X141181Y74410D02*
D03*
X134941Y78740D02*
D03*
X214879Y198103D02*
D03*
Y208093D02*
D03*
X198524Y179857D02*
D03*
X185730Y224623D02*
D03*
X181400D02*
D03*
X177069Y224546D02*
D03*
X168407Y224623D02*
D03*
X164077D02*
D03*
X140748Y189650D02*
D03*
X122047Y192983D02*
D03*
X127170Y171812D02*
D03*
X106031Y172047D02*
D03*
X95451Y163809D02*
D03*
X90530Y173522D02*
D03*
X70866Y172672D02*
D03*
X60356Y166535D02*
D03*
X60941Y150870D02*
D03*
X223425Y106299D02*
D03*
X67234Y219748D02*
D03*
X41517Y182514D02*
D03*
Y178971D02*
D03*
Y175428D02*
D03*
X45454D02*
D03*
Y178971D02*
D03*
Y182514D02*
D03*
X92498Y194467D02*
D03*
X90530Y192498D02*
D03*
X90530Y196435D02*
D03*
X94467Y196435D02*
D03*
X94467Y192498D02*
D03*
X140748Y167323D02*
D03*
X142717Y170276D02*
D03*
X138779D02*
D03*
Y164370D02*
D03*
X142717D02*
D03*
X132759Y93685D02*
D03*
X169291Y85630D02*
D03*
Y80709D02*
D03*
X210669Y90709D02*
D03*
X210630Y95709D02*
D03*
X152559Y78740D02*
D03*
X122047Y79180D02*
D03*
X210630Y100630D02*
D03*
X34449Y41339D02*
D03*
X103637Y179380D02*
D03*
X64158Y158661D02*
D03*
X14764Y202700D02*
D03*
X28365Y179994D02*
D03*
X93482Y207612D02*
D03*
X120648Y210268D02*
D03*
X65945Y189069D02*
D03*
X143701Y228817D02*
D03*
X85827Y151772D02*
D03*
X93482Y184270D02*
D03*
X80709Y180684D02*
D03*
X122047Y65945D02*
D03*
X197835Y165354D02*
D03*
X191929D02*
D03*
Y169291D02*
D03*
X197835D02*
D03*
X194529Y167424D02*
D03*
X107600Y101727D02*
D03*
Y90215D02*
D03*
X96360D02*
D03*
Y101727D02*
D03*
X64158Y141142D02*
D03*
X70866Y189069D02*
D03*
X56840Y93947D02*
D03*
X48108D02*
D03*
X56840Y102538D02*
D03*
X48108D02*
D03*
X64158Y148622D02*
D03*
Y166142D02*
D03*
X89545Y184306D02*
D03*
X53069Y184270D02*
D03*
X62992Y144882D02*
D03*
Y162402D02*
D03*
X89264Y203786D02*
D03*
X61024Y176313D02*
D03*
X61577Y201362D02*
D03*
X81693Y195451D02*
D03*
X85731Y233246D02*
D03*
X102931Y200274D02*
D03*
X52165Y178035D02*
D03*
X6890Y199803D02*
D03*
X65945Y195866D02*
D03*
X24606Y195079D02*
D03*
X34461Y156496D02*
D03*
X13746Y170276D02*
D03*
X6890Y154528D02*
D03*
X34449Y176313D02*
D03*
X31754Y178085D02*
D03*
X20669Y210107D02*
D03*
X6890Y171260D02*
D03*
X199803Y227931D02*
D03*
X144685Y190530D02*
D03*
X31754Y214500D02*
D03*
X47305Y224079D02*
D03*
X40612D02*
D03*
X64961Y229000D02*
D03*
X22638D02*
D03*
X50963Y202700D02*
D03*
X56163Y213760D02*
D03*
M02*
