G04*
G04 #@! TF.GenerationSoftware,Altium Limited,Altium Designer,23.1.1 (15)*
G04*
G04 Layer_Physical_Order=1*
G04 Layer_Color=255*
%FSLAX25Y25*%
%MOIN*%
G70*
G04*
G04 #@! TF.SameCoordinates,04E93CFA-C197-41A2-BC49-AEE8B521008C*
G04*
G04*
G04 #@! TF.FilePolarity,Positive*
G04*
G01*
G75*
%ADD14C,0.01000*%
%ADD15C,0.00800*%
%ADD18C,0.01200*%
%ADD24C,0.05000*%
%ADD25R,0.03937X0.03543*%
%ADD26R,0.02236X0.04956*%
%ADD27R,0.03543X0.03937*%
%ADD28R,0.07480X0.04331*%
%ADD29R,0.04724X0.01378*%
%ADD30R,0.05512X0.04134*%
%ADD31R,0.04134X0.02559*%
G04:AMPARAMS|DCode=32|XSize=47.64mil|YSize=23.23mil|CornerRadius=5.81mil|HoleSize=0mil|Usage=FLASHONLY|Rotation=0.000|XOffset=0mil|YOffset=0mil|HoleType=Round|Shape=RoundedRectangle|*
%AMROUNDEDRECTD32*
21,1,0.04764,0.01161,0,0,0.0*
21,1,0.03602,0.02323,0,0,0.0*
1,1,0.01161,0.01801,-0.00581*
1,1,0.01161,-0.01801,-0.00581*
1,1,0.01161,-0.01801,0.00581*
1,1,0.01161,0.01801,0.00581*
%
%ADD32ROUNDEDRECTD32*%
%ADD33R,0.04724X0.04724*%
%ADD34R,0.01575X0.05315*%
%ADD35R,0.08268X0.07874*%
%ADD36R,0.06299X0.07480*%
%ADD37R,0.04724X0.07480*%
%ADD38R,0.02756X0.02362*%
%ADD39R,0.02756X0.03937*%
%ADD40R,0.02756X0.04724*%
%ADD41R,0.04724X0.02756*%
%ADD42R,0.07874X0.07874*%
%ADD43R,0.06299X0.09843*%
%ADD44R,0.01575X0.00984*%
%ADD45R,0.04606X0.07087*%
%ADD46R,0.02953X0.04331*%
%ADD47R,0.03347X0.04331*%
%ADD48R,0.06102X0.05315*%
%ADD49R,0.04724X0.03937*%
%ADD50R,0.07480X0.05315*%
%ADD51R,0.13386X0.03858*%
%ADD52R,0.05512X0.03937*%
%ADD53R,0.03150X0.03150*%
%ADD54R,0.09843X0.06693*%
%ADD55R,0.04528X0.05709*%
%ADD56R,0.05709X0.04528*%
%ADD57R,0.04331X0.04331*%
%ADD119C,0.00800*%
%ADD120C,0.04000*%
%ADD121R,0.06693X0.06693*%
%ADD122O,0.01102X0.03347*%
%ADD123O,0.03347X0.01102*%
G04:AMPARAMS|DCode=124|XSize=64.96mil|YSize=94.49mil|CornerRadius=1.95mil|HoleSize=0mil|Usage=FLASHONLY|Rotation=0.000|XOffset=0mil|YOffset=0mil|HoleType=Round|Shape=RoundedRectangle|*
%AMROUNDEDRECTD124*
21,1,0.06496,0.09059,0,0,0.0*
21,1,0.06106,0.09449,0,0,0.0*
1,1,0.00390,0.03053,-0.04530*
1,1,0.00390,-0.03053,-0.04530*
1,1,0.00390,-0.03053,0.04530*
1,1,0.00390,0.03053,0.04530*
%
%ADD124ROUNDEDRECTD124*%
G04:AMPARAMS|DCode=125|XSize=11.02mil|YSize=33.47mil|CornerRadius=1.98mil|HoleSize=0mil|Usage=FLASHONLY|Rotation=90.000|XOffset=0mil|YOffset=0mil|HoleType=Round|Shape=RoundedRectangle|*
%AMROUNDEDRECTD125*
21,1,0.01102,0.02950,0,0,90.0*
21,1,0.00706,0.03347,0,0,90.0*
1,1,0.00397,0.01475,0.00353*
1,1,0.00397,0.01475,-0.00353*
1,1,0.00397,-0.01475,-0.00353*
1,1,0.00397,-0.01475,0.00353*
%
%ADD125ROUNDEDRECTD125*%
%ADD126C,0.00900*%
%ADD127C,0.01500*%
%ADD128C,0.02000*%
%ADD129R,0.01102X0.02756*%
%ADD130R,0.07087X0.07087*%
%ADD131C,0.07087*%
%ADD132R,0.03960X0.03960*%
%ADD133C,0.03960*%
%ADD134R,0.07087X0.07087*%
%ADD135C,0.14173*%
%ADD136C,0.02000*%
G36*
X235201Y1020D02*
X1020Y1020D01*
Y54098D01*
X24016D01*
X24072Y54110D01*
X24129Y54105D01*
X24479Y54144D01*
X24589Y54179D01*
X24702Y54195D01*
X25036Y54311D01*
X25134Y54369D01*
X25242Y54410D01*
X25540Y54598D01*
X25624Y54676D01*
X25719Y54740D01*
X25969Y54989D01*
X26032Y55085D01*
X26111Y55168D01*
X26299Y55467D01*
X26340Y55574D01*
X26398Y55673D01*
X26514Y56006D01*
X26530Y56120D01*
X26565Y56229D01*
X26604Y56580D01*
X26599Y56637D01*
X26610Y56693D01*
X26610Y140157D01*
X26599Y140213D01*
X26604Y140270D01*
X26565Y140621D01*
X26530Y140730D01*
X26514Y140844D01*
X26398Y141177D01*
X26340Y141276D01*
X26299Y141383D01*
X26111Y141682D01*
X26032Y141765D01*
X25969Y141861D01*
X25719Y142110D01*
X25624Y142174D01*
X25540Y142253D01*
X25242Y142440D01*
X25134Y142481D01*
X25035Y142540D01*
X24702Y142656D01*
X24589Y142672D01*
X24479Y142706D01*
X24129Y142745D01*
X24072Y142741D01*
X24016Y142752D01*
X1020D01*
X1020Y234847D01*
X1373Y235201D01*
X22403Y235197D01*
X22746Y234883D01*
X22838Y234827D01*
X22919Y234755D01*
X23662Y234321D01*
X23765Y234285D01*
X23859Y234232D01*
X24444Y234040D01*
X24364Y233540D01*
X23867D01*
Y229500D01*
X31766D01*
Y233323D01*
X31766Y233540D01*
X32149Y233823D01*
X37067D01*
X37450Y233540D01*
X37450Y233323D01*
Y229500D01*
X40612D01*
Y229000D01*
X41112D01*
Y224460D01*
X43643D01*
X43774Y224460D01*
X44142D01*
X44274Y224460D01*
X46805D01*
Y229000D01*
X47305D01*
Y229500D01*
X50467D01*
Y233323D01*
X50467Y233540D01*
X50850Y233823D01*
X55768D01*
X56150Y233540D01*
X56150Y233323D01*
Y229500D01*
X64050D01*
Y233323D01*
X64050Y233540D01*
X64433Y233823D01*
X65220D01*
X65273Y233833D01*
X65327Y233828D01*
X66184Y233918D01*
X66287Y233951D01*
X66395Y233964D01*
X67213Y234233D01*
X67308Y234286D01*
X67411Y234322D01*
X68154Y234758D01*
X68235Y234830D01*
X68328Y234887D01*
X68669Y235201D01*
X151671Y235197D01*
X152013Y234883D01*
X152106Y234827D01*
X152187Y234755D01*
X152930Y234321D01*
X153032Y234285D01*
X153127Y234232D01*
X153944Y233964D01*
X154052Y233951D01*
X154156Y233919D01*
X155011Y233828D01*
X155065Y233834D01*
X155118Y233823D01*
X178630D01*
X178782Y233323D01*
X178591Y233195D01*
X178005Y232610D01*
X177784Y232279D01*
X177744Y232074D01*
X157473D01*
Y226544D01*
X162700D01*
Y225481D01*
X162477Y224942D01*
Y224305D01*
X162720Y223717D01*
X163170Y223267D01*
X163759Y223023D01*
X164395D01*
X164983Y223267D01*
X165433Y223717D01*
X165677Y224305D01*
Y224942D01*
X165453Y225481D01*
Y226544D01*
X167388D01*
Y225867D01*
X167051Y225530D01*
X166807Y224942D01*
Y224305D01*
X167051Y223717D01*
X167501Y223267D01*
X168089Y223023D01*
X168726D01*
X169314Y223267D01*
X169764Y223717D01*
X170008Y224305D01*
Y224942D01*
X169764Y225530D01*
X169427Y225867D01*
Y226544D01*
X171362D01*
Y220974D01*
X153542Y203154D01*
X152334D01*
Y207665D01*
X146410D01*
Y206116D01*
X144301D01*
Y206884D01*
X142201D01*
Y219308D01*
X142378Y219355D01*
X143085Y219763D01*
X143662Y220341D01*
X144070Y221047D01*
X144281Y221836D01*
Y222652D01*
X144070Y223441D01*
X143662Y224148D01*
X143085Y224725D01*
X142378Y225133D01*
X141589Y225344D01*
X140773D01*
X139985Y225133D01*
X139278Y224725D01*
X138700Y224148D01*
X138292Y223441D01*
X138081Y222652D01*
Y221836D01*
X138292Y221047D01*
X138700Y220341D01*
X139278Y219763D01*
X139985Y219355D01*
X140162Y219308D01*
Y206884D01*
X139164D01*
Y202140D01*
X144301D01*
Y204077D01*
X146410D01*
Y202528D01*
X147784D01*
X147976Y202066D01*
X145499Y199589D01*
X144301D01*
Y200584D01*
X139164D01*
Y199589D01*
X120380D01*
X119853Y199485D01*
X119406Y199186D01*
X117253Y197033D01*
X116791Y197224D01*
Y200785D01*
X116601Y201244D01*
X116425Y201317D01*
Y207561D01*
X116601Y207634D01*
X116791Y208093D01*
Y214320D01*
X119554Y217082D01*
X119744Y217541D01*
Y227931D01*
X119554Y228390D01*
X119095Y228580D01*
X113959D01*
X113766Y228501D01*
X113564Y228446D01*
X113541Y228408D01*
X113500Y228390D01*
X113420Y228197D01*
X113334Y228049D01*
X113154Y228016D01*
X112996D01*
X112815Y228049D01*
X112730Y228197D01*
X112650Y228390D01*
X112608Y228408D01*
X112586Y228446D01*
X112384Y228501D01*
X112190Y228580D01*
X106299D01*
X105840Y228390D01*
X105650Y227931D01*
Y226822D01*
X105150Y226533D01*
X104674Y226808D01*
X103620Y227090D01*
X102529D01*
X101476Y226808D01*
X100531Y226262D01*
X99759Y225491D01*
X99214Y224546D01*
X98931Y223492D01*
Y222401D01*
X99214Y221348D01*
X99759Y220403D01*
X100531Y219631D01*
X101476Y219086D01*
X102529Y218804D01*
X103620D01*
X104674Y219086D01*
X105150Y219361D01*
X105650Y219072D01*
Y213852D01*
X96696Y204898D01*
X96647Y204779D01*
X96556Y204688D01*
Y204558D01*
X96506Y204439D01*
X96556Y204320D01*
Y204190D01*
X96747Y203729D01*
X96838Y203637D01*
X96888Y203518D01*
X97007Y203468D01*
X97098Y203377D01*
X97228D01*
X97347Y203328D01*
X102399D01*
X102599Y203288D01*
X102769Y203174D01*
X103148Y202796D01*
X103261Y202626D01*
X103301Y202425D01*
Y201517D01*
X103491Y201058D01*
X103737Y200813D01*
X103882Y200463D01*
Y200085D01*
X103737Y199736D01*
X103470Y199468D01*
X103120Y199323D01*
X102773D01*
X102314Y199133D01*
X101164Y197983D01*
X100588Y198115D01*
X100401Y198394D01*
X99954Y198693D01*
X99427Y198797D01*
X98805D01*
Y197420D01*
X97805D01*
Y198797D01*
X97268D01*
X97022Y198991D01*
X96828Y199237D01*
Y199774D01*
X95451D01*
Y200274D01*
X94951D01*
Y202708D01*
X94502Y202917D01*
Y206369D01*
X94839Y206705D01*
X95082Y207294D01*
Y207930D01*
X94839Y208518D01*
X94389Y208968D01*
X93800Y209212D01*
X93164D01*
X92576Y208968D01*
X92126Y208518D01*
X91882Y207930D01*
Y207294D01*
X92064Y206855D01*
X91640Y206571D01*
X87710Y210501D01*
Y220396D01*
X87633Y220786D01*
X87412Y221117D01*
X85563Y222965D01*
X85233Y223186D01*
X84842Y223264D01*
X81309D01*
Y224616D01*
X76172D01*
Y223209D01*
X75797Y222907D01*
X75672Y222907D01*
X69872D01*
Y221125D01*
X68092D01*
X67552Y221348D01*
X66916D01*
X66328Y221104D01*
X65878Y220654D01*
X65634Y220066D01*
Y219430D01*
X65878Y218842D01*
X66328Y218392D01*
X66916Y218148D01*
X67552D01*
X68092Y218372D01*
X69872D01*
Y216983D01*
X75797D01*
Y219570D01*
X76172Y219872D01*
X76297Y219872D01*
X81309D01*
Y221224D01*
X84420D01*
X85671Y219973D01*
Y210079D01*
X85749Y209689D01*
X85970Y209358D01*
X90494Y204834D01*
Y202917D01*
X90045Y202708D01*
Y200274D01*
X89545D01*
Y199774D01*
X88168D01*
Y199152D01*
X88192Y199028D01*
X87831Y198614D01*
X87769Y198593D01*
X85569D01*
X85120Y198504D01*
X84875Y198341D01*
X84327D01*
X78544Y204124D01*
X78213Y204345D01*
X77823Y204423D01*
X76625D01*
Y205775D01*
X71487D01*
Y201031D01*
X76625D01*
Y202384D01*
X77401D01*
X82320Y197465D01*
X82037Y197041D01*
X82011Y197051D01*
X81375D01*
X80787Y196808D01*
X80336Y196358D01*
X80093Y195769D01*
Y195133D01*
X80336Y194545D01*
X80581Y194300D01*
X80374Y193800D01*
X78140D01*
Y189057D01*
X83277D01*
Y190409D01*
X85225D01*
X85569Y190340D01*
X87813D01*
X87852Y190348D01*
X88045Y190337D01*
X88368Y190014D01*
X88379Y189821D01*
X88371Y189782D01*
Y187538D01*
X88461Y187089D01*
X88526Y186992D01*
Y185549D01*
X88189Y185213D01*
X87945Y184625D01*
Y183988D01*
X88189Y183400D01*
X88639Y182950D01*
X89227Y182706D01*
X89263D01*
X89729Y182625D01*
X89729Y180357D01*
X91801D01*
Y182625D01*
X90834D01*
X90627Y183125D01*
X90902Y183400D01*
X91145Y183988D01*
Y184625D01*
X90902Y185213D01*
X90565Y185549D01*
Y186017D01*
X91014Y186226D01*
Y188660D01*
X92014D01*
Y186260D01*
X92041Y186265D01*
X92488Y186564D01*
X92508D01*
X92955Y186265D01*
X92982Y186260D01*
Y188660D01*
X93982D01*
Y186226D01*
X94431Y186017D01*
Y185860D01*
X94509Y185469D01*
X94730Y185139D01*
X96981Y182887D01*
X96790Y182425D01*
X96229D01*
Y177288D01*
X100972D01*
Y182425D01*
X99620D01*
Y182710D01*
X99542Y183100D01*
X99321Y183431D01*
X96470Y186282D01*
Y186992D01*
X96535Y187089D01*
X96624Y187538D01*
Y189782D01*
X96617Y189821D01*
X96627Y190014D01*
X96951Y190337D01*
X97145Y190348D01*
X97183Y190340D01*
X99427D01*
X99876Y190430D01*
X99973Y190495D01*
X105332D01*
X105379Y190318D01*
X105787Y189611D01*
X106364Y189033D01*
X107071Y188625D01*
X107248Y188578D01*
Y188035D01*
X105699D01*
Y183292D01*
X110836D01*
Y188035D01*
X109287D01*
Y188578D01*
X109464Y188625D01*
X110171Y189033D01*
X110748Y189611D01*
X111156Y190318D01*
X111368Y191106D01*
Y191849D01*
X116142D01*
X116242Y191782D01*
Y164445D01*
X115515Y163717D01*
X115053Y163909D01*
Y164448D01*
X111898D01*
Y161885D01*
X113028D01*
X113220Y161423D01*
X104165Y152367D01*
X103673Y152164D01*
X101106D01*
Y153454D01*
X94394D01*
Y148120D01*
X101106D01*
Y149411D01*
X103673D01*
X104213Y149187D01*
X104849D01*
X105437Y149431D01*
X105887Y149881D01*
X106111Y150421D01*
X117931Y162241D01*
X118393Y162049D01*
Y161662D01*
X121547D01*
Y164726D01*
Y167789D01*
X118995D01*
Y168948D01*
X125502D01*
Y170436D01*
X126312D01*
X126852Y170212D01*
X127489D01*
X128077Y170456D01*
X128314Y170693D01*
X128897Y170593D01*
X128996Y170353D01*
X129446Y169903D01*
X129938Y169700D01*
X130086Y169414D01*
X129807Y168923D01*
X129603D01*
X129015Y168679D01*
X128565Y168229D01*
X128321Y167641D01*
Y167005D01*
X128565Y166417D01*
X129015Y165966D01*
X129603Y165723D01*
X130239D01*
X130828Y165966D01*
X131113Y166252D01*
X132074D01*
X132379Y165854D01*
X134941D01*
Y164854D01*
X132477D01*
X132526Y164612D01*
X132687Y164370D01*
X132526Y164128D01*
X132477Y163886D01*
X134941D01*
Y163386D01*
X135441D01*
Y162015D01*
X136416D01*
X136805Y162093D01*
X136917Y162167D01*
X136978Y162076D01*
X137307Y161856D01*
X137695Y161779D01*
X140248D01*
Y167323D01*
Y172867D01*
X137695D01*
X137307Y172790D01*
X136978Y172570D01*
X136806Y172312D01*
X136727Y172365D01*
X136416Y172427D01*
X134865D01*
X134840Y172432D01*
X134161D01*
X132719Y173873D01*
X132911Y174335D01*
X133474D01*
Y179079D01*
X128337D01*
Y174335D01*
X129895D01*
Y174113D01*
X129977Y173703D01*
X130209Y173356D01*
X130034Y172860D01*
X129446Y172616D01*
X129209Y172379D01*
X128626Y172479D01*
X128527Y172719D01*
X128077Y173169D01*
X127489Y173412D01*
X126852D01*
X126312Y173189D01*
X125502D01*
Y174676D01*
X118995D01*
Y180300D01*
X119479Y180338D01*
X119495Y180338D01*
X124616D01*
Y181639D01*
X128337D01*
Y180635D01*
X133474D01*
Y185378D01*
X128337D01*
Y183781D01*
X124616D01*
Y185082D01*
X119495D01*
X119479Y185082D01*
X118995Y185120D01*
Y186055D01*
X119279Y186437D01*
X119495Y186437D01*
X121547D01*
Y189009D01*
Y191581D01*
X119495D01*
X119279Y191581D01*
X118995Y191963D01*
Y194881D01*
X120950Y196836D01*
X139164D01*
Y195841D01*
X144301D01*
Y196836D01*
X146069D01*
X146596Y196941D01*
X147043Y197239D01*
X150205Y200401D01*
X154112D01*
X154639Y200506D01*
X155085Y200805D01*
X172738Y218458D01*
X177777Y213418D01*
X178224Y213120D01*
X178751Y213015D01*
X197235D01*
Y212020D01*
X199285D01*
X199352Y211548D01*
X199352Y211520D01*
Y204639D01*
X200839D01*
Y201557D01*
X199352D01*
Y194648D01*
X200839D01*
Y183568D01*
X200616Y183028D01*
Y182392D01*
X200859Y181804D01*
X201309Y181353D01*
X201898Y181110D01*
X202534D01*
X203122Y181353D01*
X203572Y181804D01*
X203816Y182392D01*
Y183028D01*
X203592Y183568D01*
Y194648D01*
X205080D01*
Y201557D01*
X203592D01*
Y204639D01*
X205080D01*
Y211548D01*
X202438D01*
X202372Y212020D01*
X202372Y212048D01*
Y213015D01*
X207806D01*
X207997Y212685D01*
X208435Y212248D01*
X208237Y211748D01*
X206239D01*
Y208593D01*
X209302D01*
X212366D01*
Y211748D01*
X212366Y211748D01*
X212476Y212202D01*
X212958Y212685D01*
X213366Y213392D01*
X213578Y214180D01*
Y214997D01*
X213366Y215785D01*
X212958Y216492D01*
X212381Y217069D01*
X211674Y217477D01*
X210886Y217689D01*
X210069D01*
X209281Y217477D01*
X208574Y217069D01*
X207997Y216492D01*
X207589Y215785D01*
X207584Y215768D01*
X202372D01*
Y216763D01*
X197235D01*
Y215768D01*
X179321D01*
X174115Y220974D01*
Y226544D01*
X176049D01*
Y225789D01*
X175713Y225452D01*
X175469Y224864D01*
Y224228D01*
X175713Y223640D01*
X176163Y223190D01*
X176751Y222946D01*
X177387D01*
X177975Y223190D01*
X178425Y223640D01*
X178669Y224228D01*
Y224864D01*
X178425Y225452D01*
X178088Y225789D01*
Y226544D01*
X178926D01*
Y226344D01*
X180900D01*
Y229309D01*
X181900D01*
Y226344D01*
X183873D01*
Y226544D01*
X184711D01*
Y225867D01*
X184374Y225530D01*
X184130Y224942D01*
Y224305D01*
X184374Y223717D01*
X184824Y223267D01*
X185412Y223023D01*
X186049D01*
X186637Y223267D01*
X187087Y223717D01*
X187330Y224305D01*
Y224942D01*
X187087Y225530D01*
X186750Y225867D01*
Y226544D01*
X191525D01*
Y223588D01*
X194128D01*
Y227931D01*
X194628D01*
Y228431D01*
X197731D01*
Y231455D01*
X208514D01*
Y230891D01*
X208725Y230103D01*
X209134Y229396D01*
X209711Y228819D01*
X210418Y228411D01*
X211206Y228199D01*
X212022D01*
X212811Y228411D01*
X213518Y228819D01*
X214095Y229396D01*
X214503Y230103D01*
X214714Y230891D01*
Y231707D01*
X214503Y232496D01*
X214095Y233203D01*
X213518Y233780D01*
X212811Y234188D01*
X212022Y234399D01*
X211206D01*
X210418Y234188D01*
X209711Y233780D01*
X209405Y233474D01*
X209302Y233494D01*
X195835D01*
X195755Y233994D01*
X196481Y234233D01*
X196576Y234286D01*
X196679Y234322D01*
X197422Y234758D01*
X197503Y234830D01*
X197596Y234887D01*
X197937Y235201D01*
X235201Y235201D01*
X235201Y1020D01*
D02*
G37*
G36*
X119095Y217541D02*
X116142Y214589D01*
Y208093D01*
X114061D01*
Y204439D01*
Y200785D01*
X116142D01*
Y192498D01*
X111213D01*
X111156Y192711D01*
X110748Y193418D01*
X110171Y193995D01*
X109464Y194403D01*
X108676Y194614D01*
X107860D01*
X107071Y194403D01*
X106364Y193995D01*
X105787Y193418D01*
X105379Y192711D01*
X105332Y192534D01*
X100948D01*
X100739Y192983D01*
X98305D01*
Y193983D01*
X100705D01*
X100700Y194010D01*
X100401Y194457D01*
Y194477D01*
X100700Y194924D01*
X100705Y194951D01*
X98305D01*
Y195951D01*
X100705D01*
X100700Y195978D01*
X100654Y196047D01*
X100469Y196472D01*
X100782Y196688D01*
X100798Y196699D01*
X102773Y198674D01*
X103249D01*
X103837Y198918D01*
X104288Y199368D01*
X104531Y199956D01*
Y200592D01*
X104288Y201180D01*
X103951Y201517D01*
Y202489D01*
X103873Y202879D01*
X103652Y203210D01*
X103183Y203678D01*
X102853Y203900D01*
X102462Y203977D01*
X97347D01*
X97156Y204439D01*
X106299Y213583D01*
Y220312D01*
X106390Y220403D01*
X106936Y221348D01*
X107218Y222401D01*
Y223492D01*
X106936Y224546D01*
X106390Y225491D01*
X106299Y225582D01*
Y227931D01*
X112190D01*
X112256Y227431D01*
X111321Y227181D01*
X110285Y226582D01*
X109439Y225736D01*
X108841Y224700D01*
X108531Y223545D01*
Y223447D01*
X113075D01*
X117618D01*
Y223545D01*
X117308Y224700D01*
X116710Y225736D01*
X115864Y226582D01*
X114828Y227181D01*
X113893Y227431D01*
X113959Y227931D01*
X119095D01*
Y217541D01*
D02*
G37*
%LPC*%
G36*
X153912Y232274D02*
X150561D01*
Y229317D01*
X153912D01*
Y232274D01*
D02*
G37*
G36*
X149561D02*
X146210D01*
Y229317D01*
X149561D01*
Y232274D01*
D02*
G37*
G36*
X153912Y228317D02*
X150561D01*
Y225359D01*
X153912D01*
Y228317D01*
D02*
G37*
G36*
X149561D02*
X146210D01*
Y225359D01*
X149561D01*
Y228317D01*
D02*
G37*
G36*
X75797Y231175D02*
Y231175D01*
X69872D01*
Y225250D01*
X75797D01*
Y225869D01*
X76172Y226172D01*
X81309D01*
Y230915D01*
X76172D01*
X75797Y231175D01*
D02*
G37*
G36*
X50467Y228500D02*
X47805D01*
Y224460D01*
X50467D01*
Y228500D01*
D02*
G37*
G36*
X40112D02*
X37450D01*
Y224460D01*
X40112D01*
Y228500D01*
D02*
G37*
G36*
X97618Y227490D02*
X93575D01*
Y223447D01*
X97618D01*
Y227490D01*
D02*
G37*
G36*
X92575D02*
X88532D01*
Y223447D01*
X92575D01*
Y227490D01*
D02*
G37*
G36*
X202572Y223263D02*
X200303D01*
Y221191D01*
X202572D01*
Y223263D01*
D02*
G37*
G36*
X197731Y227431D02*
X195128D01*
Y223588D01*
X196669D01*
X197035Y223263D01*
X197035Y223088D01*
Y221191D01*
X199303D01*
Y223263D01*
X198096D01*
X197731Y223588D01*
X197731Y223763D01*
Y227431D01*
D02*
G37*
G36*
X64050Y228500D02*
X56150D01*
Y224485D01*
X51229D01*
Y220248D01*
X61097D01*
Y224460D01*
X64050D01*
Y228500D01*
D02*
G37*
G36*
X31766D02*
X23867D01*
Y224460D01*
X26820D01*
Y220248D01*
X36687D01*
Y224485D01*
X31766D01*
Y228500D01*
D02*
G37*
G36*
X227726Y234655D02*
X226211D01*
X224726Y234360D01*
X223327Y233780D01*
X222069Y232939D01*
X220998Y231868D01*
X220157Y230609D01*
X219577Y229211D01*
X219282Y227726D01*
Y226211D01*
X219577Y224726D01*
X220157Y223327D01*
X220998Y222069D01*
X222069Y220998D01*
X223327Y220157D01*
X224726Y219577D01*
X226211Y219282D01*
X227726D01*
X229211Y219577D01*
X230609Y220157D01*
X231868Y220998D01*
X232939Y222069D01*
X233780Y223327D01*
X234360Y224726D01*
X234655Y226211D01*
Y227726D01*
X234360Y229211D01*
X233780Y230609D01*
X232939Y231868D01*
X231868Y232939D01*
X230609Y233780D01*
X229211Y234360D01*
X227726Y234655D01*
D02*
G37*
G36*
X10009D02*
X8495D01*
X7010Y234360D01*
X5611Y233780D01*
X4352Y232939D01*
X3281Y231868D01*
X2440Y230609D01*
X1861Y229211D01*
X1565Y227726D01*
Y226211D01*
X1861Y224726D01*
X2440Y223327D01*
X3281Y222069D01*
X4352Y220998D01*
X5611Y220157D01*
X7010Y219577D01*
X8495Y219282D01*
X10009D01*
X11494Y219577D01*
X12893Y220157D01*
X14152Y220998D01*
X15223Y222069D01*
X16064Y223327D01*
X16643Y224726D01*
X16939Y226211D01*
Y227726D01*
X16643Y229211D01*
X16064Y230609D01*
X15223Y231868D01*
X14152Y232939D01*
X12893Y233780D01*
X11494Y234360D01*
X10009Y234655D01*
D02*
G37*
G36*
X50664Y221926D02*
X49576D01*
Y218969D01*
X50664D01*
Y221926D01*
D02*
G37*
G36*
X97618Y222447D02*
X93575D01*
Y218404D01*
X97618D01*
Y222447D01*
D02*
G37*
G36*
X92575D02*
X88532D01*
Y218404D01*
X92575D01*
Y222447D01*
D02*
G37*
G36*
X202572Y220191D02*
X200303D01*
Y218119D01*
X202572D01*
Y220191D01*
D02*
G37*
G36*
X199303D02*
X197035D01*
Y218119D01*
X199303D01*
Y220191D01*
D02*
G37*
G36*
X48576Y221926D02*
X47489D01*
Y221726D01*
X37453D01*
Y216019D01*
X37131Y215649D01*
X37073Y215638D01*
X36687Y215956D01*
Y219248D01*
X32254D01*
Y215011D01*
X36081D01*
X36140Y214923D01*
Y214029D01*
X35359Y213248D01*
X33477D01*
X33018Y213058D01*
X32860Y212676D01*
X28534D01*
Y207539D01*
X28624D01*
X28758Y207339D01*
Y205469D01*
X28624Y205269D01*
X27550D01*
Y200132D01*
X34261D01*
Y200132D01*
X34344Y200187D01*
X34461Y200138D01*
X37273D01*
X37390Y200187D01*
X37473Y200132D01*
Y200132D01*
X41429D01*
X41468Y199648D01*
Y198321D01*
X37832D01*
Y196098D01*
X37275D01*
Y197647D01*
X32531D01*
Y192510D01*
X37275D01*
Y194059D01*
X37832D01*
Y193578D01*
X42968D01*
Y196879D01*
X43209Y197120D01*
X43358Y197343D01*
X43778Y197460D01*
X43942Y197465D01*
X44331Y197076D01*
Y193578D01*
X49468D01*
Y194930D01*
X51685D01*
Y193381D01*
X56429D01*
Y198518D01*
X51685D01*
Y196969D01*
X49468D01*
Y198321D01*
X45970D01*
X45307Y198984D01*
Y199932D01*
X46825D01*
Y202700D01*
Y205469D01*
X45307D01*
Y206130D01*
X46789Y207612D01*
X49303D01*
Y211174D01*
X45758D01*
X44978Y211954D01*
Y215211D01*
X47489D01*
Y215011D01*
X48576D01*
Y218468D01*
Y221926D01*
D02*
G37*
G36*
X61097Y219248D02*
X56663D01*
Y215011D01*
X61097D01*
Y219248D01*
D02*
G37*
G36*
X55663D02*
X51229D01*
Y215011D01*
X55663D01*
Y219248D01*
D02*
G37*
G36*
X50664Y217969D02*
X49576D01*
Y215011D01*
X50664D01*
Y217969D01*
D02*
G37*
G36*
X31254Y219248D02*
X26820D01*
Y215011D01*
X31254D01*
Y219248D01*
D02*
G37*
G36*
X27178Y212876D02*
X25106D01*
Y210607D01*
X27178D01*
Y212876D01*
D02*
G37*
G36*
X24106D02*
X22035D01*
Y210607D01*
X24106D01*
Y212876D01*
D02*
G37*
G36*
X227311Y215600D02*
X226626D01*
X225965Y215423D01*
X225372Y215080D01*
X224888Y214596D01*
X224546Y214004D01*
X224369Y213342D01*
Y212658D01*
X224546Y211996D01*
X224888Y211404D01*
X225372Y210919D01*
X225965Y210577D01*
X226626Y210400D01*
X227311D01*
X227972Y210577D01*
X228565Y210919D01*
X229049Y211404D01*
X229391Y211996D01*
X229569Y212658D01*
Y213342D01*
X229391Y214004D01*
X229049Y214596D01*
X228565Y215080D01*
X227972Y215423D01*
X227311Y215600D01*
D02*
G37*
G36*
X6314Y213707D02*
X5497D01*
X4709Y213496D01*
X4002Y213088D01*
X3425Y212511D01*
X3017Y211804D01*
X2805Y211015D01*
Y210199D01*
X3017Y209411D01*
X3425Y208704D01*
X4002Y208127D01*
X4709Y207718D01*
X5497Y207507D01*
X6314D01*
X7102Y207718D01*
X7809Y208127D01*
X8386Y208704D01*
X8690Y209231D01*
X9642D01*
X10182Y209007D01*
X10818D01*
X11406Y209251D01*
X11856Y209701D01*
X12100Y210289D01*
Y210926D01*
X11856Y211513D01*
X11406Y211964D01*
X10818Y212207D01*
X10182D01*
X9642Y211984D01*
X8690D01*
X8386Y212511D01*
X7809Y213088D01*
X7102Y213496D01*
X6314Y213707D01*
D02*
G37*
G36*
X27178Y209607D02*
X25106D01*
Y207339D01*
X27178D01*
Y209607D01*
D02*
G37*
G36*
X24106D02*
X22035D01*
Y207339D01*
X24106D01*
Y209607D01*
D02*
G37*
G36*
X70423Y212819D02*
X64498D01*
Y206894D01*
X70423D01*
Y208837D01*
X71487D01*
Y207331D01*
X76625D01*
Y212074D01*
X71487D01*
Y210876D01*
X70423D01*
Y212819D01*
D02*
G37*
G36*
X123711Y208093D02*
X121148D01*
Y204939D01*
X123711D01*
Y208093D01*
D02*
G37*
G36*
X120148D02*
X117584D01*
Y204939D01*
X120148D01*
Y208093D01*
D02*
G37*
G36*
X212366Y207593D02*
X209802D01*
Y204439D01*
X212366D01*
Y207593D01*
D02*
G37*
G36*
X208802D02*
X206239D01*
Y204439D01*
X208802D01*
Y207593D01*
D02*
G37*
G36*
X24025Y205269D02*
X17313D01*
Y204076D01*
X15622D01*
X15082Y204300D01*
X14446D01*
X13858Y204056D01*
X13407Y203606D01*
X13164Y203018D01*
Y202382D01*
X13407Y201794D01*
X13858Y201344D01*
X14446Y201100D01*
X15082D01*
X15622Y201324D01*
X17313D01*
Y200132D01*
X24025D01*
Y205269D01*
D02*
G37*
G36*
X49503Y205469D02*
X47825D01*
Y203200D01*
X49503D01*
Y205469D01*
D02*
G37*
G36*
X70423Y204551D02*
X64498D01*
Y202739D01*
X62435D01*
X61895Y202962D01*
X61258D01*
X60670Y202719D01*
X60220Y202269D01*
X59977Y201681D01*
Y201044D01*
X60220Y200456D01*
X60670Y200006D01*
X61258Y199762D01*
X61895D01*
X62435Y199986D01*
X64498D01*
Y198627D01*
X70423D01*
Y204551D01*
D02*
G37*
G36*
X123711Y203939D02*
X121148D01*
Y200785D01*
X123711D01*
Y203939D01*
D02*
G37*
G36*
X120148D02*
X117584D01*
Y200785D01*
X120148D01*
Y203939D01*
D02*
G37*
G36*
X95951Y202674D02*
Y200774D01*
X96828D01*
Y201396D01*
X96724Y201923D01*
X96425Y202370D01*
X95978Y202669D01*
X95951Y202674D01*
D02*
G37*
G36*
X89045D02*
X89018Y202669D01*
X88571Y202370D01*
X88273Y201923D01*
X88168Y201396D01*
Y200774D01*
X89045D01*
Y202674D01*
D02*
G37*
G36*
X49503Y202200D02*
X47825D01*
Y199932D01*
X49503D01*
Y202200D01*
D02*
G37*
G36*
X212366Y201757D02*
X209803D01*
Y198603D01*
X212366D01*
Y201757D01*
D02*
G37*
G36*
X208803D02*
X206239D01*
Y198603D01*
X208803D01*
Y201757D01*
D02*
G37*
G36*
X62928Y198718D02*
X60856D01*
Y196450D01*
X62928D01*
Y198718D01*
D02*
G37*
G36*
X59856D02*
X57785D01*
Y196450D01*
X59856D01*
Y198718D01*
D02*
G37*
G36*
X31176Y197847D02*
X29104D01*
Y195579D01*
X31176D01*
Y197847D01*
D02*
G37*
G36*
X22650D02*
X20579D01*
Y195579D01*
X22650D01*
Y197847D01*
D02*
G37*
G36*
X19579D02*
X17507D01*
Y195579D01*
X19579D01*
Y197847D01*
D02*
G37*
G36*
X28104D02*
X26032D01*
Y195579D01*
X28104D01*
Y197847D01*
D02*
G37*
G36*
X212366Y197603D02*
X209803D01*
Y194448D01*
X212366D01*
Y197603D01*
D02*
G37*
G36*
X208803D02*
X206239D01*
Y194448D01*
X208803D01*
Y197603D01*
D02*
G37*
G36*
X62928Y195450D02*
X60856D01*
Y193181D01*
X62928D01*
Y195450D01*
D02*
G37*
G36*
X59856D02*
X57785D01*
Y193181D01*
X59856D01*
Y195450D01*
D02*
G37*
G36*
X7208Y201403D02*
X6572D01*
X5983Y201160D01*
X5533Y200710D01*
X5290Y200121D01*
Y199485D01*
X5513Y198945D01*
Y197450D01*
X4321D01*
Y192707D01*
X9458D01*
Y197450D01*
X8266D01*
Y198945D01*
X8490Y199485D01*
Y200121D01*
X8246Y200710D01*
X7796Y201160D01*
X7208Y201403D01*
D02*
G37*
G36*
X31176Y194579D02*
X29104D01*
Y192310D01*
X31176D01*
Y194579D01*
D02*
G37*
G36*
X28104D02*
X26032D01*
Y192310D01*
X28104D01*
Y194579D01*
D02*
G37*
G36*
X22650D02*
X20579D01*
Y192310D01*
X22650D01*
Y194579D01*
D02*
G37*
G36*
X19579D02*
X17507D01*
Y192310D01*
X19579D01*
Y194579D01*
D02*
G37*
G36*
X152534Y193298D02*
X149872D01*
Y191030D01*
X152534D01*
Y193298D01*
D02*
G37*
G36*
X148872D02*
X146210D01*
Y191030D01*
X148872D01*
Y193298D01*
D02*
G37*
G36*
X16151Y197647D02*
X11408D01*
Y192510D01*
X12658D01*
Y191185D01*
X11211D01*
Y189799D01*
X9458D01*
Y191151D01*
X4321D01*
Y186408D01*
X9458D01*
Y187760D01*
X11211D01*
Y186442D01*
X16348D01*
Y187794D01*
X27604D01*
X31300Y184098D01*
X31108Y183636D01*
X16348D01*
Y184886D01*
X11211D01*
Y183636D01*
X9458D01*
Y184886D01*
X4321D01*
Y180142D01*
X9458D01*
Y181393D01*
X11211D01*
Y180142D01*
X16348D01*
Y181393D01*
X26793D01*
X27009Y180901D01*
X26765Y180313D01*
Y179676D01*
X27009Y179088D01*
X27241Y178856D01*
X27034Y178356D01*
X23613D01*
Y172432D01*
X29537D01*
Y174441D01*
X30037Y174517D01*
X31143Y173411D01*
X31474Y173190D01*
X31864Y173113D01*
X35352D01*
X35742Y173190D01*
X36073Y173411D01*
X36184Y173522D01*
X36783D01*
Y173450D01*
X39535D01*
Y173250D01*
X42985D01*
Y178971D01*
X43985D01*
Y173250D01*
X45413D01*
X45604Y172788D01*
X39891Y167075D01*
X39670Y166744D01*
X39592Y166353D01*
Y140572D01*
X39415Y140525D01*
X38708Y140117D01*
X38131Y139540D01*
X37723Y138833D01*
X37512Y138044D01*
Y137228D01*
X37723Y136440D01*
X38131Y135733D01*
X38708Y135156D01*
X39415Y134748D01*
X40204Y134536D01*
X41020D01*
X41135Y134567D01*
X44949Y130753D01*
X45279Y130532D01*
X45670Y130454D01*
X59024D01*
X61251Y128227D01*
X61060Y127765D01*
X58434D01*
Y121841D01*
X62389D01*
Y126329D01*
X62850Y126530D01*
X63158Y126280D01*
Y121841D01*
X67114D01*
Y127765D01*
X64597D01*
X60167Y132195D01*
X59837Y132416D01*
X59446Y132494D01*
X51573D01*
X51549Y132554D01*
X51490Y132994D01*
X52100Y133346D01*
X52678Y133923D01*
X53086Y134630D01*
X53127Y134785D01*
X61962D01*
X68482Y128265D01*
X68274Y127765D01*
X67882D01*
Y121841D01*
X71838D01*
Y127765D01*
X70880D01*
Y128329D01*
X70802Y128719D01*
X70581Y129050D01*
X63105Y136525D01*
X62774Y136747D01*
X62384Y136824D01*
X53139D01*
X53086Y137023D01*
X52678Y137730D01*
X52100Y138307D01*
X51393Y138716D01*
X50605Y138927D01*
X49789D01*
X49000Y138716D01*
X48293Y138307D01*
X47716Y137730D01*
X47523Y137396D01*
X46898Y137314D01*
X46344Y137868D01*
Y166068D01*
X55604Y175328D01*
X55825Y175659D01*
X55903Y176049D01*
Y178401D01*
X55825Y178791D01*
X55604Y179122D01*
X53790Y180937D01*
X53459Y181158D01*
X53069Y181236D01*
X51262D01*
X50872Y181158D01*
X50687Y181035D01*
X50274Y181204D01*
X50187Y181290D01*
Y184492D01*
X48855D01*
X48429Y184918D01*
X48356Y185027D01*
X47770Y185613D01*
X47439Y185834D01*
X47049Y185912D01*
X45570D01*
Y187267D01*
X45627Y187279D01*
X49468D01*
Y192022D01*
X44331D01*
Y189022D01*
X44298Y189000D01*
X43975Y188677D01*
X43650Y188583D01*
X43325Y188677D01*
X43002Y189000D01*
X42968Y189022D01*
Y192022D01*
X37832D01*
Y187279D01*
X41673D01*
X41730Y187267D01*
Y185948D01*
X41694Y185912D01*
X39921D01*
X39531Y185834D01*
X39200Y185613D01*
X38614Y185027D01*
X38541Y184918D01*
X38116Y184492D01*
X36783D01*
Y182648D01*
X35633D01*
X28747Y189534D01*
X28416Y189755D01*
X28026Y189833D01*
X16348D01*
Y191185D01*
X14901D01*
Y192510D01*
X16151D01*
Y197647D01*
D02*
G37*
G36*
X122547Y191581D02*
Y189509D01*
X124816D01*
Y191581D01*
X122547D01*
D02*
G37*
G36*
X228543Y192715D02*
X224500D01*
Y188672D01*
X228543D01*
Y192715D01*
D02*
G37*
G36*
X223500D02*
X219457D01*
Y188672D01*
X223500D01*
Y192715D01*
D02*
G37*
G36*
X152534Y190030D02*
X149872D01*
Y187761D01*
X152534D01*
Y190030D01*
D02*
G37*
G36*
X148872D02*
X146210D01*
Y187761D01*
X148872D01*
Y190030D01*
D02*
G37*
G36*
X124816Y188509D02*
X122547D01*
Y186437D01*
X124816D01*
Y188509D01*
D02*
G37*
G36*
X83477Y187701D02*
X81209D01*
Y185629D01*
X83477D01*
Y187701D01*
D02*
G37*
G36*
X80209D02*
X77940D01*
Y185629D01*
X80209D01*
Y187701D01*
D02*
G37*
G36*
X143517Y187350D02*
X141248D01*
Y185278D01*
X143517D01*
Y187350D01*
D02*
G37*
G36*
X140248D02*
X137979D01*
Y185278D01*
X140248D01*
Y187350D01*
D02*
G37*
G36*
X228543Y187672D02*
X224500D01*
Y183629D01*
X228543D01*
Y187672D01*
D02*
G37*
G36*
X223500D02*
X219457D01*
Y183629D01*
X223500D01*
Y187672D01*
D02*
G37*
G36*
X190996Y189948D02*
X182315D01*
Y183433D01*
X190996D01*
Y189948D01*
D02*
G37*
G36*
X167492D02*
X158811D01*
Y183433D01*
X167492D01*
Y189948D01*
D02*
G37*
G36*
X53387Y185870D02*
X52750D01*
X52162Y185626D01*
X51712Y185176D01*
X51469Y184588D01*
Y183952D01*
X51712Y183364D01*
X52162Y182914D01*
X52750Y182670D01*
X53387D01*
X53975Y182914D01*
X54425Y183364D01*
X54669Y183952D01*
Y184588D01*
X54425Y185176D01*
X53975Y185626D01*
X53387Y185870D01*
D02*
G37*
G36*
X83477Y184629D02*
X81209D01*
Y182557D01*
X83477D01*
Y184629D01*
D02*
G37*
G36*
X80209D02*
X77940D01*
Y182557D01*
X80209D01*
Y184629D01*
D02*
G37*
G36*
X64678Y185046D02*
X61524D01*
Y182482D01*
X64678D01*
Y185046D01*
D02*
G37*
G36*
X60524D02*
X57369D01*
Y182482D01*
X60524D01*
Y185046D01*
D02*
G37*
G36*
X143517Y184278D02*
X141248D01*
Y182206D01*
X143517D01*
Y184278D01*
D02*
G37*
G36*
X140248D02*
X137979D01*
Y182206D01*
X140248D01*
Y184278D01*
D02*
G37*
G36*
X64478Y191933D02*
X57569D01*
Y186205D01*
X64478D01*
Y187693D01*
X65087D01*
X65627Y187469D01*
X66263D01*
X66803Y187693D01*
X69490D01*
Y186264D01*
X67510D01*
Y180930D01*
X74222D01*
Y186264D01*
X72243D01*
Y188211D01*
X72466Y188751D01*
Y189387D01*
X72223Y189975D01*
X71772Y190426D01*
X71184Y190669D01*
X70548D01*
X70008Y190445D01*
X66803D01*
X66263Y190669D01*
X65627D01*
X65087Y190445D01*
X64478D01*
Y191933D01*
D02*
G37*
G36*
X190167Y182425D02*
X185424D01*
Y180927D01*
X179734D01*
Y182425D01*
X174991D01*
Y177288D01*
X175680D01*
X175793Y177156D01*
X175957Y176788D01*
X175762Y176318D01*
Y175682D01*
X176006Y175094D01*
X176456Y174644D01*
X177044Y174400D01*
X177681D01*
X178269Y174644D01*
X178719Y175094D01*
X178962Y175682D01*
Y176318D01*
X178768Y176788D01*
X178931Y177156D01*
X179044Y177288D01*
X179734D01*
Y178786D01*
X185424D01*
Y177288D01*
X190167D01*
Y182425D01*
D02*
G37*
G36*
X173635Y182625D02*
X171563D01*
Y180357D01*
X173635D01*
Y182625D01*
D02*
G37*
G36*
X94873D02*
X92801D01*
Y180357D01*
X94873D01*
Y182625D01*
D02*
G37*
G36*
X170563D02*
X168491D01*
Y180357D01*
X170563D01*
Y182625D01*
D02*
G37*
G36*
X111036Y181936D02*
X108768D01*
Y179865D01*
X111036D01*
Y181936D01*
D02*
G37*
G36*
X107768D02*
X105499D01*
Y179865D01*
X107768D01*
Y181936D01*
D02*
G37*
G36*
X64678Y181482D02*
X61524D01*
Y178919D01*
X64678D01*
Y181482D01*
D02*
G37*
G36*
X60524D02*
X57369D01*
Y178919D01*
X60524D01*
Y181482D01*
D02*
G37*
G36*
X196466Y182425D02*
X191723D01*
Y177288D01*
X196466D01*
Y178480D01*
X197666D01*
X198205Y178257D01*
X198842D01*
X199430Y178500D01*
X199880Y178950D01*
X200124Y179538D01*
Y180175D01*
X199880Y180763D01*
X199430Y181213D01*
X198842Y181457D01*
X198205D01*
X197666Y181233D01*
X196466D01*
Y182425D01*
D02*
G37*
G36*
X173635Y179357D02*
X171563D01*
Y177088D01*
X173635D01*
Y179357D01*
D02*
G37*
G36*
X94873D02*
X92801D01*
Y177088D01*
X94873D01*
Y179357D01*
D02*
G37*
G36*
X91801D02*
X89729D01*
Y177088D01*
X91801D01*
Y179357D01*
D02*
G37*
G36*
X111036Y178865D02*
X108768D01*
Y176793D01*
X111036D01*
Y178865D01*
D02*
G37*
G36*
X107768D02*
X105499D01*
Y176793D01*
X107768D01*
Y178865D01*
D02*
G37*
G36*
X9658Y178787D02*
X7390D01*
Y176715D01*
X9658D01*
Y178787D01*
D02*
G37*
G36*
X6390D02*
X4121D01*
Y176715D01*
X6390D01*
Y178787D01*
D02*
G37*
G36*
X224546Y182315D02*
X223454D01*
X222401Y182033D01*
X221456Y181487D01*
X220685Y180716D01*
X220139Y179771D01*
X219857Y178717D01*
Y177627D01*
X220139Y176573D01*
X220685Y175628D01*
X221456Y174856D01*
X222401Y174311D01*
X223454Y174029D01*
X224546D01*
X225599Y174311D01*
X226544Y174856D01*
X227315Y175628D01*
X227861Y176573D01*
X228143Y177627D01*
Y178717D01*
X227861Y179771D01*
X227315Y180716D01*
X226544Y181487D01*
X225599Y182033D01*
X224546Y182315D01*
D02*
G37*
G36*
X9658Y175715D02*
X7390D01*
Y173643D01*
X9658D01*
Y175715D01*
D02*
G37*
G36*
X6390D02*
X4121D01*
Y173643D01*
X6390D01*
Y175715D01*
D02*
G37*
G36*
X114853Y174899D02*
X107944D01*
Y173424D01*
X106888D01*
X106349Y173647D01*
X105712D01*
X105143Y173412D01*
X104402D01*
Y174899D01*
X97493D01*
Y169171D01*
X104402D01*
Y170659D01*
X105202D01*
X105712Y170447D01*
X106349D01*
X106888Y170671D01*
X107944D01*
Y169171D01*
X114853D01*
Y174899D01*
D02*
G37*
G36*
X143316Y180850D02*
X138180D01*
Y176107D01*
X141606D01*
X144589Y173124D01*
X144270Y172736D01*
X144189Y172790D01*
X143801Y172867D01*
X141248D01*
Y167323D01*
Y161779D01*
X143801D01*
X144189Y161856D01*
X144362Y161972D01*
X144845Y161767D01*
X144862Y161750D01*
Y161000D01*
X145053Y160541D01*
X145512Y160351D01*
X154592D01*
X154648Y160374D01*
X154792Y160277D01*
Y160277D01*
X169378D01*
Y160277D01*
X169522Y160374D01*
X169578Y160351D01*
X179312D01*
X179771Y160541D01*
X179962Y161000D01*
Y163277D01*
X180420Y163478D01*
X184303D01*
Y171370D01*
X173260D01*
Y169784D01*
X172845Y169506D01*
X172809Y169521D01*
X172680D01*
X172560Y169571D01*
X172441Y169521D01*
X172312D01*
X172220Y169430D01*
X172212Y169427D01*
X171712Y169645D01*
Y174803D01*
X171522Y175262D01*
X170196Y176588D01*
X170404Y177088D01*
X170563D01*
Y179357D01*
X168491D01*
X168491Y177088D01*
X168043Y176963D01*
X148478D01*
X148019Y176773D01*
X146347Y175101D01*
X145640D01*
X143316Y177424D01*
Y180850D01*
D02*
G37*
G36*
X74222Y178784D02*
X67510D01*
Y173450D01*
X69007D01*
X69284Y173034D01*
X69266Y172990D01*
Y172353D01*
X69510Y171765D01*
X69960Y171315D01*
X70548Y171072D01*
X71184D01*
X71772Y171315D01*
X72223Y171765D01*
X72466Y172353D01*
Y172990D01*
X72448Y173034D01*
X72726Y173450D01*
X74222D01*
Y178784D01*
D02*
G37*
G36*
X90848Y175122D02*
X90211D01*
X89623Y174878D01*
X89173Y174428D01*
X88929Y173840D01*
Y173203D01*
X88953Y173147D01*
X88619Y172647D01*
X87961D01*
Y167904D01*
X93098D01*
Y172647D01*
X92440D01*
X92106Y173147D01*
X92129Y173203D01*
Y173840D01*
X91886Y174428D01*
X91436Y174878D01*
X90848Y175122D01*
D02*
G37*
G36*
X71445Y167926D02*
X67843D01*
X67382Y167835D01*
X66991Y167574D01*
X66954Y167518D01*
X65016D01*
X64476Y167742D01*
X63840D01*
X63252Y167498D01*
X62801Y167048D01*
X62558Y166460D01*
Y165823D01*
X62801Y165235D01*
X63252Y164785D01*
X63840Y164542D01*
X64476D01*
X65016Y164765D01*
X66954D01*
X66991Y164710D01*
X67017Y164693D01*
Y164091D01*
X66847Y163978D01*
X66542Y163521D01*
X66435Y162982D01*
Y162902D01*
X72853D01*
Y162982D01*
X72746Y163521D01*
X72440Y163978D01*
X72270Y164091D01*
Y164693D01*
X72296Y164710D01*
X72557Y165100D01*
X72649Y165561D01*
Y166722D01*
X72557Y167183D01*
X72296Y167574D01*
X71906Y167835D01*
X71445Y167926D01*
D02*
G37*
G36*
X14279Y168910D02*
Y166839D01*
X16548D01*
Y168910D01*
X14279D01*
D02*
G37*
G36*
X6390Y169402D02*
X3235D01*
Y166839D01*
X6390D01*
Y169402D01*
D02*
G37*
G36*
X115053Y168012D02*
X111898D01*
Y165448D01*
X115053D01*
Y168012D01*
D02*
G37*
G36*
X104602D02*
X101448D01*
Y165448D01*
X104602D01*
Y168012D01*
D02*
G37*
G36*
X110898D02*
X107744D01*
Y165448D01*
X110898D01*
Y168012D01*
D02*
G37*
G36*
X100448D02*
X97293D01*
Y165448D01*
X100448D01*
Y168012D01*
D02*
G37*
G36*
X125702Y167789D02*
X122547D01*
Y165226D01*
X125702D01*
Y167789D01*
D02*
G37*
G36*
X29537Y170088D02*
X23613D01*
Y164164D01*
X29537D01*
Y166303D01*
X31880D01*
Y164951D01*
X37017D01*
Y169694D01*
X31880D01*
Y168342D01*
X29537D01*
Y170088D01*
D02*
G37*
G36*
X59409Y168907D02*
X54272D01*
Y164164D01*
X59409D01*
Y164655D01*
X59909Y164989D01*
X60038Y164935D01*
X60675D01*
X61263Y165179D01*
X61713Y165629D01*
X61956Y166217D01*
Y166854D01*
X61713Y167442D01*
X61263Y167892D01*
X60675Y168135D01*
X60038D01*
X59909Y168082D01*
X59409Y168416D01*
Y168907D01*
D02*
G37*
G36*
X93298Y166548D02*
X91030D01*
Y164476D01*
X93298D01*
Y166548D01*
D02*
G37*
G36*
X90030D02*
X87761D01*
Y164476D01*
X90030D01*
Y166548D01*
D02*
G37*
G36*
X207408Y175772D02*
X206592D01*
X205803Y175560D01*
X205097Y175152D01*
X204519Y174575D01*
X204111Y173868D01*
X203900Y173080D01*
Y172264D01*
X204111Y171475D01*
X204519Y170768D01*
X205097Y170191D01*
X205624Y169887D01*
Y167899D01*
X205400Y167359D01*
Y166722D01*
X205644Y166134D01*
X206094Y165684D01*
X206682Y165441D01*
X207318D01*
X207906Y165684D01*
X208356Y166134D01*
X208600Y166722D01*
Y167359D01*
X208376Y167899D01*
Y169887D01*
X208903Y170191D01*
X209481Y170768D01*
X209785Y171295D01*
X218930D01*
X220254Y169971D01*
X220139Y169771D01*
X219857Y168717D01*
Y167627D01*
X220139Y166573D01*
X220685Y165628D01*
X221456Y164857D01*
X222401Y164311D01*
X223454Y164029D01*
X224546D01*
X225599Y164311D01*
X226544Y164857D01*
X227315Y165628D01*
X227861Y166573D01*
X228143Y167627D01*
Y168717D01*
X227861Y169771D01*
X227315Y170716D01*
X226544Y171487D01*
X225599Y172033D01*
X224546Y172315D01*
X223454D01*
X222401Y172033D01*
X222201Y171918D01*
X220474Y173645D01*
X220027Y173943D01*
X219500Y174048D01*
X209785D01*
X209481Y174575D01*
X208903Y175152D01*
X208196Y175560D01*
X207408Y175772D01*
D02*
G37*
G36*
X16548Y165839D02*
X14279D01*
Y163767D01*
X16548D01*
Y165839D01*
D02*
G37*
G36*
X200051Y171370D02*
X189008D01*
Y163478D01*
X200051D01*
Y171370D01*
D02*
G37*
G36*
X10544Y169402D02*
X7390D01*
Y166339D01*
Y163275D01*
X10544D01*
Y163687D01*
X11011Y163767D01*
X11044Y163767D01*
X13280D01*
Y166339D01*
Y168910D01*
X11044D01*
X11011Y168910D01*
X10544Y168990D01*
Y169402D01*
D02*
G37*
G36*
X6390Y165839D02*
X3235D01*
Y163275D01*
X6390D01*
Y165839D01*
D02*
G37*
G36*
X134441Y162886D02*
X132477D01*
X132526Y162644D01*
X132746Y162313D01*
X133077Y162093D01*
X133466Y162015D01*
X134441D01*
Y162886D01*
D02*
G37*
G36*
X110898Y164448D02*
X107744D01*
Y161885D01*
X110898D01*
Y164448D01*
D02*
G37*
G36*
X104602D02*
X101448D01*
Y161885D01*
X104602D01*
Y164448D01*
D02*
G37*
G36*
X100448D02*
X97293D01*
Y161885D01*
X100448D01*
Y164448D01*
D02*
G37*
G36*
X125702Y164226D02*
X122547D01*
Y161662D01*
X125702D01*
Y164226D01*
D02*
G37*
G36*
X93298Y163476D02*
X91030D01*
Y161405D01*
X93298D01*
Y163476D01*
D02*
G37*
G36*
X90030D02*
X87761D01*
Y161405D01*
X90030D01*
Y163476D01*
D02*
G37*
G36*
X59609Y162808D02*
X57341D01*
Y160736D01*
X59609D01*
Y162808D01*
D02*
G37*
G36*
X56340D02*
X54072D01*
Y160736D01*
X56340D01*
Y162808D01*
D02*
G37*
G36*
X72853Y161902D02*
X66435D01*
Y161821D01*
X66542Y161282D01*
X66847Y160825D01*
X67017Y160712D01*
Y160110D01*
X66991Y160093D01*
X66954Y160038D01*
X65016D01*
X64476Y160261D01*
X63840D01*
X63252Y160018D01*
X62801Y159568D01*
X62558Y158980D01*
Y158343D01*
X62801Y157755D01*
X63252Y157305D01*
X63840Y157061D01*
X64476D01*
X65016Y157285D01*
X66954D01*
X66991Y157229D01*
X67382Y156968D01*
X67843Y156877D01*
X71445D01*
X71906Y156968D01*
X72296Y157229D01*
X72557Y157620D01*
X72649Y158081D01*
Y159242D01*
X72557Y159703D01*
X72296Y160093D01*
X72270Y160110D01*
Y160712D01*
X72440Y160825D01*
X72746Y161282D01*
X72853Y161821D01*
Y161902D01*
D02*
G37*
G36*
X224546Y162315D02*
X223454D01*
X222401Y162033D01*
X221456Y161487D01*
X220685Y160716D01*
X220139Y159771D01*
X220079Y159548D01*
X210356D01*
Y160407D01*
X203644D01*
Y155073D01*
X210356D01*
Y156796D01*
X220079D01*
X220139Y156573D01*
X220685Y155628D01*
X221456Y154857D01*
X222401Y154311D01*
X223454Y154029D01*
X224546D01*
X225599Y154311D01*
X226346Y154743D01*
X229624Y151465D01*
Y138681D01*
X229123Y138347D01*
X228968Y138411D01*
X228332D01*
X228068Y138302D01*
X227569Y138617D01*
Y140954D01*
X221545D01*
X217591Y144909D01*
X217144Y145207D01*
X216618Y145312D01*
X133570D01*
X133044Y145207D01*
X132597Y144909D01*
X130097Y142408D01*
X101736D01*
X101606Y142382D01*
X101106Y142790D01*
Y147193D01*
X94394D01*
Y145312D01*
X89593D01*
Y146307D01*
X88401D01*
Y147638D01*
X88296Y148164D01*
X87998Y148611D01*
X87871Y148738D01*
X88062Y149200D01*
X88595D01*
Y151272D01*
X85827D01*
X83058D01*
Y149998D01*
X81999D01*
X81962Y150054D01*
X81571Y150315D01*
X81110Y150407D01*
X77508D01*
X77047Y150315D01*
X76657Y150054D01*
X76396Y149663D01*
X76304Y149203D01*
Y148041D01*
X76396Y147581D01*
X76657Y147190D01*
X77047Y146929D01*
X77508Y146837D01*
X81110D01*
X81571Y146929D01*
X81962Y147190D01*
X81999Y147246D01*
X85470D01*
X85648Y147068D01*
Y146307D01*
X84456D01*
Y141564D01*
X89593D01*
Y142559D01*
X94394D01*
Y141859D01*
X99963D01*
X100155Y141397D01*
X98783Y140025D01*
X98574Y139713D01*
X94394D01*
Y134379D01*
X101106D01*
Y138230D01*
X101132Y138363D01*
Y138481D01*
X102306Y139655D01*
X130667D01*
X131194Y139760D01*
X131640Y140059D01*
X134141Y142559D01*
X216048D01*
X219282Y139325D01*
Y132668D01*
X226682D01*
X226873Y132206D01*
X225224Y130557D01*
X225024Y130672D01*
X223971Y130954D01*
X222880D01*
X221826Y130672D01*
X220881Y130127D01*
X220110Y129355D01*
X219564Y128410D01*
X219282Y127357D01*
Y126266D01*
X219564Y125212D01*
X220110Y124267D01*
X220881Y123496D01*
X221826Y122950D01*
X222880Y122668D01*
X223971D01*
X225024Y122950D01*
X225224Y123065D01*
X229208Y119081D01*
Y93390D01*
X228708Y93056D01*
X228553Y93120D01*
X227917D01*
X227328Y92876D01*
X226878Y92426D01*
X226672Y91927D01*
X226472Y91865D01*
X226391Y91855D01*
X226149Y91872D01*
X225810Y92460D01*
X225475Y92795D01*
X225311Y93130D01*
X225475Y93465D01*
X225810Y93800D01*
X226202Y94480D01*
X226376Y95130D01*
X223425D01*
Y96130D01*
X226376D01*
X226202Y96780D01*
X225810Y97460D01*
X225475Y97795D01*
X225311Y98130D01*
X225475Y98465D01*
X225810Y98800D01*
X226202Y99480D01*
X226376Y100130D01*
X223425D01*
Y100630D01*
X222925D01*
Y103581D01*
X222275Y103407D01*
X221595Y103015D01*
X221041Y102460D01*
X220952Y102306D01*
X220383Y102321D01*
X220009Y102694D01*
X219421Y103034D01*
X218765Y103210D01*
X218086D01*
X217429Y103034D01*
X216841Y102694D01*
X216361Y102214D01*
X216035Y101649D01*
X211873D01*
X211536Y101986D01*
X210948Y102230D01*
X210312D01*
X209724Y101986D01*
X209274Y101536D01*
X209030Y100948D01*
Y100312D01*
X209274Y99724D01*
X209724Y99274D01*
X210312Y99030D01*
X210948D01*
X211536Y99274D01*
X211873Y99610D01*
X216035D01*
X216361Y99046D01*
X216841Y98565D01*
X217095Y98419D01*
Y97841D01*
X216841Y97694D01*
X216361Y97214D01*
X216057Y96689D01*
X211912D01*
X211536Y97065D01*
X210948Y97309D01*
X210312D01*
X209724Y97065D01*
X209274Y96615D01*
X209030Y96027D01*
Y95390D01*
X209274Y94802D01*
X209724Y94352D01*
X210312Y94109D01*
X210948D01*
X211536Y94352D01*
X211834Y94650D01*
X216017D01*
X216021Y94634D01*
X216361Y94046D01*
X216841Y93565D01*
X217095Y93419D01*
Y92841D01*
X216841Y92694D01*
X216361Y92214D01*
X216057Y91689D01*
X211952D01*
X211576Y92065D01*
X210988Y92309D01*
X210351D01*
X209763Y92065D01*
X209313Y91615D01*
X209069Y91027D01*
Y90390D01*
X209313Y89802D01*
X209763Y89352D01*
X210351Y89109D01*
X210988D01*
X211576Y89352D01*
X211873Y89650D01*
X216017D01*
X216021Y89634D01*
X216361Y89046D01*
X216841Y88565D01*
X217095Y88419D01*
Y87841D01*
X216841Y87694D01*
X216361Y87214D01*
X216035Y86650D01*
X185160D01*
X163230Y108579D01*
X162899Y108800D01*
X162509Y108878D01*
X130464D01*
Y109836D01*
X124540D01*
Y105880D01*
X128919D01*
X129133Y105401D01*
X128906Y105112D01*
X124540D01*
Y101156D01*
X130464D01*
Y103670D01*
X130775Y103980D01*
X149917D01*
X150108Y103518D01*
X148796Y102207D01*
X148637Y102298D01*
X147849Y102509D01*
X147033D01*
X146244Y102298D01*
X145537Y101890D01*
X144960Y101313D01*
X144681Y100829D01*
X144145Y100714D01*
X144069Y100734D01*
X142173Y102630D01*
X141842Y102851D01*
X141452Y102929D01*
X133810D01*
X133420Y102851D01*
X133089Y102630D01*
X130734Y100276D01*
X130464Y100387D01*
Y100387D01*
X124540D01*
Y96431D01*
X130464D01*
Y97676D01*
X130596D01*
X130986Y97753D01*
X131239Y97922D01*
X131513Y97842D01*
X131739Y97690D01*
Y94928D01*
X131516Y94705D01*
X130464D01*
Y95663D01*
X124540D01*
Y91707D01*
X130464D01*
Y92665D01*
X131516D01*
X131852Y92329D01*
X132440Y92085D01*
X133077D01*
X133167Y92122D01*
X133583Y91845D01*
Y90994D01*
X132034D01*
Y89980D01*
X130464D01*
Y90939D01*
X124540D01*
Y86983D01*
X130464D01*
Y87941D01*
X132034D01*
Y86250D01*
X134476D01*
X134602Y86225D01*
X134993Y86195D01*
X135070Y85804D01*
X135291Y85474D01*
X135409Y85356D01*
X135217Y84895D01*
X135102D01*
Y82823D01*
X137569D01*
X137833Y82932D01*
X142943Y77822D01*
Y75563D01*
X142885Y75528D01*
X142443Y75410D01*
X142087Y75766D01*
X141499Y76010D01*
X140863D01*
X140323Y75786D01*
X138395D01*
Y77273D01*
X131487D01*
Y76164D01*
X130464D01*
Y76765D01*
X124540D01*
Y72809D01*
X130464D01*
Y73411D01*
X131487D01*
Y71546D01*
X138395D01*
Y73033D01*
X140323D01*
X140863Y72809D01*
X141031D01*
X142943Y70898D01*
Y68101D01*
X147852D01*
Y65424D01*
X147929Y65034D01*
X148150Y64703D01*
X149181Y63673D01*
Y60568D01*
X154515D01*
Y61428D01*
X165520D01*
Y60568D01*
X170854D01*
Y64327D01*
X165520D01*
Y63467D01*
X154515D01*
Y64327D01*
X151410D01*
X149891Y65847D01*
Y78758D01*
X150232Y79099D01*
X150453Y79430D01*
X150531Y79820D01*
Y80320D01*
X150884Y80673D01*
X151610Y80673D01*
X151676Y80673D01*
X151741Y80665D01*
X151828Y80225D01*
X151828Y80225D01*
Y80225D01*
X151653Y80097D01*
X151473Y79917D01*
X151203Y79646D01*
X150959Y79058D01*
Y78422D01*
X151203Y77834D01*
X151653Y77384D01*
X152241Y77140D01*
X152877D01*
X153465Y77384D01*
X153916Y77834D01*
X154159Y78422D01*
Y78898D01*
X154950Y79689D01*
X155995D01*
X156321Y79124D01*
X156802Y78644D01*
X157056Y78497D01*
Y77920D01*
X156802Y77773D01*
X156321Y77293D01*
X155982Y76705D01*
X155806Y76048D01*
Y75369D01*
X155982Y74713D01*
X156321Y74124D01*
X156802Y73644D01*
X157390Y73304D01*
X158046Y73129D01*
X158726D01*
X159060Y73218D01*
X160271Y72008D01*
X160601Y71787D01*
X160992Y71709D01*
X175925D01*
X176315Y71787D01*
X176646Y72008D01*
X177115Y72476D01*
X177336Y72807D01*
X177413Y73197D01*
Y85780D01*
X177875Y85971D01*
X183938Y79909D01*
X184269Y79688D01*
X184659Y79610D01*
X216035D01*
X216361Y79046D01*
X216841Y78565D01*
X217429Y78226D01*
X218086Y78050D01*
X218765D01*
X219421Y78226D01*
X220009Y78565D01*
X220490Y79046D01*
X220637Y79300D01*
X221214D01*
X221361Y79046D01*
X221841Y78565D01*
X222429Y78226D01*
X223085Y78050D01*
X223765D01*
X224421Y78226D01*
X225009Y78565D01*
X225490Y79046D01*
X225610Y79254D01*
X229706D01*
X230233Y79358D01*
X230679Y79657D01*
X231558Y80535D01*
X231856Y80982D01*
X231961Y81509D01*
Y119651D01*
X231856Y120178D01*
X231558Y120625D01*
X231558Y120625D01*
X227171Y125012D01*
X227286Y125212D01*
X227569Y126266D01*
Y127357D01*
X227286Y128410D01*
X227171Y128610D01*
X231973Y133413D01*
X231973Y133413D01*
X232272Y133859D01*
X232377Y134386D01*
Y152036D01*
X232272Y152562D01*
X231973Y153009D01*
X227977Y157005D01*
X228143Y157626D01*
Y158717D01*
X227861Y159771D01*
X227315Y160716D01*
X226544Y161487D01*
X225599Y162033D01*
X224546Y162315D01*
D02*
G37*
G36*
X59609Y159736D02*
X57341D01*
Y157665D01*
X59609D01*
Y159736D01*
D02*
G37*
G36*
X56340D02*
X54072D01*
Y157665D01*
X56340D01*
Y159736D01*
D02*
G37*
G36*
X81327Y160446D02*
X77724D01*
X77264Y160354D01*
X76873Y160093D01*
X76612Y159703D01*
X76521Y159242D01*
Y158081D01*
X76612Y157620D01*
X76873Y157229D01*
X77264Y156968D01*
X77724Y156877D01*
X81327D01*
X81788Y156968D01*
X82178Y157229D01*
X82439Y157620D01*
X82531Y158081D01*
Y159242D01*
X82439Y159703D01*
X82178Y160093D01*
X81788Y160354D01*
X81327Y160446D01*
D02*
G37*
G36*
Y167926D02*
X77724D01*
X77264Y167835D01*
X76873Y167574D01*
X76612Y167183D01*
X76521Y166722D01*
Y165561D01*
X76612Y165100D01*
X76873Y164710D01*
X77264Y164449D01*
X77724Y164357D01*
X79364D01*
X82938Y160783D01*
X83258Y160442D01*
X83258D01*
X83258Y160442D01*
Y155699D01*
X88395D01*
Y156694D01*
X94394D01*
Y155601D01*
X101106D01*
Y160935D01*
X94394D01*
Y159447D01*
X88395D01*
Y160442D01*
X87048D01*
X86800Y160814D01*
X86800Y160814D01*
X82451Y165163D01*
X82531Y165561D01*
Y166722D01*
X82439Y167183D01*
X82178Y167574D01*
X81788Y167835D01*
X81327Y167926D01*
D02*
G37*
G36*
X37017Y163395D02*
X31880D01*
Y158652D01*
X33085D01*
Y157354D01*
X32861Y156814D01*
Y156178D01*
X33105Y155590D01*
X33555Y155140D01*
X34143Y154896D01*
X34780D01*
X35368Y155140D01*
X35818Y155590D01*
X36061Y156178D01*
Y156814D01*
X35838Y157354D01*
Y158652D01*
X37017D01*
Y163395D01*
D02*
G37*
G36*
X16348Y162411D02*
X11211D01*
Y157668D01*
X12403D01*
Y156432D01*
X12389Y156418D01*
X12146Y155830D01*
Y155194D01*
X12389Y154605D01*
X12839Y154155D01*
X13427Y153912D01*
X14064D01*
X14652Y154155D01*
X15102Y154605D01*
X15346Y155194D01*
Y155830D01*
X15156Y156288D01*
Y157668D01*
X16348D01*
Y162411D01*
D02*
G37*
G36*
X26893Y162624D02*
X26256D01*
X25668Y162380D01*
X25218Y161930D01*
X24975Y161342D01*
Y160705D01*
X25198Y160166D01*
Y158080D01*
X24006D01*
Y153337D01*
X29143D01*
Y158080D01*
X27951D01*
Y160166D01*
X28175Y160705D01*
Y161342D01*
X27931Y161930D01*
X27481Y162380D01*
X26893Y162624D01*
D02*
G37*
G36*
X10344Y162116D02*
X3435D01*
Y156388D01*
X5513D01*
Y155385D01*
X5290Y154846D01*
Y154209D01*
X5533Y153621D01*
X5983Y153171D01*
X6572Y152928D01*
X7208D01*
X7796Y153171D01*
X8246Y153621D01*
X8490Y154209D01*
Y154846D01*
X8266Y155385D01*
Y156388D01*
X10344D01*
Y162116D01*
D02*
G37*
G36*
X88595Y154343D02*
X86327D01*
Y152272D01*
X88595D01*
Y154343D01*
D02*
G37*
G36*
X85327D02*
X83058D01*
Y152272D01*
X85327D01*
Y154343D01*
D02*
G37*
G36*
X71228Y150407D02*
X67626D01*
X67165Y150315D01*
X66775Y150054D01*
X66738Y149998D01*
X65016D01*
X64476Y150222D01*
X63840D01*
X63252Y149978D01*
X62801Y149528D01*
X62558Y148940D01*
Y148304D01*
X62801Y147716D01*
X63252Y147266D01*
X63840Y147022D01*
X64476D01*
X65016Y147246D01*
X66738D01*
X66775Y147190D01*
X66800Y147173D01*
Y146572D01*
X66631Y146458D01*
X66325Y146001D01*
X66218Y145463D01*
Y145382D01*
X72636D01*
Y145463D01*
X72529Y146001D01*
X72224Y146458D01*
X72054Y146572D01*
Y147173D01*
X72080Y147190D01*
X72341Y147581D01*
X72432Y148041D01*
Y149203D01*
X72341Y149663D01*
X72080Y150054D01*
X71689Y150315D01*
X71228Y150407D01*
D02*
G37*
G36*
X29343Y151981D02*
X27075D01*
Y149909D01*
X29343D01*
Y151981D01*
D02*
G37*
G36*
X26075D02*
X23806D01*
Y149909D01*
X26075D01*
Y151981D01*
D02*
G37*
G36*
X59655Y153159D02*
X54518D01*
Y148416D01*
X59655D01*
Y149186D01*
X59785Y149298D01*
X60155Y149464D01*
X60623Y149270D01*
X61259D01*
X61848Y149513D01*
X62298Y149964D01*
X62541Y150552D01*
Y151188D01*
X62298Y151776D01*
X61848Y152226D01*
X61259Y152470D01*
X60623D01*
X60155Y152276D01*
X59785Y152442D01*
X59655Y152554D01*
Y153159D01*
D02*
G37*
G36*
X210356Y152927D02*
X203644D01*
Y147593D01*
X210356D01*
Y148788D01*
X211977D01*
X212517Y148565D01*
X213153D01*
X213741Y148809D01*
X214191Y149259D01*
X214435Y149847D01*
Y150483D01*
X214191Y151071D01*
X213741Y151521D01*
X213153Y151765D01*
X212517D01*
X211977Y151541D01*
X210356D01*
Y152927D01*
D02*
G37*
G36*
X29343Y148909D02*
X27075D01*
Y146838D01*
X29343D01*
Y148909D01*
D02*
G37*
G36*
X26075D02*
X23806D01*
Y146838D01*
X26075D01*
Y148909D01*
D02*
G37*
G36*
X59855Y147060D02*
X57587D01*
Y144988D01*
X59855D01*
Y147060D01*
D02*
G37*
G36*
X56587D02*
X54318D01*
Y144988D01*
X56587D01*
Y147060D01*
D02*
G37*
G36*
X72636Y144382D02*
X66218D01*
Y144301D01*
X66325Y143763D01*
X66631Y143306D01*
X66800Y143192D01*
Y142591D01*
X66775Y142574D01*
X66738Y142518D01*
X65016D01*
X64476Y142742D01*
X63840D01*
X63252Y142498D01*
X62801Y142048D01*
X62558Y141460D01*
Y140823D01*
X62801Y140235D01*
X63252Y139785D01*
X63840Y139542D01*
X64476D01*
X65016Y139765D01*
X66738D01*
X66775Y139710D01*
X67165Y139449D01*
X67626Y139357D01*
X71228D01*
X71689Y139449D01*
X72080Y139710D01*
X72341Y140100D01*
X72432Y140561D01*
Y141722D01*
X72341Y142183D01*
X72080Y142574D01*
X72054Y142591D01*
Y143192D01*
X72224Y143306D01*
X72529Y143763D01*
X72636Y144301D01*
Y144382D01*
D02*
G37*
G36*
X59855Y143988D02*
X57587D01*
Y141917D01*
X59855D01*
Y143988D01*
D02*
G37*
G36*
X56587D02*
X54318D01*
Y141917D01*
X56587D01*
Y143988D01*
D02*
G37*
G36*
X81110Y142926D02*
X77508D01*
X77047Y142835D01*
X76657Y142574D01*
X76396Y142183D01*
X76304Y141722D01*
Y140561D01*
X76396Y140100D01*
X76657Y139710D01*
X77047Y139449D01*
X77508Y139357D01*
X81110D01*
X81571Y139449D01*
X81962Y139710D01*
X82222Y140100D01*
X82314Y140561D01*
Y141722D01*
X82222Y142183D01*
X81962Y142574D01*
X81571Y142835D01*
X81110Y142926D01*
D02*
G37*
G36*
X89793Y140208D02*
X87524D01*
Y138136D01*
X89793D01*
Y140208D01*
D02*
G37*
G36*
X86524D02*
X84256D01*
Y138136D01*
X86524D01*
Y140208D01*
D02*
G37*
G36*
X89793Y137136D02*
X87524D01*
Y135065D01*
X89793D01*
Y137136D01*
D02*
G37*
G36*
X34243Y127965D02*
X32565D01*
Y125303D01*
X34243D01*
Y127965D01*
D02*
G37*
G36*
X76763D02*
X75085D01*
Y125303D01*
X76763D01*
Y127965D01*
D02*
G37*
G36*
X124007D02*
X122329D01*
Y125303D01*
X124007D01*
Y127965D01*
D02*
G37*
G36*
X121329D02*
X119651D01*
Y125303D01*
X121329D01*
Y127965D01*
D02*
G37*
G36*
X31565D02*
X29887D01*
Y125303D01*
X31565D01*
Y127965D01*
D02*
G37*
G36*
X74085D02*
X72407D01*
Y125303D01*
X74085D01*
Y127965D01*
D02*
G37*
G36*
X156121Y127572D02*
X154050D01*
Y125303D01*
X156121D01*
Y127572D01*
D02*
G37*
G36*
X153050D02*
X150978D01*
Y125303D01*
X153050D01*
Y127572D01*
D02*
G37*
G36*
X201041Y125426D02*
X199623D01*
Y122648D01*
X201041D01*
Y125426D01*
D02*
G37*
G36*
X198623D02*
X197205D01*
Y122648D01*
X198623D01*
Y125426D01*
D02*
G37*
G36*
X156121Y124303D02*
X154050D01*
Y122035D01*
X156121D01*
Y124303D01*
D02*
G37*
G36*
X153050D02*
X150978D01*
Y122035D01*
X153050D01*
Y124303D01*
D02*
G37*
G36*
X188435Y124069D02*
X186166D01*
Y121998D01*
X188435D01*
Y124069D01*
D02*
G37*
G36*
X185166D02*
X182897D01*
Y121998D01*
X185166D01*
Y124069D01*
D02*
G37*
G36*
X119082Y127765D02*
X115126D01*
Y121841D01*
X119082D01*
Y127765D01*
D02*
G37*
G36*
X109633D02*
X105677D01*
Y121841D01*
X109633D01*
Y127765D01*
D02*
G37*
G36*
X86524Y137136D02*
X84256D01*
Y135498D01*
X84256Y135100D01*
X84256Y135065D01*
X84170Y134600D01*
X83715Y134600D01*
X83127Y134356D01*
X82677Y133906D01*
X82433Y133318D01*
Y132682D01*
X82677Y132094D01*
X83014Y131757D01*
Y127765D01*
X82055D01*
Y121841D01*
X86011D01*
Y127765D01*
X85053D01*
Y131757D01*
X85390Y132094D01*
X85633Y132682D01*
Y133318D01*
X85390Y133906D01*
X84940Y134356D01*
X84352Y134600D01*
X84437Y135065D01*
X84741Y135065D01*
X84756Y135065D01*
X86524D01*
Y137136D01*
D02*
G37*
G36*
X79627Y131431D02*
X78991D01*
X78403Y131187D01*
X77953Y130737D01*
X77709Y130149D01*
Y129512D01*
X77953Y128924D01*
X78289Y128587D01*
Y127765D01*
X77331D01*
Y121841D01*
X81287D01*
Y127765D01*
X80329D01*
Y128587D01*
X80665Y128924D01*
X80909Y129512D01*
Y130149D01*
X80665Y130737D01*
X80215Y131187D01*
X79627Y131431D01*
D02*
G37*
G36*
X57665Y127765D02*
X53709D01*
Y121841D01*
X57665D01*
Y127765D01*
D02*
G37*
G36*
X52940D02*
X48985D01*
Y121841D01*
X52940D01*
Y127765D01*
D02*
G37*
G36*
X48216D02*
X44260D01*
Y121841D01*
X48216D01*
Y127765D01*
D02*
G37*
G36*
X43492D02*
X39536D01*
Y121841D01*
X43492D01*
Y127765D01*
D02*
G37*
G36*
X38767D02*
X34811D01*
Y121841D01*
X38767D01*
Y127765D01*
D02*
G37*
G36*
X124007Y124303D02*
X122329D01*
Y121641D01*
X124007D01*
Y124303D01*
D02*
G37*
G36*
X121329D02*
X119651D01*
Y121641D01*
X121329D01*
Y124303D01*
D02*
G37*
G36*
X76763D02*
X75085D01*
Y121641D01*
X76763D01*
Y124303D01*
D02*
G37*
G36*
X74085D02*
X72407D01*
Y121641D01*
X74085D01*
Y124303D01*
D02*
G37*
G36*
X34243D02*
X32565D01*
Y121641D01*
X34243D01*
Y124303D01*
D02*
G37*
G36*
X31565D02*
X29887D01*
Y121641D01*
X31565D01*
Y124303D01*
D02*
G37*
G36*
X95460Y127765D02*
X91504D01*
Y121841D01*
X91137Y121519D01*
X91095Y121502D01*
X90736Y121894D01*
X90736Y122286D01*
X90736Y122286D01*
X90736Y122288D01*
Y127765D01*
X86780D01*
Y121841D01*
X86499Y121458D01*
X86118Y121300D01*
X85668Y120850D01*
X85424Y120262D01*
Y119625D01*
X85668Y119037D01*
X86118Y118587D01*
X86706Y118343D01*
X87343D01*
X87931Y118587D01*
X88381Y119037D01*
X88624Y119625D01*
Y120101D01*
X89479Y120956D01*
X89700Y121287D01*
X89777Y121677D01*
Y121808D01*
X90277Y121841D01*
X90572Y121841D01*
X90674Y121369D01*
X90607Y121300D01*
X90605Y121297D01*
X90157Y120850D01*
X89914Y120262D01*
Y119625D01*
X90157Y119037D01*
X90607Y118587D01*
X91195Y118343D01*
X91832D01*
X92420Y118587D01*
X92870Y119037D01*
X93114Y119625D01*
Y120101D01*
X94001Y120989D01*
X94222Y121319D01*
X94300Y121710D01*
Y121841D01*
X95460D01*
Y127765D01*
D02*
G37*
G36*
X142135Y127568D02*
X133455D01*
Y123718D01*
X130926Y121189D01*
X130464Y121380D01*
Y124009D01*
X124540D01*
Y120054D01*
X129031D01*
X129231Y119592D01*
X128982Y119285D01*
X124540D01*
Y115329D01*
X129964D01*
X130462Y115329D01*
X130813Y114974D01*
X130400Y114561D01*
X124540D01*
Y110605D01*
X130464D01*
Y111781D01*
X130585Y111862D01*
X132664Y113941D01*
X133455D01*
Y112195D01*
X142135D01*
Y113941D01*
X144879D01*
Y112768D01*
X149622D01*
Y117905D01*
X144879D01*
Y115980D01*
X142135D01*
Y117726D01*
X133455D01*
Y115980D01*
X132242D01*
X131852Y115903D01*
X131521Y115682D01*
X130819Y114980D01*
X130464Y115332D01*
X130464Y115828D01*
Y117843D01*
X134639Y122018D01*
X136030D01*
X136128Y122038D01*
X142135D01*
Y123784D01*
X144879D01*
Y122235D01*
X149622D01*
Y127372D01*
X144879D01*
Y125823D01*
X142135D01*
Y127568D01*
D02*
G37*
G36*
X188435Y120998D02*
X186166D01*
Y118926D01*
X188435D01*
Y119045D01*
Y120998D01*
D02*
G37*
G36*
X185166D02*
X182897D01*
Y118926D01*
X185166D01*
Y120998D01*
D02*
G37*
G36*
X201041Y121648D02*
X199623D01*
Y118870D01*
X201041D01*
Y119045D01*
Y121648D01*
D02*
G37*
G36*
X198623D02*
X197205D01*
Y118870D01*
X198623D01*
Y121648D01*
D02*
G37*
G36*
X223971Y120954D02*
X222880D01*
X221826Y120672D01*
X220881Y120126D01*
X220110Y119355D01*
X219564Y118410D01*
X219505Y118187D01*
X206107D01*
X205580Y118083D01*
X205133Y117784D01*
X205133Y117784D01*
X204819Y117470D01*
X204444Y117626D01*
Y117626D01*
X201007D01*
Y111470D01*
X204444D01*
Y113325D01*
X204817Y113575D01*
X206677Y115435D01*
X219505D01*
X219564Y115212D01*
X220110Y114267D01*
X220881Y113496D01*
X221826Y112950D01*
X222880Y112668D01*
X223971D01*
X225024Y112950D01*
X225969Y113496D01*
X226741Y114267D01*
X227286Y115212D01*
X227569Y116265D01*
Y117357D01*
X227286Y118410D01*
X226741Y119355D01*
X225969Y120126D01*
X225024Y120672D01*
X223971Y120954D01*
D02*
G37*
G36*
X100185Y127765D02*
X96229D01*
Y121841D01*
X96552D01*
X96607Y121759D01*
Y121123D01*
X96830Y120583D01*
Y120415D01*
X92752Y116337D01*
X64702D01*
X60971Y120068D01*
X60524Y120366D01*
X59998Y120471D01*
X32263D01*
X31724Y120694D01*
X31087D01*
X30499Y120451D01*
X30049Y120001D01*
X29805Y119413D01*
Y118776D01*
X30049Y118188D01*
X30499Y117738D01*
X31087Y117494D01*
X31724D01*
X32263Y117718D01*
X59427D01*
X63158Y113987D01*
X63605Y113689D01*
X64131Y113584D01*
X93322D01*
X93849Y113689D01*
X94296Y113987D01*
X99278Y118970D01*
X99577Y119417D01*
X99682Y119943D01*
X99682Y119943D01*
Y120079D01*
X99682Y120079D01*
X99583Y120573D01*
Y120583D01*
X99807Y121123D01*
Y121759D01*
X99861Y121841D01*
X100185D01*
Y127765D01*
D02*
G37*
G36*
X156121Y118105D02*
X154050D01*
Y115837D01*
X156121D01*
Y118105D01*
D02*
G37*
G36*
X153050D02*
X150978D01*
Y115837D01*
X153050D01*
Y118105D01*
D02*
G37*
G36*
X156121Y114837D02*
X154050D01*
Y112568D01*
X156121D01*
Y114837D01*
D02*
G37*
G36*
X153050D02*
X150978D01*
Y112568D01*
X153050D01*
Y114837D01*
D02*
G37*
G36*
X116142Y134159D02*
X115615Y134054D01*
X115168Y133755D01*
X115168Y133755D01*
X111407Y129994D01*
X111108Y129547D01*
X111003Y129020D01*
Y127765D01*
X110402D01*
Y121841D01*
X114358D01*
Y127765D01*
X113756D01*
Y128450D01*
X116712Y131406D01*
X161477D01*
X178851Y114031D01*
X179298Y113732D01*
X179825Y113628D01*
X183098D01*
Y112827D01*
X188234D01*
Y113822D01*
X193803D01*
Y111470D01*
X197239D01*
Y117626D01*
X193803D01*
Y116575D01*
X188234D01*
Y117570D01*
X183098D01*
Y116380D01*
X180395D01*
X163020Y133755D01*
X162573Y134054D01*
X162047Y134159D01*
X116142D01*
X116142Y134159D01*
D02*
G37*
G36*
X104909Y127765D02*
X100953D01*
Y121841D01*
X101911D01*
Y116433D01*
X101989Y116043D01*
X102210Y115712D01*
X104764Y113158D01*
Y112682D01*
X105008Y112094D01*
X105458Y111644D01*
X106046Y111400D01*
X106683D01*
X107271Y111644D01*
X107721Y112094D01*
X107964Y112682D01*
Y113318D01*
X107721Y113906D01*
X107271Y114356D01*
X106683Y114600D01*
X106206D01*
X103951Y116856D01*
Y121841D01*
X104909D01*
Y127765D01*
D02*
G37*
G36*
X61577Y107275D02*
X57341D01*
Y103038D01*
X61577D01*
Y107275D01*
D02*
G37*
G36*
X47608D02*
X43371D01*
Y103038D01*
X47608D01*
Y107275D01*
D02*
G37*
G36*
X112337Y106464D02*
X108100D01*
Y102227D01*
X112337D01*
Y106464D01*
D02*
G37*
G36*
X101097D02*
X96860D01*
Y102227D01*
X101097D01*
Y106464D01*
D02*
G37*
G36*
X107100D02*
X102863D01*
Y102227D01*
X107100D01*
Y106464D01*
D02*
G37*
G36*
X95860D02*
X91623D01*
Y102227D01*
X95860D01*
Y106464D01*
D02*
G37*
G36*
X223925Y103581D02*
Y101130D01*
X226376D01*
X226202Y101780D01*
X225810Y102460D01*
X225255Y103015D01*
X224575Y103407D01*
X223925Y103581D01*
D02*
G37*
G36*
X112337Y101227D02*
X108100D01*
Y96990D01*
X112337D01*
Y101227D01*
D02*
G37*
G36*
X107100D02*
X102863D01*
Y96990D01*
X107100D01*
Y101227D01*
D02*
G37*
G36*
X101097D02*
X96860D01*
Y96990D01*
X101097D01*
Y101227D01*
D02*
G37*
G36*
X95860D02*
X91623D01*
Y96990D01*
X95860D01*
Y101227D01*
D02*
G37*
G36*
X112337Y94952D02*
X108100D01*
Y90715D01*
X112337D01*
Y94952D01*
D02*
G37*
G36*
X101097D02*
X96860D01*
Y90715D01*
X101097D01*
Y94952D01*
D02*
G37*
G36*
X107100D02*
X102863D01*
Y90715D01*
X107100D01*
Y94952D01*
D02*
G37*
G36*
X95860D02*
X91623D01*
Y90715D01*
X95860D01*
Y94952D01*
D02*
G37*
G36*
X61577Y93447D02*
X57341D01*
Y89210D01*
X61577D01*
Y93447D01*
D02*
G37*
G36*
X56340Y107275D02*
X48608D01*
Y102538D01*
X48108D01*
Y102038D01*
X43371D01*
Y97801D01*
Y94447D01*
X48108D01*
Y93947D01*
X48608D01*
Y89210D01*
X56340D01*
Y93947D01*
X56840D01*
Y94447D01*
X61577D01*
Y97801D01*
Y102038D01*
X56840D01*
Y102538D01*
X56340D01*
Y107275D01*
D02*
G37*
G36*
X47608Y93447D02*
X43371D01*
Y89210D01*
X47608D01*
Y93447D01*
D02*
G37*
G36*
X112337Y89715D02*
X108100D01*
Y85478D01*
X112337D01*
Y89715D01*
D02*
G37*
G36*
X107100D02*
X102863D01*
Y85478D01*
X107100D01*
Y89715D01*
D02*
G37*
G36*
X101097D02*
X96860D01*
Y85478D01*
X101097D01*
Y89715D01*
D02*
G37*
G36*
X95860D02*
X91623D01*
Y85478D01*
X95860D01*
Y89715D01*
D02*
G37*
G36*
X134102Y84895D02*
X131834D01*
Y82823D01*
X134102D01*
Y84895D01*
D02*
G37*
G36*
X130464Y86214D02*
X124540D01*
Y82258D01*
X130464D01*
Y86214D01*
D02*
G37*
G36*
Y81490D02*
X124540D01*
Y80200D01*
X123290D01*
X122954Y80537D01*
X122365Y80780D01*
X121729D01*
X121141Y80537D01*
X120691Y80086D01*
X120447Y79498D01*
Y78862D01*
X120691Y78274D01*
X121141Y77824D01*
X121729Y77580D01*
X122365D01*
X122954Y77824D01*
X123290Y78161D01*
X124540D01*
Y77534D01*
X130464D01*
Y81490D01*
D02*
G37*
G36*
X137371Y81823D02*
X135102D01*
Y79751D01*
X137371D01*
Y81823D01*
D02*
G37*
G36*
X134102D02*
X131834D01*
Y79751D01*
X134102D01*
Y81823D01*
D02*
G37*
G36*
X34243Y75209D02*
X32565D01*
Y72547D01*
X34243D01*
Y75209D01*
D02*
G37*
G36*
X109833D02*
X108156D01*
Y72547D01*
X109833D01*
Y75209D01*
D02*
G37*
G36*
X76763D02*
X75085D01*
Y72547D01*
X76763D01*
Y75209D01*
D02*
G37*
G36*
X124007D02*
X122329D01*
Y72547D01*
X124007D01*
Y75209D01*
D02*
G37*
G36*
X121329D02*
X119651D01*
Y72547D01*
X121329D01*
Y75209D01*
D02*
G37*
G36*
X31565D02*
X29887D01*
Y72547D01*
X31565D01*
Y75209D01*
D02*
G37*
G36*
X107156D02*
X105477D01*
Y72547D01*
X107156D01*
Y75209D01*
D02*
G37*
G36*
X74085D02*
X72407D01*
Y72547D01*
X74085D01*
Y75209D01*
D02*
G37*
G36*
X119082Y75010D02*
X115126D01*
Y69085D01*
X119082D01*
Y75010D01*
D02*
G37*
G36*
X114358D02*
X110402D01*
Y69085D01*
X114358D01*
Y75010D01*
D02*
G37*
G36*
X100185D02*
X96229D01*
Y69085D01*
X100185D01*
Y75010D01*
D02*
G37*
G36*
X95460D02*
X91504D01*
Y69085D01*
X95460D01*
Y75010D01*
D02*
G37*
G36*
X90736D02*
X86780D01*
Y69085D01*
X90736D01*
Y75010D01*
D02*
G37*
G36*
X71838D02*
X67882D01*
Y69085D01*
X71838D01*
Y75010D01*
D02*
G37*
G36*
X65279Y78372D02*
X64642D01*
X64054Y78128D01*
X63604Y77678D01*
X63361Y77090D01*
Y76453D01*
X63604Y75865D01*
X63941Y75529D01*
Y75010D01*
X63158D01*
Y69085D01*
X67114D01*
Y75010D01*
X65980D01*
Y75529D01*
X66317Y75865D01*
X66561Y76453D01*
Y77090D01*
X66317Y77678D01*
X65867Y78128D01*
X65279Y78372D01*
D02*
G37*
G36*
X57665Y75010D02*
X53709D01*
Y69085D01*
X57665D01*
Y75010D01*
D02*
G37*
G36*
X52940D02*
X48985D01*
Y69085D01*
X52940D01*
Y75010D01*
D02*
G37*
G36*
X48216D02*
X44260D01*
Y69085D01*
X48216D01*
Y75010D01*
D02*
G37*
G36*
X43492D02*
X39536D01*
Y69085D01*
X43492D01*
Y75010D01*
D02*
G37*
G36*
X38767D02*
X34811D01*
Y69085D01*
X38767D01*
Y75010D01*
D02*
G37*
G36*
X124007Y71547D02*
X122329D01*
Y68885D01*
X124007D01*
Y71547D01*
D02*
G37*
G36*
X121329D02*
X119651D01*
Y68885D01*
X121329D01*
Y71547D01*
D02*
G37*
G36*
X109833D02*
X108156D01*
Y68885D01*
X109833D01*
Y71547D01*
D02*
G37*
G36*
X107156D02*
X105477D01*
Y68885D01*
X107156D01*
Y71547D01*
D02*
G37*
G36*
X76763D02*
X75085D01*
Y68885D01*
X76763D01*
Y71547D01*
D02*
G37*
G36*
X74085D02*
X72407D01*
Y68885D01*
X74085D01*
Y71547D01*
D02*
G37*
G36*
X34243D02*
X32565D01*
Y68885D01*
X34243D01*
Y71547D01*
D02*
G37*
G36*
X31565D02*
X29887D01*
Y68885D01*
X31565D01*
Y71547D01*
D02*
G37*
G36*
X138595Y70387D02*
X135441D01*
Y67823D01*
X138595D01*
Y70387D01*
D02*
G37*
G36*
X134441D02*
X131287D01*
Y67823D01*
X134441D01*
Y70387D01*
D02*
G37*
G36*
X74520Y67631D02*
X71957D01*
Y64476D01*
X74520D01*
Y67631D01*
D02*
G37*
G36*
X70957D02*
X68393D01*
Y64476D01*
X70957D01*
Y67631D01*
D02*
G37*
G36*
X138595Y66823D02*
X135441D01*
Y64259D01*
X138595D01*
Y66823D01*
D02*
G37*
G36*
X134441D02*
X131287D01*
Y64259D01*
X134441D01*
Y66823D01*
D02*
G37*
G36*
X46860Y66960D02*
X41723D01*
Y62217D01*
X46860D01*
Y63787D01*
X46981Y63868D01*
X47054Y63941D01*
X47969D01*
X48306Y63604D01*
X48894Y63361D01*
X49531D01*
X50119Y63604D01*
X50569Y64054D01*
X50813Y64642D01*
Y65279D01*
X50569Y65867D01*
X50119Y66317D01*
X49531Y66561D01*
X48894D01*
X48306Y66317D01*
X47969Y65980D01*
X46860D01*
Y66960D01*
D02*
G37*
G36*
X86011Y75010D02*
X82055D01*
Y69085D01*
X83014D01*
Y66960D01*
X81465D01*
Y62217D01*
X86602D01*
Y66960D01*
X85053D01*
Y69085D01*
X86011D01*
Y75010D01*
D02*
G37*
G36*
X62389D02*
X58434D01*
Y69085D01*
X59035D01*
Y68440D01*
X58365Y67771D01*
X58067Y67324D01*
X57962Y66797D01*
Y64834D01*
X57739Y64295D01*
Y63658D01*
X57982Y63070D01*
X58432Y62620D01*
X59021Y62376D01*
X59657D01*
X60197Y62600D01*
X61506D01*
Y60522D01*
X67234D01*
Y67431D01*
X62094D01*
X61777Y67817D01*
X61788Y67870D01*
Y69085D01*
X62389D01*
Y75010D01*
D02*
G37*
G36*
X74520Y63476D02*
X71957D01*
Y60322D01*
X74520D01*
Y63476D01*
D02*
G37*
G36*
X70957D02*
X68393D01*
Y60322D01*
X70957D01*
Y63476D01*
D02*
G37*
G36*
X104909Y75010D02*
X100953D01*
Y69085D01*
X101555D01*
Y64183D01*
X100756D01*
Y59833D01*
X105106D01*
Y64183D01*
X104307D01*
Y69085D01*
X104909D01*
Y75010D01*
D02*
G37*
G36*
X113395Y58868D02*
X108652D01*
Y57479D01*
X105106D01*
Y58277D01*
X100756D01*
Y53928D01*
X105106D01*
Y54726D01*
X108652D01*
Y53731D01*
X113395D01*
Y58868D01*
D02*
G37*
G36*
X79309Y75429D02*
X78919Y75351D01*
X78588Y75130D01*
X78507Y75010D01*
X77331D01*
Y69085D01*
X78289D01*
Y57319D01*
X54734D01*
Y58671D01*
X49597D01*
Y53928D01*
X54734D01*
Y55280D01*
X78105D01*
X78323Y54780D01*
X78124Y54301D01*
Y53665D01*
X78368Y53077D01*
X78818Y52627D01*
X79406Y52383D01*
X80043D01*
X80631Y52627D01*
X81081Y53077D01*
X81324Y53665D01*
Y54301D01*
X81314Y54325D01*
X82907Y55918D01*
X86602D01*
Y60661D01*
X81465D01*
Y57360D01*
X80812Y56707D01*
X80754Y56714D01*
X80329Y56930D01*
Y69085D01*
X81287D01*
Y75010D01*
X80111D01*
X80030Y75130D01*
X79699Y75351D01*
X79309Y75429D01*
D02*
G37*
G36*
X31814Y67545D02*
X31178D01*
X30590Y67301D01*
X30140Y66851D01*
X29896Y66263D01*
Y65627D01*
X30140Y65039D01*
X30590Y64588D01*
X31178Y64345D01*
X31284D01*
X31860Y63770D01*
Y60480D01*
X31880Y60377D01*
Y56787D01*
X31636Y56670D01*
X31288Y56438D01*
X31288Y56438D01*
X30673Y55823D01*
X30441Y55476D01*
X30360Y55066D01*
Y54827D01*
X23847Y48315D01*
X19655D01*
X19621Y48441D01*
X19213Y49147D01*
X18636Y49725D01*
X17929Y50133D01*
X17140Y50344D01*
X16324D01*
X15536Y50133D01*
X14829Y49725D01*
X14252Y49147D01*
X13844Y48441D01*
X13632Y47652D01*
Y46836D01*
X13844Y46047D01*
X14252Y45341D01*
X14367Y45226D01*
X14175Y44764D01*
X12248D01*
X11858Y44686D01*
X11527Y44465D01*
X7261Y40199D01*
X7102Y40290D01*
X6314Y40502D01*
X5497D01*
X4709Y40290D01*
X4002Y39882D01*
X3425Y39305D01*
X3017Y38598D01*
X2805Y37810D01*
Y36994D01*
X3017Y36205D01*
X3425Y35498D01*
X4002Y34921D01*
X4709Y34513D01*
X5497Y34302D01*
X6314D01*
X7102Y34513D01*
X7809Y34921D01*
X8386Y35498D01*
X8794Y36205D01*
X9005Y36994D01*
Y37810D01*
X8794Y38598D01*
X8703Y38757D01*
X12670Y42724D01*
X20112D01*
X20155Y42610D01*
X20195Y42224D01*
X19948Y42059D01*
X18088Y40199D01*
X17929Y40290D01*
X17140Y40502D01*
X16324D01*
X15536Y40290D01*
X14829Y39882D01*
X14252Y39305D01*
X13844Y38598D01*
X13632Y37810D01*
Y36994D01*
X13844Y36205D01*
X14252Y35498D01*
X14829Y34921D01*
X15536Y34513D01*
X16324Y34302D01*
X17140D01*
X17929Y34513D01*
X18636Y34921D01*
X19213Y35498D01*
X19621Y36205D01*
X19832Y36994D01*
Y37810D01*
X19621Y38598D01*
X19529Y38757D01*
X21092Y40319D01*
X33206D01*
X33542Y39982D01*
X34131Y39739D01*
X34767D01*
X35355Y39982D01*
X35692Y40319D01*
X46775D01*
X47166Y40397D01*
X47496Y40618D01*
X52886Y46007D01*
X53107Y46338D01*
X53185Y46729D01*
Y47628D01*
X54734D01*
Y52372D01*
X49597D01*
Y47628D01*
X51092D01*
X51123Y47128D01*
X46353Y42358D01*
X35692D01*
X35355Y42695D01*
X34767Y42939D01*
X34131D01*
X33542Y42695D01*
X33206Y42358D01*
X24616D01*
X24573Y42472D01*
X24533Y42858D01*
X24780Y43023D01*
X26997Y45240D01*
X34449D01*
X34839Y45318D01*
X35170Y45539D01*
X40091Y50460D01*
X40312Y50791D01*
X40390Y51181D01*
Y58227D01*
X40613Y58451D01*
X41723D01*
Y55918D01*
X46860D01*
Y60661D01*
X41723D01*
Y60490D01*
X40613D01*
X40276Y60827D01*
X39688Y61071D01*
X39052D01*
X38464Y60827D01*
X38014Y60377D01*
X37770Y59789D01*
Y59152D01*
X38014Y58564D01*
X38350Y58227D01*
Y51603D01*
X37517Y50770D01*
X37017Y50977D01*
Y55231D01*
X34445D01*
X34254Y55693D01*
X34368Y55807D01*
X34600Y56155D01*
X34681Y56564D01*
Y56787D01*
X37017D01*
Y61530D01*
X34001D01*
Y64213D01*
X34001Y64213D01*
X33919Y64623D01*
X33687Y64970D01*
X33687Y64970D01*
X33077Y65580D01*
X33096Y65627D01*
Y66263D01*
X32853Y66851D01*
X32402Y67301D01*
X31814Y67545D01*
D02*
G37*
G36*
X119694Y58868D02*
X114951D01*
Y53731D01*
X119694D01*
Y54923D01*
X121615D01*
X122138Y54706D01*
X122775D01*
X123363Y54949D01*
X123813Y55400D01*
X124057Y55988D01*
Y56624D01*
X123813Y57212D01*
X123363Y57662D01*
X122775Y57906D01*
X122138D01*
X121583Y57676D01*
X119694D01*
Y58868D01*
D02*
G37*
G36*
X171054Y56063D02*
X168687D01*
Y54483D01*
X171054D01*
Y56063D01*
D02*
G37*
G36*
X154715D02*
X152348D01*
Y54483D01*
X154715D01*
Y56063D01*
D02*
G37*
G36*
X151348D02*
X148981D01*
Y54483D01*
X151348D01*
Y56063D01*
D02*
G37*
G36*
X167687D02*
X165320D01*
Y54483D01*
X167687D01*
Y56063D01*
D02*
G37*
G36*
X139985Y61639D02*
X139349D01*
X138760Y61396D01*
X138310Y60946D01*
X138067Y60358D01*
Y59721D01*
X138310Y59133D01*
X138647Y58796D01*
Y57588D01*
X136311D01*
Y52254D01*
X143023D01*
Y57588D01*
X140686D01*
Y58796D01*
X141023Y59133D01*
X141267Y59721D01*
Y60358D01*
X141023Y60946D01*
X140573Y61396D01*
X139985Y61639D01*
D02*
G37*
G36*
X128985D02*
X128349D01*
X127761Y61396D01*
X127310Y60946D01*
X127067Y60358D01*
Y59721D01*
X127310Y59133D01*
X127647Y58796D01*
Y57588D01*
X125311D01*
Y52254D01*
X132023D01*
Y57588D01*
X129686D01*
Y58796D01*
X130023Y59133D01*
X130267Y59721D01*
Y60358D01*
X130023Y60946D01*
X129573Y61396D01*
X128985Y61639D01*
D02*
G37*
G36*
X171054Y53483D02*
X168687D01*
Y51903D01*
X171054D01*
Y53483D01*
D02*
G37*
G36*
X167687D02*
X165320D01*
Y51903D01*
X167687D01*
Y53483D01*
D02*
G37*
G36*
X154715D02*
X152348D01*
Y51903D01*
X154715D01*
Y53483D01*
D02*
G37*
G36*
X151348D02*
X148981D01*
Y51903D01*
X151348D01*
Y53483D01*
D02*
G37*
G36*
X6406Y50526D02*
Y47744D01*
X9188D01*
X8981Y48518D01*
X8546Y49270D01*
X7932Y49885D01*
X7179Y50319D01*
X6406Y50526D01*
D02*
G37*
G36*
X5406D02*
X4632Y50319D01*
X3879Y49885D01*
X3265Y49270D01*
X2830Y48518D01*
X2623Y47744D01*
X5406D01*
Y50526D01*
D02*
G37*
G36*
X9188Y46744D02*
X6406D01*
Y43962D01*
X7179Y44169D01*
X7932Y44603D01*
X8546Y45218D01*
X8981Y45970D01*
X9188Y46744D01*
D02*
G37*
G36*
X5406D02*
X2623D01*
X2830Y45970D01*
X3265Y45218D01*
X3879Y44603D01*
X4632Y44169D01*
X5406Y43962D01*
Y46744D01*
D02*
G37*
G36*
X104026Y37769D02*
X101955D01*
Y35500D01*
X104026D01*
Y37769D01*
D02*
G37*
G36*
X100955D02*
X98883D01*
Y35500D01*
X100955D01*
Y37769D01*
D02*
G37*
G36*
X125222Y33765D02*
X119691D01*
Y32376D01*
X118181D01*
X117641Y32600D01*
X117005D01*
X116417Y32356D01*
X115966Y31906D01*
X115723Y31318D01*
Y30682D01*
X115966Y30094D01*
X116417Y29644D01*
X117005Y29400D01*
X117641D01*
X118181Y29623D01*
X119691D01*
Y28235D01*
X125222D01*
Y33765D01*
D02*
G37*
G36*
X104026Y34500D02*
X101955D01*
Y32232D01*
X104026D01*
Y34500D01*
D02*
G37*
G36*
X100955D02*
X98883D01*
Y32232D01*
X100955D01*
Y34500D01*
D02*
G37*
G36*
X148309Y33765D02*
X142778D01*
Y28235D01*
X148309D01*
Y29624D01*
X150774D01*
X151313Y29400D01*
X151950D01*
X152538Y29644D01*
X152988Y30094D01*
X153232Y30682D01*
Y31318D01*
X152988Y31906D01*
X152538Y32356D01*
X151950Y32600D01*
X151313D01*
X150774Y32377D01*
X148309D01*
Y33765D01*
D02*
G37*
G36*
X104322Y30048D02*
X101660D01*
Y29059D01*
X104322D01*
Y30048D01*
D02*
G37*
G36*
X6406Y31826D02*
Y29043D01*
X9188D01*
X8981Y29817D01*
X8546Y30570D01*
X7932Y31184D01*
X7179Y31618D01*
X6406Y31826D01*
D02*
G37*
G36*
X5406Y31826D02*
X4632Y31618D01*
X3879Y31184D01*
X3265Y30570D01*
X2830Y29817D01*
X2623Y29043D01*
X5406D01*
Y31826D01*
D02*
G37*
G36*
X17140Y31643D02*
X16324D01*
X15536Y31432D01*
X14829Y31024D01*
X14252Y30447D01*
X13844Y29740D01*
X13632Y28951D01*
Y28135D01*
X13844Y27347D01*
X14252Y26640D01*
X14829Y26063D01*
X15536Y25655D01*
X16324Y25443D01*
X17140D01*
X17929Y25655D01*
X18636Y26063D01*
X19213Y26640D01*
X19517Y27167D01*
X23201D01*
X23741Y26943D01*
X24377D01*
X24965Y27187D01*
X25416Y27637D01*
X25659Y28225D01*
Y28862D01*
X25416Y29450D01*
X24965Y29900D01*
X24377Y30143D01*
X23741D01*
X23201Y29920D01*
X19517D01*
X19213Y30447D01*
X18636Y31024D01*
X17929Y31432D01*
X17140Y31643D01*
D02*
G37*
G36*
X9188Y28043D02*
X6406D01*
Y25261D01*
X7179Y25468D01*
X7932Y25903D01*
X8546Y26517D01*
X8981Y27270D01*
X9188Y28043D01*
D02*
G37*
G36*
X5406D02*
X2623D01*
X2830Y27270D01*
X3265Y26517D01*
X3879Y25903D01*
X4632Y25468D01*
X5406Y25261D01*
Y28043D01*
D02*
G37*
G36*
X17140Y22785D02*
X16324D01*
X15536Y22574D01*
X14829Y22166D01*
X14252Y21588D01*
X13844Y20882D01*
X13632Y20093D01*
Y19277D01*
X13844Y18488D01*
X14252Y17782D01*
X14829Y17204D01*
X15536Y16796D01*
X16324Y16585D01*
X17140D01*
X17929Y16796D01*
X18636Y17204D01*
X19213Y17782D01*
X19517Y18309D01*
X23201D01*
X23741Y18085D01*
X24377D01*
X24965Y18329D01*
X25416Y18779D01*
X25659Y19367D01*
Y20003D01*
X25416Y20591D01*
X24965Y21042D01*
X24377Y21285D01*
X23741D01*
X23201Y21061D01*
X19517D01*
X19213Y21588D01*
X18636Y22166D01*
X17929Y22574D01*
X17140Y22785D01*
D02*
G37*
G36*
X153543Y16543D02*
X149500D01*
Y12500D01*
X153543D01*
Y16543D01*
D02*
G37*
G36*
X148500D02*
X144457D01*
Y12500D01*
X148500D01*
Y16543D01*
D02*
G37*
G36*
X143023Y50108D02*
X136311D01*
Y44774D01*
X138647D01*
Y41100D01*
X138049D01*
X137260Y40889D01*
X136553Y40481D01*
X135976Y39903D01*
X135568Y39197D01*
X135357Y38408D01*
Y37592D01*
X135568Y36803D01*
X135976Y36097D01*
X136553Y35519D01*
X137260Y35111D01*
X137437Y35064D01*
Y33765D01*
X135691D01*
Y28235D01*
X137980D01*
Y16016D01*
X137401Y15861D01*
X136456Y15315D01*
X135685Y14544D01*
X135139Y13599D01*
X134857Y12546D01*
Y11455D01*
X135139Y10401D01*
X135439Y9881D01*
X134034Y8476D01*
X132043D01*
X131836Y8976D01*
X132316Y9456D01*
X132861Y10401D01*
X133143Y11455D01*
Y12546D01*
X132861Y13599D01*
X132316Y14544D01*
X131544Y15315D01*
X130599Y15861D01*
X130563Y15871D01*
Y23441D01*
Y28235D01*
X132309D01*
Y33765D01*
X130563D01*
Y34900D01*
X130761D01*
X131549Y35111D01*
X132256Y35519D01*
X132833Y36097D01*
X133241Y36803D01*
X133452Y37592D01*
Y38408D01*
X133241Y39197D01*
X132833Y39903D01*
X132256Y40481D01*
X131549Y40889D01*
X131372Y40936D01*
Y43688D01*
X131294Y44079D01*
X131164Y44274D01*
X131359Y44774D01*
X132023D01*
Y50108D01*
X125311D01*
Y44774D01*
X127865D01*
X127946Y44653D01*
X129333Y43266D01*
Y40936D01*
X129156Y40889D01*
X128449Y40481D01*
X127872Y39903D01*
X127464Y39197D01*
X127252Y38408D01*
Y37592D01*
X127464Y36803D01*
X127872Y36097D01*
X128449Y35519D01*
X128524Y35476D01*
Y33765D01*
X126778D01*
Y28235D01*
X128524D01*
Y24461D01*
X104122D01*
Y27070D01*
X104322D01*
Y28059D01*
X101160D01*
Y28559D01*
X100660D01*
Y30048D01*
X97997D01*
Y29848D01*
X95694D01*
X95503Y30310D01*
X95912Y30720D01*
X96145Y31067D01*
X96226Y31477D01*
Y32432D01*
X97527D01*
Y37569D01*
X92784D01*
Y36376D01*
X90858D01*
X90318Y36600D01*
X89682D01*
X89094Y36356D01*
X88644Y35906D01*
X88400Y35318D01*
Y34682D01*
X88644Y34094D01*
X89094Y33644D01*
X89682Y33400D01*
X90318D01*
X90858Y33624D01*
X92784D01*
Y32432D01*
X94085D01*
Y31920D01*
X93833Y31669D01*
X91406D01*
X91406Y31669D01*
X90996Y31587D01*
X90649Y31355D01*
X90122Y30828D01*
X89890Y30481D01*
X89808Y30071D01*
Y26696D01*
X89890Y26286D01*
X90122Y25939D01*
X90757Y25304D01*
X91104Y25072D01*
X91514Y24991D01*
X92292D01*
Y22152D01*
X94234D01*
Y13106D01*
X94312Y12716D01*
X94533Y12385D01*
X100183Y6736D01*
X100513Y6515D01*
X100903Y6437D01*
X134457D01*
X134847Y6515D01*
X135178Y6736D01*
X136881Y8439D01*
X137401Y8139D01*
X138454Y7857D01*
X139546D01*
X140599Y8139D01*
X141544Y8685D01*
X142315Y9456D01*
X142861Y10401D01*
X143143Y11455D01*
Y12546D01*
X142861Y13599D01*
X142315Y14544D01*
X141544Y15315D01*
X140599Y15861D01*
X140020Y16016D01*
Y28235D01*
X141222D01*
Y33765D01*
X139476D01*
Y35064D01*
X139653Y35111D01*
X140360Y35519D01*
X140937Y36097D01*
X141345Y36803D01*
X141557Y37592D01*
Y38408D01*
X141345Y39197D01*
X140937Y39903D01*
X140686Y40154D01*
Y44774D01*
X143023D01*
Y50108D01*
D02*
G37*
G36*
X153543Y11500D02*
X149500D01*
Y7457D01*
X153543D01*
Y11500D01*
D02*
G37*
G36*
X148500D02*
X144457D01*
Y7457D01*
X148500D01*
Y11500D01*
D02*
G37*
G36*
X212342Y11852D02*
X211658D01*
X210996Y11675D01*
X210404Y11332D01*
X209920Y10848D01*
X209577Y10255D01*
X209400Y9594D01*
Y8910D01*
X209577Y8248D01*
X209920Y7655D01*
X210404Y7171D01*
X210996Y6829D01*
X211658Y6652D01*
X212342D01*
X213004Y6829D01*
X213596Y7171D01*
X214081Y7655D01*
X214423Y8248D01*
X214600Y8910D01*
Y9594D01*
X214423Y10255D01*
X214081Y10848D01*
X213596Y11332D01*
X213004Y11675D01*
X212342Y11852D01*
D02*
G37*
G36*
X24401D02*
X23717D01*
X23055Y11675D01*
X22463Y11332D01*
X21979Y10848D01*
X21636Y10255D01*
X21459Y9594D01*
Y8910D01*
X21636Y8248D01*
X21979Y7655D01*
X22463Y7171D01*
X23055Y6829D01*
X23717Y6652D01*
X24401D01*
X25063Y6829D01*
X25655Y7171D01*
X26140Y7655D01*
X26482Y8248D01*
X26659Y8910D01*
Y9594D01*
X26482Y10255D01*
X26140Y10848D01*
X25655Y11332D01*
X25063Y11675D01*
X24401Y11852D01*
D02*
G37*
G36*
X227726Y16939D02*
X226211D01*
X224726Y16643D01*
X223327Y16064D01*
X222069Y15223D01*
X220998Y14152D01*
X220157Y12893D01*
X219577Y11494D01*
X219282Y10009D01*
Y8495D01*
X219577Y7010D01*
X220157Y5611D01*
X220998Y4352D01*
X222069Y3281D01*
X223327Y2440D01*
X224726Y1861D01*
X226211Y1565D01*
X227726D01*
X229211Y1861D01*
X230609Y2440D01*
X231868Y3281D01*
X232939Y4352D01*
X233780Y5611D01*
X234360Y7010D01*
X234655Y8495D01*
Y10009D01*
X234360Y11494D01*
X233780Y12893D01*
X232939Y14152D01*
X231868Y15223D01*
X230609Y16064D01*
X229211Y16643D01*
X227726Y16939D01*
D02*
G37*
G36*
X10009D02*
X8495D01*
X7010Y16643D01*
X5611Y16064D01*
X4352Y15223D01*
X3281Y14152D01*
X2440Y12893D01*
X1861Y11494D01*
X1565Y10009D01*
Y8495D01*
X1861Y7010D01*
X2440Y5611D01*
X3281Y4352D01*
X4352Y3281D01*
X5611Y2440D01*
X7010Y1861D01*
X8495Y1565D01*
X10009D01*
X11494Y1861D01*
X12893Y2440D01*
X14152Y3281D01*
X15223Y4352D01*
X16064Y5611D01*
X16643Y7010D01*
X16939Y8495D01*
Y10009D01*
X16643Y11494D01*
X16064Y12893D01*
X15223Y14152D01*
X14152Y15223D01*
X12893Y16064D01*
X11494Y16643D01*
X10009Y16939D01*
D02*
G37*
%LPD*%
G36*
X39340Y215011D02*
X39921D01*
Y211174D01*
X37473D01*
Y207612D01*
X39921D01*
Y203894D01*
X37273D01*
Y202413D01*
X39451D01*
Y201413D01*
X37273D01*
Y200787D01*
X34461D01*
Y202200D01*
X30906D01*
Y202700D01*
X30406D01*
Y205469D01*
X29408D01*
Y207339D01*
X30406D01*
Y210107D01*
X30906D01*
Y210607D01*
X33477D01*
Y212598D01*
X35628D01*
X36789Y213760D01*
Y214923D01*
X37253Y215011D01*
Y215011D01*
X38340D01*
Y218468D01*
X39340D01*
Y215011D01*
D02*
G37*
%LPC*%
G36*
X33477Y209607D02*
X31405D01*
Y207339D01*
X33477D01*
Y209607D01*
D02*
G37*
G36*
X34461Y205469D02*
X31405D01*
Y203200D01*
X34461D01*
Y205469D01*
D02*
G37*
%LPD*%
G36*
X50452Y173059D02*
X44604Y167211D01*
X44383Y166880D01*
X44305Y166490D01*
Y137445D01*
X44383Y137055D01*
X44604Y136724D01*
X46244Y135084D01*
X46575Y134863D01*
X46966Y134785D01*
X47267D01*
X47308Y134630D01*
X47716Y133923D01*
X48293Y133346D01*
X48904Y132994D01*
X48845Y132554D01*
X48821Y132494D01*
X46092D01*
X42973Y135613D01*
X43092Y135733D01*
X43501Y136440D01*
X43712Y137228D01*
Y138044D01*
X43501Y138833D01*
X43092Y139540D01*
X42515Y140117D01*
X41808Y140525D01*
X41631Y140572D01*
Y165931D01*
X49150Y173450D01*
X50135D01*
X50452Y173059D01*
D02*
G37*
G36*
X171063Y174803D02*
Y166535D01*
X149471D01*
X149191Y166823D01*
X146555D01*
Y167823D01*
X149019D01*
X148970Y168065D01*
X148809Y168307D01*
X148970Y168549D01*
X149019Y168791D01*
X146555D01*
Y169791D01*
X149019D01*
X148970Y170034D01*
X148750Y170364D01*
X148665Y170421D01*
X148782Y170596D01*
X148844Y170907D01*
Y171613D01*
X148782Y171924D01*
X148606Y172188D01*
X148342Y172365D01*
X148030Y172427D01*
X148018D01*
X147626Y172672D01*
X147544Y173081D01*
X147312Y173429D01*
X147312Y173429D01*
X146452Y174288D01*
X148478Y176313D01*
X169553D01*
X171063Y174803D01*
D02*
G37*
G36*
X173060Y168714D02*
Y167924D01*
X178781D01*
Y167424D01*
X179281D01*
Y163278D01*
X179312D01*
Y161000D01*
X169578D01*
Y162306D01*
X162085D01*
X154592D01*
Y161000D01*
X145512D01*
Y162015D01*
X146055D01*
Y163386D01*
X146555D01*
Y163886D01*
X149019D01*
X148970Y164128D01*
X148809Y164370D01*
X148970Y164612D01*
X149019Y164854D01*
X146555D01*
Y165854D01*
X149438D01*
X149522Y165886D01*
X154237D01*
X154592Y165535D01*
Y163306D01*
X162085D01*
X169578D01*
Y165535D01*
X169932Y165886D01*
X171063D01*
X171522Y166076D01*
X171712Y166535D01*
Y168073D01*
X172560Y168921D01*
X173060Y168714D01*
D02*
G37*
%LPC*%
G36*
X169578Y174866D02*
X162585D01*
Y172637D01*
X169578D01*
Y174866D01*
D02*
G37*
G36*
X161585D02*
X154592D01*
Y172637D01*
X161585D01*
Y174866D01*
D02*
G37*
G36*
X169578Y171637D02*
X162585D01*
Y169408D01*
X169578D01*
Y171637D01*
D02*
G37*
G36*
X161585D02*
X154592D01*
Y169408D01*
X161585D01*
Y171637D01*
D02*
G37*
G36*
X178281Y166924D02*
X173060D01*
Y163278D01*
X178281D01*
Y166924D01*
D02*
G37*
G36*
X149019Y162886D02*
X147055D01*
Y162015D01*
X148030D01*
X148419Y162093D01*
X148750Y162313D01*
X148970Y162644D01*
X149019Y162886D01*
D02*
G37*
%LPD*%
G36*
X162731Y99136D02*
X162582Y98578D01*
X162236Y98486D01*
X161556Y98093D01*
X161001Y97538D01*
X160912Y97385D01*
X160344Y97399D01*
X159970Y97773D01*
X159382Y98113D01*
X158726Y98289D01*
X158046D01*
X157390Y98113D01*
X156802Y97773D01*
X156321Y97293D01*
X155995Y96728D01*
X149851D01*
X149644Y97228D01*
X149922Y97506D01*
X150330Y98213D01*
X150541Y99001D01*
Y99818D01*
X150330Y100606D01*
X150238Y100765D01*
X152054Y102580D01*
X159286D01*
X162731Y99136D01*
D02*
G37*
G36*
X156321Y94125D02*
X156802Y93644D01*
X157056Y93497D01*
Y92920D01*
X156802Y92773D01*
X156321Y92293D01*
X155982Y91704D01*
X155806Y91048D01*
Y90369D01*
X155982Y89713D01*
X156321Y89125D01*
X156802Y88644D01*
X157056Y88497D01*
Y87920D01*
X156802Y87773D01*
X156321Y87293D01*
X155982Y86704D01*
X155806Y86048D01*
Y85369D01*
X155982Y84713D01*
X156321Y84124D01*
X156802Y83644D01*
X157056Y83497D01*
Y82920D01*
X156802Y82773D01*
X156321Y82293D01*
X155995Y81728D01*
X154528D01*
X154137Y81651D01*
X153807Y81430D01*
X152763Y80386D01*
X152287Y80483D01*
X152287D01*
X152287Y80483D01*
X152287D01*
X152146Y80613D01*
X152080Y80802D01*
X152080Y81003D01*
Y85417D01*
X146943D01*
Y80673D01*
X148326D01*
X148423Y80173D01*
X148150Y79901D01*
X147929Y79570D01*
X147852Y79180D01*
Y79143D01*
X144506D01*
X137171Y86478D01*
Y87603D01*
X146943D01*
Y86973D01*
X152080D01*
Y91716D01*
X146943D01*
Y89642D01*
X144868D01*
X144722Y90142D01*
X145197Y90616D01*
X145605Y91323D01*
X145817Y92112D01*
Y92928D01*
X145605Y93716D01*
X145332Y94189D01*
X145609Y94689D01*
X155995D01*
X156321Y94125D01*
D02*
G37*
G36*
X184017Y84909D02*
X184347Y84688D01*
X184738Y84610D01*
X216035D01*
X216361Y84046D01*
X216841Y83565D01*
X217095Y83419D01*
Y82841D01*
X216841Y82694D01*
X216361Y82214D01*
X216035Y81650D01*
X185081D01*
X161010Y105721D01*
X160679Y105942D01*
X160289Y106020D01*
X130464D01*
Y106839D01*
X162087D01*
X184017Y84909D01*
D02*
G37*
G36*
X175374Y86493D02*
Y73748D01*
X170361D01*
X170261Y74248D01*
X170512Y74352D01*
X170962Y74802D01*
X171206Y75390D01*
Y76027D01*
X170962Y76615D01*
X170512Y77065D01*
X169924Y77309D01*
X169288D01*
X168748Y77085D01*
X165966D01*
Y78289D01*
X165887D01*
X165680Y78789D01*
X165770Y78879D01*
X166163Y79558D01*
X166337Y80209D01*
X163386D01*
Y81209D01*
X166337D01*
X166163Y81859D01*
X165770Y82538D01*
X165435Y82874D01*
X165272Y83209D01*
X165435Y83544D01*
X165770Y83879D01*
X166163Y84558D01*
X166337Y85209D01*
X163386D01*
Y86209D01*
X166337D01*
X166163Y86859D01*
X165770Y87538D01*
X165216Y88093D01*
X165062Y88182D01*
X165077Y88751D01*
X165450Y89125D01*
X165790Y89713D01*
X165966Y90369D01*
Y91048D01*
X165790Y91704D01*
X165450Y92293D01*
X165077Y92667D01*
X165062Y93235D01*
X165216Y93324D01*
X165770Y93879D01*
X166163Y94558D01*
X166255Y94904D01*
X166813Y95054D01*
X175374Y86493D01*
D02*
G37*
G36*
X128524Y16143D02*
X128454D01*
X127401Y15861D01*
X126456Y15315D01*
X125684Y14544D01*
X125139Y13599D01*
X124857Y12546D01*
Y11455D01*
X125139Y10401D01*
X125684Y9456D01*
X126164Y8976D01*
X125957Y8476D01*
X122043D01*
X121836Y8976D01*
X122316Y9456D01*
X122861Y10401D01*
X123143Y11455D01*
Y12546D01*
X122861Y13599D01*
X122316Y14544D01*
X121544Y15315D01*
X120599Y15861D01*
X119545Y16143D01*
X118455D01*
X117401Y15861D01*
X116456Y15315D01*
X115684Y14544D01*
X115139Y13599D01*
X114857Y12546D01*
Y11455D01*
X115139Y10401D01*
X115684Y9456D01*
X116164Y8976D01*
X115957Y8476D01*
X101326D01*
X96273Y13529D01*
Y22152D01*
X104122D01*
Y22421D01*
X128524D01*
Y16143D01*
D02*
G37*
%LPC*%
G36*
X117618Y222447D02*
X113575D01*
Y218404D01*
X113673D01*
X114828Y218713D01*
X115864Y219311D01*
X116710Y220157D01*
X117308Y221193D01*
X117618Y222349D01*
Y222447D01*
D02*
G37*
G36*
X112575D02*
X108531D01*
Y222349D01*
X108841Y221193D01*
X109439Y220157D01*
X110285Y219311D01*
X111321Y218713D01*
X112477Y218404D01*
X112575D01*
Y222447D01*
D02*
G37*
G36*
X113061Y208093D02*
X110497D01*
Y204939D01*
X113061D01*
Y208093D01*
D02*
G37*
G36*
Y203939D02*
X110497D01*
Y200785D01*
X113061D01*
Y203939D01*
D02*
G37*
%LPD*%
D14*
X13746Y155512D02*
X13780Y155546D01*
X12992Y159252D02*
X13780Y160039D01*
X55687Y95101D02*
X56840Y93947D01*
X55687Y101384D02*
X56840Y102538D01*
X93482Y191514D02*
X94467Y192498D01*
X90530Y192498D02*
X91514Y191514D01*
X49076Y218468D02*
X56163D01*
X80709Y180684D02*
Y185129D01*
X94467Y196435D02*
X95451Y197420D01*
X28365Y182514D02*
X31770D01*
X13780D02*
X28365D01*
X6890D02*
X13780D01*
X65861Y195950D02*
X65945Y195866D01*
X24606Y195079D02*
X28365D01*
X20079D02*
X24606D01*
X13780Y188813D02*
Y195079D01*
X34449Y161024D02*
X34461Y161011D01*
X13746Y170276D02*
X13780Y170242D01*
X31770Y182514D02*
X34289Y179994D01*
X31754Y214500D02*
Y219748D01*
X47305Y224079D02*
Y229000D01*
X40612Y224079D02*
Y229000D01*
X47325Y202700D02*
X50963D01*
D15*
X137391Y94933D02*
G03*
X140021Y95709I404J3477D01*
G01*
X128667Y54921D02*
Y60039D01*
X24059Y43744D02*
X26575Y46260D01*
X12248Y43744D02*
X24059D01*
X26575Y46260D02*
X34449D01*
X39370Y51181D01*
X16732Y37402D02*
X20669Y41339D01*
X46775D01*
X134602Y88622D02*
X142717D01*
Y92520D01*
Y88622D02*
X148654D01*
X146069Y114961D02*
X147250Y116142D01*
X132242Y114961D02*
X146069D01*
X136030Y123038D02*
X137795Y124803D01*
X147250D02*
X147441D01*
X148425Y125787D01*
X137795Y124803D02*
X147250D01*
X129543Y23441D02*
Y37191D01*
Y12543D02*
Y23441D01*
X101159D02*
X129543D01*
X129000Y12000D02*
X129543Y12543D01*
X130905Y163386D02*
X134941D01*
X129921Y164370D02*
X130905Y163386D01*
X129921Y164370D02*
X130905Y165354D01*
X134941D01*
X139667Y54921D02*
Y60039D01*
X95254Y13106D02*
Y23441D01*
Y13106D02*
X100903Y7457D01*
X134457D01*
X139000Y12000D01*
Y30457D01*
X138457Y31000D02*
X139000Y30457D01*
X138457Y31000D02*
Y38000D01*
X139667Y39210D01*
Y47441D01*
X128667Y45374D02*
X130352Y43688D01*
Y38000D02*
Y43688D01*
X128667Y45374D02*
Y47441D01*
X129543Y37191D02*
X130352Y38000D01*
X93280Y121710D02*
Y124601D01*
X93482Y124803D01*
X91514Y119943D02*
X93280Y121710D01*
X87024Y119943D02*
X88758Y121677D01*
Y124803D01*
X84034D02*
Y133000D01*
X79309Y124803D02*
Y129831D01*
X102931Y116433D02*
X106364Y113000D01*
X102931Y116433D02*
Y124803D01*
X62384Y135805D02*
X69860Y128329D01*
X46966Y135805D02*
X62384D01*
X45325Y137445D02*
Y166490D01*
Y137445D02*
X46966Y135805D01*
X129864Y112583D02*
X132242Y114961D01*
X127502Y107858D02*
X162509D01*
X184738Y85630D02*
X218425D01*
X162509Y107858D02*
X184738Y85630D01*
X160289Y105000D02*
X184659Y80630D01*
X159709Y103600D02*
X176394Y86915D01*
X184659Y80630D02*
X218425D01*
X130352Y105000D02*
X160289D01*
X151631Y103600D02*
X159709D01*
X176394Y73197D02*
Y86915D01*
X128486Y103134D02*
X130352Y105000D01*
X127502Y103134D02*
X128486D01*
X147441Y99410D02*
X151631Y103600D01*
X64961Y72222D02*
Y76772D01*
Y72222D02*
X65136Y72047D01*
X46260Y64589D02*
X46632Y64961D01*
X49213D01*
X44291Y64589D02*
X46260D01*
X43110Y59470D02*
X44291Y58289D01*
X39370Y59470D02*
X43110D01*
X39370Y51181D02*
Y59470D01*
X79309Y56768D02*
Y72047D01*
X78840Y56299D02*
X79309Y56768D01*
X52165Y56299D02*
X78840D01*
X83837Y58289D02*
X84034D01*
X79724Y54177D02*
X83837Y58289D01*
X79724Y53983D02*
Y54177D01*
X74803Y125022D02*
Y130024D01*
X74585Y124803D02*
X74803Y125022D01*
X88583Y124978D02*
X88758Y124803D01*
X185730Y224623D02*
Y229309D01*
X177069Y224546D02*
Y229801D01*
X178726Y231459D01*
Y231889D01*
X179312Y232474D02*
X209302D01*
X168407Y224623D02*
Y229309D01*
X92301Y178971D02*
X93482Y180152D01*
X72638Y219748D02*
X72835Y219945D01*
X130596Y98695D02*
X133810Y101909D01*
X127788Y98695D02*
X130596D01*
X127502Y98409D02*
X127788Y98695D01*
X133810Y101909D02*
X141452D01*
X127502Y93685D02*
X132759D01*
X141452Y101909D02*
X143952Y99410D01*
X147441D01*
X132759Y97941D02*
X133227Y98409D01*
X137795D01*
X132759Y93685D02*
Y97941D01*
X135855Y87408D02*
X136012Y87250D01*
Y86195D02*
X143943Y78264D01*
X136012Y86195D02*
Y87250D01*
X134799Y87408D02*
Y88425D01*
X134602Y88622D02*
X134799Y88425D01*
Y87408D02*
X135855D01*
X143943Y78143D02*
Y78264D01*
X145315Y76772D02*
X145512D01*
X143943Y78143D02*
X145315Y76772D01*
X134602Y88961D02*
Y92520D01*
X140021Y95709D02*
X158386D01*
X137347Y94933D02*
X137391D01*
X134602Y88622D02*
Y88961D01*
Y92520D02*
X137016Y94933D01*
X137347D01*
X175925Y72729D02*
X176394Y73197D01*
X160992Y72729D02*
X175925D01*
X134217Y123038D02*
X136030D01*
X128486Y117307D02*
X134217Y123038D01*
X127502Y112583D02*
X129864D01*
X127502Y117307D02*
X128486D01*
X210669Y90709D02*
X210709Y90669D01*
X218386D01*
Y95669D02*
X218425Y95630D01*
X210669Y95669D02*
X218386D01*
X210630Y95709D02*
X210669Y95669D01*
X152559Y78740D02*
X154528Y80709D01*
X158386D01*
X127170Y79180D02*
X127502Y79512D01*
X122047Y79180D02*
X127170D01*
X218386Y90669D02*
X218425Y90630D01*
X148871Y79180D02*
X149511Y79820D01*
X148871Y65424D02*
Y79180D01*
X149511Y79820D02*
Y81434D01*
X148871Y65424D02*
X151848Y62448D01*
X149511Y81434D02*
X150400Y82323D01*
X151848Y62448D02*
X168187D01*
X210630Y100630D02*
X218425D01*
X223425Y85630D02*
X223465Y85669D01*
X148654Y88622D02*
X149674Y89642D01*
X158386Y75335D02*
X160992Y72729D01*
X158386Y75335D02*
Y75709D01*
X141181Y205063D02*
X141732Y204512D01*
X141181Y205063D02*
Y222244D01*
X210478Y231299D02*
X211614D01*
X209302Y232474D02*
X210478Y231299D01*
X178726Y231889D02*
X179312Y232474D01*
X134264Y87584D02*
X134602Y87245D01*
X127502Y88961D02*
X134224D01*
X46775Y41339D02*
X52165Y46729D01*
X84034Y64589D02*
Y72047D01*
X52165Y46729D02*
Y50000D01*
X5906Y37402D02*
X12248Y43744D01*
X141732Y204512D02*
X142317Y205097D01*
X149372D01*
X28365Y179994D02*
Y182514D01*
X93482Y200274D02*
Y207612D01*
X86691Y210079D02*
X91514Y205256D01*
Y200274D02*
Y205256D01*
X79309Y72047D02*
Y74410D01*
X40612Y136532D02*
X45670Y131474D01*
X40612Y136532D02*
Y166353D01*
X48800Y174542D01*
X92819Y184270D02*
X93482D01*
Y188660D01*
X121829Y72047D02*
X122047Y71829D01*
X91514Y185254D02*
X92439Y184329D01*
X92761D02*
X92819Y184270D01*
X92439Y184329D02*
X92761D01*
X91514Y185254D02*
Y188660D01*
X89545Y184306D02*
Y188660D01*
X45325Y166490D02*
X54883Y176049D01*
X59446Y131474D02*
X64155Y126765D01*
X45670Y131474D02*
X59446D01*
X69860Y124803D02*
Y128329D01*
X64158Y126765D02*
X65136Y125787D01*
Y124803D02*
Y125787D01*
X64155Y126765D02*
X64158D01*
X54883Y176049D02*
Y178401D01*
X53069Y180216D02*
X54883Y178401D01*
X108268Y185664D02*
Y191514D01*
X85003Y193541D02*
X86633D01*
X84722Y193821D02*
X85003Y193541D01*
X86633D02*
X86691Y193483D01*
X84722Y193821D02*
Y195451D01*
X98305Y191514D02*
X106299D01*
X95451Y185860D02*
X98600Y182710D01*
Y178971D02*
Y182710D01*
X95451Y185860D02*
Y188660D01*
X93482Y180152D02*
Y184270D01*
X80709Y191428D02*
X86605D01*
X74056Y203403D02*
X77823D01*
X73902Y209857D02*
X74056Y209702D01*
X67461Y209857D02*
X73902D01*
X86691Y210079D02*
Y220396D01*
X89264Y203786D02*
X89487Y203563D01*
Y200332D02*
Y203563D01*
Y200332D02*
X89545Y200274D01*
X78740Y222244D02*
X84842D01*
X86691Y220396D01*
X78409Y228213D02*
X78740Y228543D01*
X72835Y228213D02*
X78409D01*
X102931Y200274D02*
Y202489D01*
X95451Y200274D02*
Y202489D01*
X95919Y202958D01*
X102462D02*
X102931Y202489D01*
X95919Y202958D02*
X102462D01*
X86605Y191428D02*
X86691Y191514D01*
X67234Y201362D02*
X67461Y201589D01*
X84722Y195451D02*
X86691D01*
X81693D02*
X84722D01*
X73880Y203579D02*
X74056Y203403D01*
X100077Y197420D02*
X102931Y200274D01*
X98305Y197420D02*
X100077D01*
X77823Y203403D02*
X83905Y197321D01*
X86593D02*
X86691Y197420D01*
X83905Y197321D02*
X86593D01*
X51262Y180216D02*
X53069D01*
X50903Y179857D02*
X51262Y180216D01*
X48800Y179857D02*
X50903D01*
X48800Y178085D02*
X52115D01*
X52165Y178035D01*
X5906Y195866D02*
X6306D01*
X6890Y196450D01*
X46900Y195950D02*
X54057D01*
X39529Y195079D02*
X40400Y195950D01*
X34664Y195079D02*
X39529D01*
X13746Y188779D02*
X13780Y188813D01*
X5906Y188779D02*
X13746D01*
X35352Y178495D02*
X35762Y178085D01*
X33545Y178495D02*
X35352D01*
X33435Y178384D02*
X33545Y178495D01*
X32052Y178384D02*
X33435D01*
X31754Y178085D02*
X32052Y178384D01*
X34289Y179994D02*
X35967D01*
X36105Y179857D02*
X38170D01*
X35967Y179994D02*
X36105Y179857D01*
X35762Y178085D02*
X38170D01*
X35762Y174542D02*
X38170D01*
X31864Y174132D02*
X35352D01*
X34449Y176313D02*
X38170D01*
X35352Y174132D02*
X35762Y174542D01*
X30406Y175591D02*
X31864Y174132D01*
X13780Y188813D02*
X28026D01*
X35211Y181628D01*
X38170D01*
X26575Y167323D02*
X34449D01*
X26575Y175591D02*
X30406D01*
X45383Y210107D02*
X46611D01*
X43958Y211532D02*
X45383Y210107D01*
X46611D02*
X47325Y209393D01*
X42488Y197840D02*
Y206553D01*
X40597Y195950D02*
X42488Y197840D01*
X40400Y195950D02*
X40597D01*
X39648Y209393D02*
X41399Y211144D01*
Y218468D01*
X43958Y211532D02*
Y218468D01*
X44288Y198562D02*
Y206553D01*
X45331Y197321D02*
X46703Y195950D01*
X45331Y197321D02*
Y197518D01*
X44288Y198562D02*
X45331Y197518D01*
X46703Y195950D02*
X46900D01*
X38170Y183400D02*
X38465D01*
X39335Y184270D01*
Y184306D01*
X39921Y184892D01*
X42116D01*
X42750Y185526D01*
Y187810D01*
X42281Y188279D02*
X42750Y187810D01*
X41772Y188279D02*
X42281D01*
X40400Y189650D02*
X41772Y188279D01*
X48505Y183400D02*
X48800D01*
X47635Y184270D02*
X48505Y183400D01*
X47635Y184270D02*
Y184306D01*
X47049Y184892D02*
X47635Y184306D01*
X45019Y184892D02*
X47049D01*
X44550Y185361D02*
X45019Y184892D01*
X44550Y185361D02*
Y187810D01*
X45019Y188279D01*
X45528D01*
X46900Y189650D01*
X39451Y209393D02*
X39648D01*
X42488Y206553D01*
X44288D02*
X47128Y209393D01*
D18*
X101474Y35019D02*
X108268D01*
X101455Y35000D02*
X101474Y35019D01*
X101159Y28559D02*
Y34705D01*
D24*
X5906Y37402D02*
D03*
X16732Y47244D02*
D03*
X5906Y210607D02*
D03*
X147441Y99410D02*
D03*
X5906Y28543D02*
D03*
X211614Y231299D02*
D03*
X16732Y37402D02*
D03*
X141181Y222244D02*
D03*
X108268Y191514D02*
D03*
X40612Y137636D02*
D03*
X5906Y47244D02*
D03*
X50197Y135827D02*
D03*
X130352Y38000D02*
D03*
X138457D02*
D03*
X16732Y19685D02*
D03*
X207000Y172672D02*
D03*
X142717Y92520D02*
D03*
X137795Y98409D02*
D03*
X210478Y214589D02*
D03*
X16732Y28543D02*
D03*
D25*
X34449Y52860D02*
D03*
Y59159D02*
D03*
X26575Y155709D02*
D03*
Y149409D02*
D03*
X185666Y121498D02*
D03*
Y115199D02*
D03*
X46900Y189650D02*
D03*
Y195950D02*
D03*
X40400D02*
D03*
Y189650D02*
D03*
X122047Y189009D02*
D03*
Y182710D02*
D03*
X140748Y184778D02*
D03*
Y178479D02*
D03*
X90530Y163976D02*
D03*
Y170276D02*
D03*
X199803Y214392D02*
D03*
Y220691D02*
D03*
X85827Y158071D02*
D03*
Y151772D02*
D03*
X56840Y166535D02*
D03*
Y160236D02*
D03*
X13780Y166339D02*
D03*
Y160039D02*
D03*
X6890Y176215D02*
D03*
Y182514D02*
D03*
X80709Y191428D02*
D03*
Y185129D02*
D03*
X78740Y228543D02*
D03*
Y222244D02*
D03*
X74056Y209702D02*
D03*
Y203403D02*
D03*
X130905Y176707D02*
D03*
Y183006D02*
D03*
X141732Y198213D02*
D03*
Y204512D02*
D03*
X145512Y76772D02*
D03*
Y70472D02*
D03*
X84034Y64589D02*
D03*
Y58289D02*
D03*
X44291Y64589D02*
D03*
Y58289D02*
D03*
X52165Y56299D02*
D03*
Y50000D02*
D03*
X108268Y185664D02*
D03*
Y179365D02*
D03*
X6890Y188779D02*
D03*
Y195079D02*
D03*
X13780Y188813D02*
D03*
Y182514D02*
D03*
X34449Y161024D02*
D03*
Y167323D02*
D03*
X87024Y137636D02*
D03*
Y143936D02*
D03*
X57087Y144488D02*
D03*
Y150787D02*
D03*
X149511Y83045D02*
D03*
Y89344D02*
D03*
X134602Y82323D02*
D03*
Y88622D02*
D03*
D26*
X199123Y122148D02*
D03*
X202726Y114548D02*
D03*
X195521D02*
D03*
D27*
X147250Y115337D02*
D03*
X153550D02*
D03*
Y124803D02*
D03*
X147250D02*
D03*
X20079Y195079D02*
D03*
X13780D02*
D03*
X60356Y195950D02*
D03*
X54057D02*
D03*
X28604Y195079D02*
D03*
X34903D02*
D03*
X24606Y210107D02*
D03*
X30906D02*
D03*
X98600Y179857D02*
D03*
X92301D02*
D03*
X177362D02*
D03*
X171063D02*
D03*
X194095D02*
D03*
X187795D02*
D03*
X117323Y56299D02*
D03*
X111024D02*
D03*
X101455Y35000D02*
D03*
X95156D02*
D03*
D28*
X137795Y114961D02*
D03*
Y124803D02*
D03*
D29*
X95254Y28559D02*
D03*
Y26000D02*
D03*
Y23441D02*
D03*
X101159Y28559D02*
D03*
Y26000D02*
D03*
Y23441D02*
D03*
D30*
X139667Y54921D02*
D03*
Y47441D02*
D03*
X128667Y54921D02*
D03*
Y47441D02*
D03*
X97750Y158268D02*
D03*
Y150787D02*
D03*
X70866Y183597D02*
D03*
Y176117D02*
D03*
X207000Y150260D02*
D03*
Y157740D02*
D03*
X97750Y137046D02*
D03*
Y144526D02*
D03*
D31*
X168187Y53983D02*
D03*
X151848D02*
D03*
Y62448D02*
D03*
X168187D02*
D03*
D32*
X79309Y148622D02*
D03*
Y141142D02*
D03*
X69427D02*
D03*
Y144882D02*
D03*
Y148622D02*
D03*
X79526Y166142D02*
D03*
Y158661D02*
D03*
X69644D02*
D03*
Y162402D02*
D03*
Y166142D02*
D03*
D33*
X72835Y219945D02*
D03*
Y228213D02*
D03*
X26575Y167126D02*
D03*
Y175394D02*
D03*
X67461Y201589D02*
D03*
Y209857D02*
D03*
D34*
X38840Y218468D02*
D03*
X41399D02*
D03*
X43958D02*
D03*
X46517D02*
D03*
X49076D02*
D03*
D35*
X31754Y219748D02*
D03*
X56163D02*
D03*
D36*
X27817Y229000D02*
D03*
X60100D02*
D03*
D37*
X40612D02*
D03*
X47305D02*
D03*
D38*
X39451Y201913D02*
D03*
X47325Y209393D02*
D03*
X39451D02*
D03*
D39*
X47325Y202700D02*
D03*
D40*
X32065Y72047D02*
D03*
X36789D02*
D03*
X41514D02*
D03*
X46238D02*
D03*
X50963D02*
D03*
X55687D02*
D03*
X60411D02*
D03*
X65136D02*
D03*
X69860D02*
D03*
X74585D02*
D03*
X79309D02*
D03*
X84034D02*
D03*
X88758D02*
D03*
X93482D02*
D03*
X98207D02*
D03*
X102931D02*
D03*
X107656D02*
D03*
X112380D02*
D03*
X117104D02*
D03*
X121829D02*
D03*
Y124803D02*
D03*
X117104D02*
D03*
X112380D02*
D03*
X107656D02*
D03*
X102931D02*
D03*
X98207D02*
D03*
X93482D02*
D03*
X88758D02*
D03*
X84034D02*
D03*
X79309D02*
D03*
X74585D02*
D03*
X69860D02*
D03*
X65136D02*
D03*
X60411D02*
D03*
X55687D02*
D03*
X50963D02*
D03*
X46238D02*
D03*
X41514D02*
D03*
X36789D02*
D03*
X32065D02*
D03*
D41*
X127502Y74787D02*
D03*
Y84236D02*
D03*
Y88961D02*
D03*
Y93685D02*
D03*
Y98409D02*
D03*
Y103134D02*
D03*
Y107858D02*
D03*
Y112583D02*
D03*
Y117307D02*
D03*
Y122031D02*
D03*
Y79512D02*
D03*
D42*
X107600Y90215D02*
D03*
X96360D02*
D03*
X107600Y101727D02*
D03*
X96360D02*
D03*
X56840Y93947D02*
D03*
X48108D02*
D03*
X56840Y102538D02*
D03*
X48108D02*
D03*
D43*
X43485Y178971D02*
D03*
D44*
X48800Y183400D02*
D03*
Y181628D02*
D03*
Y179857D02*
D03*
Y178085D02*
D03*
Y176313D02*
D03*
Y174542D02*
D03*
X38170D02*
D03*
Y176313D02*
D03*
Y178085D02*
D03*
Y179857D02*
D03*
Y181628D02*
D03*
Y183400D02*
D03*
D45*
X194628Y227931D02*
D03*
D46*
X189864Y229309D02*
D03*
D47*
X185730D02*
D03*
X181400D02*
D03*
X177069D02*
D03*
X172738D02*
D03*
X168407D02*
D03*
X164077D02*
D03*
X159746D02*
D03*
D48*
X150061Y228817D02*
D03*
D49*
X149372Y190530D02*
D03*
Y205097D02*
D03*
D50*
X163152Y186691D02*
D03*
X186655D02*
D03*
D51*
X162085Y172137D02*
D03*
Y162806D02*
D03*
D52*
X30906Y202700D02*
D03*
X20669D02*
D03*
D53*
X102931Y62008D02*
D03*
Y56102D02*
D03*
D54*
X194529Y167424D02*
D03*
X178781D02*
D03*
D55*
X120648Y204439D02*
D03*
X113561D02*
D03*
X209302Y208093D02*
D03*
X202216D02*
D03*
X209302Y198103D02*
D03*
X202216D02*
D03*
X64370Y63976D02*
D03*
X71457D02*
D03*
D56*
X61024Y181982D02*
D03*
Y189069D02*
D03*
X122047Y164726D02*
D03*
Y171812D02*
D03*
X111398Y164948D02*
D03*
Y172035D02*
D03*
X100948Y164948D02*
D03*
Y172035D02*
D03*
X6890Y166339D02*
D03*
Y159252D02*
D03*
X134941Y67323D02*
D03*
Y74410D02*
D03*
D57*
X122457Y31000D02*
D03*
X129543D02*
D03*
X145543Y31000D02*
D03*
X138457D02*
D03*
D119*
X137347Y94933D02*
D03*
D120*
X226969Y213000D02*
D03*
X24059Y9252D02*
D03*
X212000D02*
D03*
D121*
X92498Y194467D02*
D03*
D122*
X95451Y188660D02*
D03*
X93482D02*
D03*
X91514D02*
D03*
X89545D02*
D03*
Y200274D02*
D03*
X91514D02*
D03*
X93482D02*
D03*
X95451D02*
D03*
D123*
X86691Y191514D02*
D03*
Y193483D02*
D03*
Y195451D02*
D03*
Y197420D02*
D03*
X98305D02*
D03*
Y195451D02*
D03*
Y193483D02*
D03*
Y191514D02*
D03*
D124*
X140748Y167323D02*
D03*
D125*
X134941Y171260D02*
D03*
Y169291D02*
D03*
Y167323D02*
D03*
Y165354D02*
D03*
Y163386D02*
D03*
X146555D02*
D03*
Y165354D02*
D03*
Y167323D02*
D03*
Y169291D02*
D03*
Y171260D02*
D03*
D126*
X24291Y47244D02*
X31430Y54384D01*
Y55066D02*
X32045Y55681D01*
X31430Y54384D02*
Y55066D01*
X33611Y56564D02*
Y58321D01*
X16732Y47244D02*
X24291D01*
X32045Y55681D02*
X32728D01*
X33611Y58321D02*
X34449Y59159D01*
X32728Y55681D02*
X33611Y56564D01*
X32930Y60480D02*
Y64213D01*
X31496Y65647D02*
Y65945D01*
Y65647D02*
X32930Y64213D01*
X34252Y59159D02*
X34449D01*
X32930Y60480D02*
X34252Y59159D01*
X91406Y30598D02*
X94277D01*
X90879Y30071D02*
X91406Y30598D01*
X90879Y26696D02*
X91514Y26061D01*
X90879Y26696D02*
Y30071D01*
X91514Y26061D02*
X94504D01*
X94277Y30598D02*
X95156Y31477D01*
Y35000D01*
X94504Y26061D02*
X94565Y26000D01*
X95254D01*
X177362Y176000D02*
Y179857D01*
X130966Y174113D02*
X133718Y171361D01*
X130966Y174113D02*
Y176646D01*
X134840Y171361D02*
X134941Y171260D01*
X130905Y176707D02*
X130966Y176646D01*
X133718Y171361D02*
X134840D01*
X130352Y171260D02*
X130632Y170980D01*
X131918Y169291D02*
X134941D01*
X130632Y170577D02*
X131918Y169291D01*
X130632Y170577D02*
Y170980D01*
X129921Y167323D02*
X134941D01*
X57087Y150787D02*
X57169Y150870D01*
X60941D01*
X140748Y178479D02*
X146555Y172672D01*
Y171260D02*
Y172672D01*
X177362Y179857D02*
X187795D01*
X130609Y182710D02*
X130905Y183006D01*
X122047Y182710D02*
X130609D01*
X98305Y195451D02*
X98372Y195519D01*
D127*
X31405Y119095D02*
X59998D01*
X64131Y114961D01*
X28604Y48504D02*
X31188Y51088D01*
X33846Y76727D02*
Y76772D01*
X32693Y75574D02*
X33846Y76727D01*
X31188Y51088D02*
X32677D01*
X34449Y52860D01*
X32065Y72047D02*
X32693Y72675D01*
Y75574D01*
X231000Y134386D02*
Y152036D01*
X224864Y158172D02*
X231000Y152036D01*
X223425Y136811D02*
X228650D01*
X223425Y126811D02*
X231000Y134386D01*
X230585Y81509D02*
Y119651D01*
X228139Y90344D02*
Y91424D01*
X223425Y80630D02*
X229706D01*
X230585Y81509D01*
X223425Y126811D02*
X230585Y119651D01*
X228139Y91424D02*
X228235Y91520D01*
X223465Y85669D02*
X228139Y90344D01*
X5906Y210607D02*
X10500D01*
X31989Y124879D02*
Y132941D01*
X33755Y134707D01*
Y134843D01*
X13780Y155546D02*
Y160039D01*
X26862Y144279D02*
Y149122D01*
Y144279D02*
X26957Y144183D01*
X26575Y149409D02*
X26862Y149122D01*
X26575Y155709D02*
Y161024D01*
X194870Y115199D02*
X195521Y114548D01*
X185666Y115199D02*
X194870D01*
X185471Y115004D02*
X185666Y115199D01*
X179825Y115004D02*
X185471D01*
X162047Y132782D02*
X179825Y115004D01*
X116142Y132782D02*
X162047D01*
X112380Y124803D02*
Y129020D01*
X116142Y132782D01*
X206107Y116811D02*
X223425D01*
X203844Y114548D02*
X206107Y116811D01*
X202726Y114548D02*
X203844D01*
X153550Y115337D02*
Y120177D01*
Y124803D01*
X122450Y56299D02*
X122457Y56306D01*
X117323Y56299D02*
X122450D01*
X134941Y67323D02*
X140748D01*
X145543Y31000D02*
X151631D01*
X117323Y31000D02*
X122457D01*
X90000Y35000D02*
X95156D01*
X101159Y34705D02*
X101455Y35000D01*
X149000Y5000D02*
Y12000D01*
X207432Y158172D02*
X224864D01*
X207000Y157740D02*
X207432Y158172D01*
X93322Y114961D02*
X98305Y119943D01*
X64131Y114961D02*
X93322D01*
X124095Y125692D02*
X127075D01*
X127170Y125787D01*
X123207Y124803D02*
X124095Y125692D01*
X121829Y124803D02*
X123207D01*
X83220Y137969D02*
X86692D01*
X87024Y137636D01*
X122047Y160236D02*
Y164726D01*
X207000Y167041D02*
Y172672D01*
X219500D02*
X224000Y168172D01*
X207000Y172672D02*
X219500D01*
X209851Y150165D02*
X212835D01*
X209756Y150260D02*
X209851Y150165D01*
X207000Y150260D02*
X209756D01*
X224172Y188000D02*
X231000D01*
X224000Y188172D02*
X224172Y188000D01*
X96726Y164948D02*
X111398D01*
X99756Y139052D02*
X101736Y141032D01*
X130667D01*
X97750Y137046D02*
X98439D01*
X99756Y138363D01*
Y139052D01*
X98207Y120177D02*
X98305Y120079D01*
Y119943D02*
Y120079D01*
X133570Y143936D02*
X216618D01*
X130667Y141032D02*
X133570Y143936D01*
X216618D02*
X223425Y137128D01*
X202216Y198103D02*
Y208093D01*
Y182710D02*
Y198103D01*
X164077Y179857D02*
X171063D01*
X97750Y150787D02*
X104531D01*
X117618Y163874D02*
Y195451D01*
X104531Y150787D02*
X117618Y163874D01*
X168187Y53983D02*
X173799D01*
X147910D02*
X151848D01*
X98207Y120177D02*
Y124803D01*
X163386Y75709D02*
X169606D01*
X16732Y19685D02*
X24059D01*
X16732Y28543D02*
X24059D01*
X5906D02*
X10827D01*
X9843Y47244D02*
X9843Y47244D01*
X5906Y47244D02*
X9843D01*
X75787Y63976D02*
Y67181D01*
X74585Y72047D02*
X74655Y71977D01*
Y68314D02*
Y71977D01*
Y68314D02*
X75787Y67181D01*
X59339Y66797D02*
X60411Y67870D01*
X59339Y63976D02*
Y66797D01*
X60411Y67870D02*
Y72047D01*
X59339Y63976D02*
X64370D01*
X75787D02*
X75787Y63976D01*
X71457Y63976D02*
X75787D01*
X107656Y72047D02*
Y76772D01*
X141277Y74314D02*
X141474D01*
X145315Y70472D02*
X145512D01*
X141181Y74410D02*
X141277Y74314D01*
X141474D02*
X145315Y70472D01*
X134941Y74410D02*
X141181D01*
X134845Y78836D02*
Y80308D01*
Y78836D02*
X134941Y78740D01*
X134602Y80551D02*
X134845Y80308D01*
X134602Y80551D02*
Y82323D01*
X209302Y208093D02*
X214879D01*
X209302Y208093D02*
X209302Y208093D01*
X209302Y198103D02*
X214879D01*
X194095Y179857D02*
X198524D01*
X181400Y224623D02*
Y229309D01*
X172738Y220404D02*
X172738D01*
X178751Y214392D02*
X199803D01*
X172738Y220404D02*
X178751Y214392D01*
X172738Y220404D02*
Y229309D01*
X154112Y201778D02*
X172738Y220404D01*
X149634Y201778D02*
X154112D01*
X164077Y224623D02*
Y229309D01*
X141762Y190530D02*
X144685D01*
X140748Y189650D02*
X140883D01*
X141762Y190530D01*
X140748Y184778D02*
Y189650D01*
X122047Y189009D02*
Y192983D01*
Y171812D02*
X127170D01*
X111386Y172047D02*
X111398Y172035D01*
X106031Y172047D02*
X111386D01*
X100948Y172035D02*
X106018D01*
X106031Y172047D01*
X95586Y163809D02*
X96726Y164948D01*
X95451Y163809D02*
X95586D01*
X92570Y163904D02*
X95355D01*
X95451Y163809D01*
X92498Y163976D02*
X92570Y163904D01*
X90530Y163976D02*
X92498D01*
X90530Y170276D02*
Y173522D01*
X70866Y172672D02*
Y176117D01*
X56840Y166535D02*
X60356D01*
X62305Y162306D02*
X62897D01*
X56840Y160236D02*
X60235D01*
X62305Y162306D01*
X62897D02*
X62992Y162402D01*
X57480Y144882D02*
X69427D01*
X57087Y144488D02*
X57480Y144882D01*
X223425Y90630D02*
Y95630D01*
Y100630D01*
Y106299D01*
X67234Y219748D02*
X72638D01*
X141732Y198213D02*
X146069D01*
X149634Y201778D01*
X120380Y198213D02*
X141732D01*
X163386Y80709D02*
X169291D01*
X163425Y85669D02*
X169252D01*
X169291Y85630D01*
X163386Y85709D02*
X163425Y85669D01*
X169291Y85630D02*
Y89803D01*
X163386Y95709D02*
X169291Y89803D01*
X86040Y148622D02*
X87024Y147638D01*
X79309Y148622D02*
X86040D01*
X87024Y143936D02*
Y147638D01*
X163386Y95709D02*
X163760D01*
X210281Y214392D02*
X210478Y214589D01*
X199803Y214392D02*
X210281D01*
X117618Y195451D02*
X120380Y198213D01*
X110827Y56102D02*
X111024Y56299D01*
X102931Y56102D02*
X110827D01*
X102931Y62008D02*
Y72047D01*
X127502Y74787D02*
X134563D01*
X134941Y74410D01*
X199803Y220691D02*
Y227931D01*
X31989Y124879D02*
X32065Y124803D01*
X103645Y179372D02*
X108260D01*
X103637Y179380D02*
X103645Y179372D01*
X108260D02*
X108268Y179365D01*
X64158Y158661D02*
X69644D01*
X14764Y202700D02*
X20669D01*
X120648Y204439D02*
Y210268D01*
X61024Y189069D02*
X70866D01*
X143701Y228817D02*
X150061D01*
X97553Y158071D02*
X97750Y158268D01*
X85827Y158071D02*
X97553D01*
X85827D02*
Y159841D01*
X79526Y166142D02*
X85827Y159841D01*
X122047Y65945D02*
Y71829D01*
X87024Y143936D02*
X97159D01*
X64158Y141142D02*
X69427D01*
X144685Y190530D02*
X149372D01*
X56163Y218468D02*
Y219748D01*
Y213760D02*
Y218468D01*
X70866Y183597D02*
Y189069D01*
X64158Y148622D02*
X69427D01*
X64158Y166142D02*
X69644D01*
X97159Y143936D02*
X97750Y144526D01*
X27817Y229000D02*
X40612D01*
X22638D02*
X27817D01*
X62992Y162402D02*
X69644D01*
X61024Y176313D02*
Y181982D01*
X61577Y201362D02*
X67234D01*
X85731Y230291D02*
X93075Y222947D01*
X85731Y230291D02*
Y233246D01*
X6890Y196450D02*
Y199803D01*
X60356Y195950D02*
X65861D01*
X34461Y156496D02*
Y161011D01*
X13780Y166339D02*
Y170242D01*
X6890Y154528D02*
Y159252D01*
Y166339D02*
Y171260D01*
X20669Y210107D02*
X24606D01*
X6890Y171260D02*
Y176215D01*
X194628Y227931D02*
X199803D01*
X40612Y229000D02*
X47305D01*
X60100D01*
X64961D01*
D128*
X39203Y201862D02*
X39400D01*
X39451Y201913D01*
D129*
X139764Y173425D02*
D03*
X141732D02*
D03*
Y161221D02*
D03*
X139764D02*
D03*
D130*
X224000Y188172D02*
D03*
X223425Y136811D02*
D03*
D131*
X224000Y178172D02*
D03*
Y168172D02*
D03*
Y158172D02*
D03*
X103075Y222947D02*
D03*
X113075D02*
D03*
X223425Y116811D02*
D03*
Y126811D02*
D03*
X119000Y12000D02*
D03*
X129000D02*
D03*
X139000D02*
D03*
D132*
X163386Y75709D02*
D03*
D133*
Y80709D02*
D03*
X158386Y75709D02*
D03*
Y80709D02*
D03*
Y90709D02*
D03*
Y85709D02*
D03*
X163386Y90709D02*
D03*
Y85709D02*
D03*
Y95709D02*
D03*
X158386D02*
D03*
X223425Y80630D02*
D03*
Y85630D02*
D03*
X218425Y80630D02*
D03*
Y85630D02*
D03*
Y95630D02*
D03*
Y90630D02*
D03*
X223425Y95630D02*
D03*
Y90630D02*
D03*
Y100630D02*
D03*
X218425D02*
D03*
D134*
X93075Y222947D02*
D03*
X149000Y12000D02*
D03*
D135*
X9252Y9252D02*
D03*
X226969D02*
D03*
X9252Y226969D02*
D03*
X226969D02*
D03*
D136*
X108268Y35019D02*
D03*
X128667Y60039D02*
D03*
X29000Y137500D02*
D03*
Y130000D02*
D03*
Y122500D02*
D03*
Y55000D02*
D03*
Y62500D02*
D03*
Y70000D02*
D03*
Y77500D02*
D03*
Y85000D02*
D03*
Y92500D02*
D03*
Y100000D02*
D03*
Y115000D02*
D03*
X31405Y119095D02*
D03*
X29000Y107500D02*
D03*
X28604Y48504D02*
D03*
X33846Y76772D02*
D03*
X31496Y65945D02*
D03*
X228650Y136811D02*
D03*
X228235Y91520D02*
D03*
X10500Y210607D02*
D03*
X33755Y134843D02*
D03*
X13746Y155512D02*
D03*
X26957Y144183D02*
D03*
X26575Y161024D02*
D03*
X153550Y120177D02*
D03*
X129921Y164370D02*
D03*
X122457Y56306D02*
D03*
X140748Y67323D02*
D03*
X139667Y60039D02*
D03*
X151631Y31000D02*
D03*
X117323Y31000D02*
D03*
X90000Y35000D02*
D03*
X149000Y5000D02*
D03*
X91514Y119943D02*
D03*
X87024D02*
D03*
X84034Y133000D02*
D03*
X79309Y129831D02*
D03*
X106364Y113000D02*
D03*
X98207Y121441D02*
D03*
X127170Y125787D02*
D03*
X83220Y137969D02*
D03*
X122047Y160236D02*
D03*
X207000Y167041D02*
D03*
X212835Y150165D02*
D03*
X231000Y188000D02*
D03*
X151052Y173524D02*
D03*
X177362Y176000D02*
D03*
X130352Y171260D02*
D03*
X129921Y167323D02*
D03*
X106031Y164948D02*
D03*
X202216Y182710D02*
D03*
X151052Y169976D02*
D03*
X164077Y179857D02*
D03*
X104531Y150787D02*
D03*
X147910Y53983D02*
D03*
X173799D02*
D03*
X169606Y75709D02*
D03*
X190121Y131744D02*
D03*
X196922D02*
D03*
X24059Y19685D02*
D03*
X10827Y28543D02*
D03*
X9843Y47244D02*
D03*
X64961Y76772D02*
D03*
X49213Y64961D02*
D03*
X39370Y59470D02*
D03*
X59339Y63976D02*
D03*
X79724Y53983D02*
D03*
X24059Y28543D02*
D03*
X74803Y129921D02*
D03*
X75787Y63976D02*
D03*
X107656Y76772D02*
D03*
X141181Y74410D02*
D03*
X134941Y78740D02*
D03*
X214879Y198103D02*
D03*
Y208093D02*
D03*
X198524Y179857D02*
D03*
X185730Y224623D02*
D03*
X181400D02*
D03*
X177069Y224546D02*
D03*
X168407Y224623D02*
D03*
X164077D02*
D03*
X140748Y189650D02*
D03*
X122047Y192983D02*
D03*
X127170Y171812D02*
D03*
X106031Y172047D02*
D03*
X95451Y163809D02*
D03*
X90530Y173522D02*
D03*
X70866Y172672D02*
D03*
X60356Y166535D02*
D03*
X60941Y150870D02*
D03*
X223425Y106299D02*
D03*
X67234Y219748D02*
D03*
X41517Y182514D02*
D03*
Y178971D02*
D03*
Y175428D02*
D03*
X45454D02*
D03*
Y178971D02*
D03*
Y182514D02*
D03*
X92498Y194467D02*
D03*
X90530Y192498D02*
D03*
X90530Y196435D02*
D03*
X94467Y196435D02*
D03*
X94467Y192498D02*
D03*
X140748Y167323D02*
D03*
X142717Y170276D02*
D03*
X138779D02*
D03*
Y164370D02*
D03*
X142717D02*
D03*
X132759Y93685D02*
D03*
X169291Y85630D02*
D03*
Y80709D02*
D03*
X210669Y90709D02*
D03*
X210630Y95709D02*
D03*
X152559Y78740D02*
D03*
X122047Y79180D02*
D03*
X210630Y100630D02*
D03*
X34449Y41339D02*
D03*
X103637Y179380D02*
D03*
X64158Y158661D02*
D03*
X14764Y202700D02*
D03*
X28365Y179994D02*
D03*
X93482Y207612D02*
D03*
X120648Y210268D02*
D03*
X65945Y189069D02*
D03*
X143701Y228817D02*
D03*
X85827Y151772D02*
D03*
X93482Y184270D02*
D03*
X80709Y180684D02*
D03*
X122047Y65945D02*
D03*
X197835Y165354D02*
D03*
X191929D02*
D03*
Y169291D02*
D03*
X197835D02*
D03*
X194529Y167424D02*
D03*
X107600Y101727D02*
D03*
Y90215D02*
D03*
X96360D02*
D03*
Y101727D02*
D03*
X64158Y141142D02*
D03*
X70866Y189069D02*
D03*
X56840Y93947D02*
D03*
X48108D02*
D03*
X56840Y102538D02*
D03*
X48108D02*
D03*
X64158Y148622D02*
D03*
Y166142D02*
D03*
X89545Y184306D02*
D03*
X53069Y184270D02*
D03*
X62992Y144882D02*
D03*
Y162402D02*
D03*
X89264Y203786D02*
D03*
X61024Y176313D02*
D03*
X61577Y201362D02*
D03*
X81693Y195451D02*
D03*
X85731Y233246D02*
D03*
X102931Y200274D02*
D03*
X52165Y178035D02*
D03*
X6890Y199803D02*
D03*
X65945Y195866D02*
D03*
X24606Y195079D02*
D03*
X34461Y156496D02*
D03*
X13746Y170276D02*
D03*
X6890Y154528D02*
D03*
X34449Y176313D02*
D03*
X31754Y178085D02*
D03*
X20669Y210107D02*
D03*
X6890Y171260D02*
D03*
X199803Y227931D02*
D03*
X144685Y190530D02*
D03*
X31754Y214500D02*
D03*
X47305Y224079D02*
D03*
X40612D02*
D03*
X64961Y229000D02*
D03*
X22638D02*
D03*
X50963Y202700D02*
D03*
X56163Y213760D02*
D03*
M02*
