G04*
G04 #@! TF.GenerationSoftware,Altium Limited,Altium Designer,23.1.1 (15)*
G04*
G04 Layer_Color=8388736*
%FSLAX25Y25*%
%MOIN*%
G70*
G04*
G04 #@! TF.SameCoordinates,04E93CFA-C197-41A2-BC49-AEE8B521008C*
G04*
G04*
G04 #@! TF.FilePolarity,Negative*
G04*
G01*
G75*
%ADD24C,0.05000*%
%ADD26R,0.02236X0.04956*%
%ADD61R,0.07900X0.22600*%
%ADD62R,0.07600X0.22300*%
%ADD63R,0.03437X0.06000*%
%ADD64R,0.06436X0.03900*%
%ADD65R,0.04049X0.06000*%
%ADD66R,0.06236X0.03562*%
%ADD67R,0.04299X0.08912*%
%ADD68R,0.04100X0.09000*%
%ADD69R,0.31700X0.05100*%
%ADD70R,0.09000X0.06100*%
%ADD71R,0.11400X0.07300*%
%ADD72R,0.04737X0.04343*%
%ADD73R,0.04343X0.04737*%
%ADD74R,0.08280X0.05131*%
%ADD75R,0.05524X0.02178*%
%ADD76R,0.06312X0.04934*%
%ADD77R,0.04934X0.03359*%
G04:AMPARAMS|DCode=78|XSize=55.64mil|YSize=31.23mil|CornerRadius=9.81mil|HoleSize=0mil|Usage=FLASHONLY|Rotation=0.000|XOffset=0mil|YOffset=0mil|HoleType=Round|Shape=RoundedRectangle|*
%AMROUNDEDRECTD78*
21,1,0.05564,0.01161,0,0,0.0*
21,1,0.03602,0.03123,0,0,0.0*
1,1,0.01961,0.01801,-0.00581*
1,1,0.01961,-0.01801,-0.00581*
1,1,0.01961,-0.01801,0.00581*
1,1,0.01961,0.01801,0.00581*
%
%ADD78ROUNDEDRECTD78*%
%ADD79R,0.05524X0.05524*%
%ADD80R,0.02375X0.06115*%
%ADD81R,0.09068X0.08674*%
%ADD82R,0.07099X0.08280*%
%ADD83R,0.05524X0.08280*%
%ADD84R,0.03556X0.03162*%
%ADD85R,0.03556X0.04737*%
%ADD86R,0.03556X0.05524*%
%ADD87R,0.05524X0.03556*%
%ADD88R,0.08674X0.08674*%
%ADD89R,0.08874X0.08874*%
%ADD90R,0.07102X0.10646*%
%ADD91R,0.02375X0.01784*%
%ADD92R,0.05406X0.07887*%
%ADD93R,0.03753X0.05131*%
%ADD94R,0.04147X0.05131*%
%ADD95R,0.06902X0.06115*%
%ADD96R,0.05524X0.04737*%
%ADD97R,0.08280X0.06115*%
%ADD98R,0.14186X0.04658*%
%ADD99R,0.06312X0.04737*%
%ADD100R,0.03950X0.03950*%
%ADD101R,0.10642X0.07493*%
%ADD102R,0.05328X0.06509*%
%ADD103R,0.06509X0.05328*%
%ADD104R,0.05131X0.05131*%
%ADD105C,0.10000*%
%ADD106R,0.07244X0.07244*%
%ADD107O,0.01654X0.03898*%
%ADD108O,0.03898X0.01654*%
G04:AMPARAMS|DCode=109|XSize=70.47mil|YSize=100mil|CornerRadius=4.71mil|HoleSize=0mil|Usage=FLASHONLY|Rotation=0.000|XOffset=0mil|YOffset=0mil|HoleType=Round|Shape=RoundedRectangle|*
%AMROUNDEDRECTD109*
21,1,0.07047,0.09059,0,0,0.0*
21,1,0.06106,0.10000,0,0,0.0*
1,1,0.00941,0.03053,-0.04530*
1,1,0.00941,-0.03053,-0.04530*
1,1,0.00941,-0.03053,0.04530*
1,1,0.00941,0.03053,0.04530*
%
%ADD109ROUNDEDRECTD109*%
G04:AMPARAMS|DCode=110|XSize=16.54mil|YSize=38.98mil|CornerRadius=4.74mil|HoleSize=0mil|Usage=FLASHONLY|Rotation=90.000|XOffset=0mil|YOffset=0mil|HoleType=Round|Shape=RoundedRectangle|*
%AMROUNDEDRECTD110*
21,1,0.01654,0.02950,0,0,90.0*
21,1,0.00706,0.03898,0,0,90.0*
1,1,0.00948,0.01475,0.00353*
1,1,0.00948,0.01475,-0.00353*
1,1,0.00948,-0.01475,-0.00353*
1,1,0.00948,-0.01475,0.00353*
%
%ADD110ROUNDEDRECTD110*%
%ADD111R,0.01902X0.03556*%
%ADD112R,0.07887X0.07887*%
%ADD113C,0.07887*%
%ADD114R,0.04760X0.04760*%
%ADD115C,0.04760*%
%ADD116R,0.07887X0.07887*%
%ADD117C,0.14973*%
%ADD118C,0.02800*%
D24*
X5906Y37402D02*
D03*
X16732Y47244D02*
D03*
X5906Y210607D02*
D03*
X147441Y99410D02*
D03*
X5906Y28543D02*
D03*
X211614Y231299D02*
D03*
X16732Y37402D02*
D03*
X141181Y222244D02*
D03*
X108268Y191514D02*
D03*
X40612Y137636D02*
D03*
X5906Y47244D02*
D03*
X50197Y135827D02*
D03*
X130352Y38000D02*
D03*
X138457D02*
D03*
X16732Y19685D02*
D03*
X207000Y172672D02*
D03*
X142717Y92520D02*
D03*
X137795Y98409D02*
D03*
X210478Y214589D02*
D03*
X16732Y28543D02*
D03*
D26*
X199123Y122148D02*
D03*
X202726Y114548D02*
D03*
X195521D02*
D03*
D61*
X160850Y85500D02*
D03*
D62*
X220900Y90750D02*
D03*
D63*
X87545Y194400D02*
D03*
D64*
X92482Y189450D02*
D03*
D65*
X97475Y194400D02*
D03*
D66*
X92382Y199581D02*
D03*
D67*
X145850Y167356D02*
D03*
D68*
X135650Y167400D02*
D03*
D69*
X177150Y229350D02*
D03*
D70*
X43900Y218450D02*
D03*
D71*
X98200Y26050D02*
D03*
D72*
X34449Y52860D02*
D03*
Y59159D02*
D03*
X26575Y155709D02*
D03*
Y149409D02*
D03*
X185666Y121498D02*
D03*
Y115199D02*
D03*
X46900Y189650D02*
D03*
Y195950D02*
D03*
X40400D02*
D03*
Y189650D02*
D03*
X122047Y189009D02*
D03*
Y182710D02*
D03*
X140748Y184778D02*
D03*
Y178479D02*
D03*
X90530Y163976D02*
D03*
Y170276D02*
D03*
X199803Y214392D02*
D03*
Y220691D02*
D03*
X85827Y158071D02*
D03*
Y151772D02*
D03*
X56840Y166535D02*
D03*
Y160236D02*
D03*
X13780Y166339D02*
D03*
Y160039D02*
D03*
X6890Y176215D02*
D03*
Y182514D02*
D03*
X80709Y191428D02*
D03*
Y185129D02*
D03*
X78740Y228543D02*
D03*
Y222244D02*
D03*
X74056Y209702D02*
D03*
Y203403D02*
D03*
X130905Y176707D02*
D03*
Y183006D02*
D03*
X141732Y198213D02*
D03*
Y204512D02*
D03*
X145512Y76772D02*
D03*
Y70472D02*
D03*
X84034Y64589D02*
D03*
Y58289D02*
D03*
X44291Y64589D02*
D03*
Y58289D02*
D03*
X52165Y56299D02*
D03*
Y50000D02*
D03*
X108268Y185664D02*
D03*
Y179365D02*
D03*
X6890Y188779D02*
D03*
Y195079D02*
D03*
X13780Y188813D02*
D03*
Y182514D02*
D03*
X34449Y161024D02*
D03*
Y167323D02*
D03*
X87024Y137636D02*
D03*
Y143936D02*
D03*
X57087Y144488D02*
D03*
Y150787D02*
D03*
X149511Y83045D02*
D03*
Y89344D02*
D03*
X134602Y82323D02*
D03*
Y88622D02*
D03*
D73*
X147250Y115337D02*
D03*
X153550D02*
D03*
Y124803D02*
D03*
X147250D02*
D03*
X20079Y195079D02*
D03*
X13780D02*
D03*
X60356Y195950D02*
D03*
X54057D02*
D03*
X28604Y195079D02*
D03*
X34903D02*
D03*
X24606Y210107D02*
D03*
X30906D02*
D03*
X98600Y179857D02*
D03*
X92301D02*
D03*
X177362D02*
D03*
X171063D02*
D03*
X194095D02*
D03*
X187795D02*
D03*
X117323Y56299D02*
D03*
X111024D02*
D03*
X101455Y35000D02*
D03*
X95156D02*
D03*
D74*
X137795Y114961D02*
D03*
Y124803D02*
D03*
D75*
X95254Y28559D02*
D03*
Y26000D02*
D03*
Y23441D02*
D03*
X101159Y28559D02*
D03*
Y26000D02*
D03*
Y23441D02*
D03*
D76*
X139667Y54921D02*
D03*
Y47441D02*
D03*
X128667Y54921D02*
D03*
Y47441D02*
D03*
X97750Y158268D02*
D03*
Y150787D02*
D03*
X70866Y183597D02*
D03*
Y176117D02*
D03*
X207000Y150260D02*
D03*
Y157740D02*
D03*
X97750Y137046D02*
D03*
Y144526D02*
D03*
D77*
X168187Y53983D02*
D03*
X151848D02*
D03*
Y62448D02*
D03*
X168187D02*
D03*
D78*
X79309Y148622D02*
D03*
Y141142D02*
D03*
X69427D02*
D03*
Y144882D02*
D03*
Y148622D02*
D03*
X79526Y166142D02*
D03*
Y158661D02*
D03*
X69644D02*
D03*
Y162402D02*
D03*
Y166142D02*
D03*
D79*
X72835Y219945D02*
D03*
Y228213D02*
D03*
X26575Y167126D02*
D03*
Y175394D02*
D03*
X67461Y201589D02*
D03*
Y209857D02*
D03*
D80*
X38840Y218468D02*
D03*
X41399D02*
D03*
X43958D02*
D03*
X46517D02*
D03*
X49076D02*
D03*
D81*
X31754Y219748D02*
D03*
X56163D02*
D03*
D82*
X27817Y229000D02*
D03*
X60100D02*
D03*
D83*
X40612D02*
D03*
X47305D02*
D03*
D84*
X39451Y201913D02*
D03*
X47325Y209393D02*
D03*
X39451D02*
D03*
D85*
X47325Y202700D02*
D03*
D86*
X32065Y72047D02*
D03*
X36789D02*
D03*
X41514D02*
D03*
X46238D02*
D03*
X50963D02*
D03*
X55687D02*
D03*
X60411D02*
D03*
X65136D02*
D03*
X69860D02*
D03*
X74585D02*
D03*
X79309D02*
D03*
X84034D02*
D03*
X88758D02*
D03*
X93482D02*
D03*
X98207D02*
D03*
X102931D02*
D03*
X107656D02*
D03*
X112380D02*
D03*
X117104D02*
D03*
X121829D02*
D03*
Y124803D02*
D03*
X117104D02*
D03*
X112380D02*
D03*
X107656D02*
D03*
X102931D02*
D03*
X98207D02*
D03*
X93482D02*
D03*
X88758D02*
D03*
X84034D02*
D03*
X79309D02*
D03*
X74585D02*
D03*
X69860D02*
D03*
X65136D02*
D03*
X60411D02*
D03*
X55687D02*
D03*
X50963D02*
D03*
X46238D02*
D03*
X41514D02*
D03*
X36789D02*
D03*
X32065D02*
D03*
D87*
X127502Y74787D02*
D03*
Y84236D02*
D03*
Y88961D02*
D03*
Y93685D02*
D03*
Y98409D02*
D03*
Y103134D02*
D03*
Y107858D02*
D03*
Y112583D02*
D03*
Y117307D02*
D03*
Y122031D02*
D03*
Y79512D02*
D03*
D88*
X107600Y90215D02*
D03*
X96360D02*
D03*
X107600Y101727D02*
D03*
X96360D02*
D03*
D89*
X56840Y93947D02*
D03*
X48108D02*
D03*
X56840Y102538D02*
D03*
X48108D02*
D03*
D90*
X43485Y178971D02*
D03*
D91*
X48800Y183400D02*
D03*
Y181628D02*
D03*
Y179857D02*
D03*
Y178085D02*
D03*
Y176313D02*
D03*
Y174542D02*
D03*
X38170D02*
D03*
Y176313D02*
D03*
Y178085D02*
D03*
Y179857D02*
D03*
Y181628D02*
D03*
Y183400D02*
D03*
D92*
X194628Y227931D02*
D03*
D93*
X189864Y229309D02*
D03*
D94*
X185730D02*
D03*
X181400D02*
D03*
X177069D02*
D03*
X172738D02*
D03*
X168407D02*
D03*
X164077D02*
D03*
X159746D02*
D03*
D95*
X150061Y228817D02*
D03*
D96*
X149372Y190530D02*
D03*
Y205097D02*
D03*
D97*
X163152Y186691D02*
D03*
X186655D02*
D03*
D98*
X162085Y172137D02*
D03*
Y162806D02*
D03*
D99*
X30906Y202700D02*
D03*
X20669D02*
D03*
D100*
X102931Y62008D02*
D03*
Y56102D02*
D03*
D101*
X194529Y167424D02*
D03*
X178781D02*
D03*
D102*
X120648Y204439D02*
D03*
X113561D02*
D03*
X209302Y208093D02*
D03*
X202216D02*
D03*
X209302Y198103D02*
D03*
X202216D02*
D03*
X64370Y63976D02*
D03*
X71457D02*
D03*
D103*
X61024Y181982D02*
D03*
Y189069D02*
D03*
X122047Y164726D02*
D03*
Y171812D02*
D03*
X111398Y164948D02*
D03*
Y172035D02*
D03*
X100948Y164948D02*
D03*
Y172035D02*
D03*
X6890Y166339D02*
D03*
Y159252D02*
D03*
X134941Y67323D02*
D03*
Y74410D02*
D03*
D104*
X122457Y31000D02*
D03*
X129543D02*
D03*
X145543Y31000D02*
D03*
X138457D02*
D03*
D105*
X226969Y213000D02*
D03*
X24059Y9252D02*
D03*
X212000D02*
D03*
D106*
X92498Y194467D02*
D03*
D107*
X95451Y188660D02*
D03*
X93482D02*
D03*
X91514D02*
D03*
X89545D02*
D03*
Y200274D02*
D03*
X91514D02*
D03*
X93482D02*
D03*
X95451D02*
D03*
D108*
X86691Y191514D02*
D03*
Y193483D02*
D03*
Y195451D02*
D03*
Y197420D02*
D03*
X98305D02*
D03*
Y195451D02*
D03*
Y193483D02*
D03*
Y191514D02*
D03*
D109*
X140748Y167323D02*
D03*
D110*
X134941Y171260D02*
D03*
Y169291D02*
D03*
Y167323D02*
D03*
Y165354D02*
D03*
Y163386D02*
D03*
X146555D02*
D03*
Y165354D02*
D03*
Y167323D02*
D03*
Y169291D02*
D03*
Y171260D02*
D03*
D111*
X139764Y173425D02*
D03*
X141732D02*
D03*
Y161221D02*
D03*
X139764D02*
D03*
D112*
X224000Y188172D02*
D03*
X223425Y136811D02*
D03*
D113*
X224000Y178172D02*
D03*
Y168172D02*
D03*
Y158172D02*
D03*
X103075Y222947D02*
D03*
X113075D02*
D03*
X223425Y116811D02*
D03*
Y126811D02*
D03*
X119000Y12000D02*
D03*
X129000D02*
D03*
X139000D02*
D03*
D114*
X163386Y75709D02*
D03*
D115*
Y80709D02*
D03*
X158386Y75709D02*
D03*
Y80709D02*
D03*
Y90709D02*
D03*
Y85709D02*
D03*
X163386Y90709D02*
D03*
Y85709D02*
D03*
Y95709D02*
D03*
X158386D02*
D03*
X223425Y80630D02*
D03*
Y85630D02*
D03*
X218425Y80630D02*
D03*
Y85630D02*
D03*
Y95630D02*
D03*
Y90630D02*
D03*
X223425Y95630D02*
D03*
Y90630D02*
D03*
Y100630D02*
D03*
X218425D02*
D03*
D116*
X93075Y222947D02*
D03*
X149000Y12000D02*
D03*
D117*
X9252Y9252D02*
D03*
X226969D02*
D03*
X9252Y226969D02*
D03*
X226969D02*
D03*
D118*
X41517Y182514D02*
D03*
Y178971D02*
D03*
Y175428D02*
D03*
X45454D02*
D03*
Y178971D02*
D03*
Y182514D02*
D03*
X140748Y167323D02*
D03*
X142717Y170276D02*
D03*
X138779D02*
D03*
Y164370D02*
D03*
X142717D02*
D03*
M02*
