G04*
G04 #@! TF.GenerationSoftware,Altium Limited,Altium Designer,22.2.1 (43)*
G04*
G04 Layer_Color=32896*
%FSLAX25Y25*%
%MOIN*%
G70*
G04*
G04 #@! TF.SameCoordinates,8235A018-37D0-441A-9F77-F42B88AFE5DC*
G04*
G04*
G04 #@! TF.FilePolarity,Positive*
G04*
G01*
G75*
%ADD128C,0.02000*%
D128*
X153348Y236216D02*
X154329Y235236D01*
X236221Y237205D02*
X236221Y-0D01*
X196936Y237205D02*
X236221Y237205D01*
X0Y-0D02*
X236221Y-0D01*
X68272Y236220D02*
X153348Y236216D01*
X67638Y235637D02*
X68272Y236220D01*
X24016Y55118D02*
X24366Y55157D01*
X24699Y55273D01*
X24998Y55461D01*
X25248Y55710D01*
X25435Y56009D01*
X25552Y56342D01*
X25591Y56693D01*
X25591Y140157D02*
X25591Y56693D01*
X25552Y140508D02*
X25591Y140157D01*
X25435Y140841D02*
X25552Y140508D01*
X25248Y141140D02*
X25435Y140841D01*
X24998Y141389D02*
X25248Y141140D01*
X24699Y141577D02*
X24998Y141389D01*
X24366Y141693D02*
X24699Y141577D01*
X24016Y141732D02*
X24366Y141693D01*
X0Y141732D02*
X24016D01*
X0Y236220D02*
X0Y141732D01*
X0Y236220D02*
X22799Y236216D01*
X23434Y235635D01*
X24177Y235201D01*
X24994Y234933D01*
X25850Y234842D01*
X65220D01*
X66077Y234932D01*
X66895Y235201D01*
X67638Y235637D01*
X154329Y235236D02*
X194796D01*
X196936Y237205D01*
X0Y-0D02*
Y55118D01*
X24016D01*
M02*
